<?xml version="1.0" standalone="no"?>
<!DOCTYPE svg PUBLIC "-//W3C//DTD SVG 1.1//EN" "http://www.w3.org/Graphics/SVG/1.1/DTD/svg11.dtd" >
<svg xmlns="http://www.w3.org/2000/svg" xmlns:xlink="http://www.w3.org/1999/xlink" version="1.1">
<metadata>
Created by FontForge 20190801 at Tue Jan  8 22:57:17 2019
 By Jimmy Wärting
Maison Neue is the thoroughly reworked version of our early Maison typeface family. While the original version was constructed on geometric principles, Maison Neue has now been meticulously redrawn and extended. Paying particular attention to harmony, rhythm and flow, the new typeface also accounts for up-to-date display and reproduction technologies to create a distinctly contemporary grotesque, with a classic touch. The whole family contains 40 styles thus far; each includes an extended Latin character set and a variety of OpenType features.
</metadata>
<defs>
<font id="MaisonNeue-DemiBoldItalic" horiz-adv-x="650" >
  <font-face 
    font-family="Maison Neue DemiBold"
    font-weight="600"
    font-style="italic"
    font-stretch="normal"
    units-per-em="1000"
    panose-1="2 11 7 4 4 0 0 0 0 0"
    ascent="730"
    descent="-270"
    x-height="530"
    cap-height="700"
    bbox="-647 -300 2145 1045"
    underline-thickness="100"
    underline-position="-120"
    slope="-10"
    unicode-range="U+000D-FEFF"
  />
<missing-glyph horiz-adv-x="694" 
d="M55 -5v423c0 171 131 292 292 292c161 2 297 -123 294 -292v-423h-28l-65 65l-68 -65l-63 65l-71 -65l-69 65l-63 -65l-67 65l-66 -65h-26zM155 300l63 63l64 -63l14 14l-64 63l64 64l-14 14l-64 -64l-63 64l-14 -14l63 -64l-63 -63zM415 300l63 63l64 -63l14 14l-64 63
l64 64l-14 14l-64 -64l-63 64l-14 -14l63 -64l-63 -63z" />
    <glyph glyph-name="W_W_W" unicode="WWW" horiz-adv-x="2081" 
d="M113 0l-23 700h128l12 -498h2l227 498h117l52 -498h2l227 498h117l51 -498h2l227 498h117l52 -498h2l227 498h117l51 -498h2l189 498h134l-269 -700h-138l-56 512h-2l-233 -512h-107l-55 512h-2l-234 -512h-106l-56 512h-2l-233 -512h-107l-55 512h-2l-234 -512h-141z
" />
    <glyph glyph-name="fi" unicode="fi" horiz-adv-x="584" 
d="M490 742h123l-22 -119h-122zM278 530h300l-94 -530h-122l75 421h-178l-75 -421h-122l75 421h-99l19 109h99l10 60c16 88 74 133 169 133h98l-20 -110h-75c-33 0 -48 -12 -53 -45z" />
    <glyph glyph-name="fl" unicode="fl" horiz-adv-x="586" 
d="M491 730h122l-129 -730h-122l74 421h-177l-75 -421h-122l75 421h-99l19 109h99l10 60c16 88 74 133 169 133h98l-20 -110h-75c-33 0 -48 -12 -53 -45l-7 -38h178z" />
    <glyph glyph-name="w_w_w" unicode="www" horiz-adv-x="1860" 
d="M92 0l-27 530h120l12 -365h2l179 365h113l62 -365h2l179 365h113l62 -365h2l179 365h113l62 -365h2l179 365h113l62 -365h2l140 365h126l-214 -530h-124l-68 387h-2l-191 -387h-95l-68 387h-2l-191 -387h-95l-68 387h-2l-191 -387h-95l-68 387h-2l-191 -387h-130z" />
    <glyph glyph-name=".notdef" horiz-adv-x="694" 
d="M55 -5v423c0 171 131 292 292 292c161 2 297 -123 294 -292v-423h-28l-65 65l-68 -65l-63 65l-71 -65l-69 65l-63 -65l-67 65l-66 -65h-26zM155 300l63 63l64 -63l14 14l-64 63l64 64l-14 14l-64 -64l-63 64l-14 -14l63 -64l-63 -63zM415 300l63 63l64 -63l14 14l-64 63
l64 64l-14 14l-64 -64l-63 64l-14 -14l63 -64l-63 -63z" />
    <glyph glyph-name="NULL" horiz-adv-x="0" 
 />
    <glyph glyph-name="CR" unicode="&#xd;" horiz-adv-x="332" 
 />
    <glyph glyph-name="space" unicode=" " horiz-adv-x="260" 
 />
    <glyph glyph-name="A" unicode="A" horiz-adv-x="616" 
d="M447 0l-20 119h-283l-62 -119h-131l375 700h117l128 -700h-124zM203 231h205l-50 293h-2z" />
    <glyph glyph-name="Aacute" unicode="&#xc1;" horiz-adv-x="616" 
d="M447 0l-20 119h-283l-62 -119h-131l375 700h117l128 -700h-124zM203 231h205l-50 293h-2zM327 760l109 131h134l-138 -131h-105z" />
    <glyph glyph-name="Abreve" unicode="&#x102;" horiz-adv-x="616" 
d="M447 0l-20 119h-283l-62 -119h-131l375 700h117l128 -700h-124zM203 231h205l-50 293h-2zM268 883h67c4 -35 24 -52 59 -52c41 0 71 17 90 52h67c-23 -84 -80 -133 -163 -133c-71 0 -120 54 -120 133z" />
    <glyph glyph-name="uni01CD" unicode="&#x1cd;" horiz-adv-x="616" 
d="M447 0l-20 119h-283l-62 -119h-131l375 700h117l128 -700h-124zM203 231h205l-50 293h-2zM482 888l61 -55l-79 -83h-133l-60 94l71 44l55 -89z" />
    <glyph glyph-name="Acircumflex" unicode="&#xc2;" horiz-adv-x="616" 
d="M447 0l-20 119h-283l-62 -119h-131l375 700h117l128 -700h-124zM203 231h205l-50 293h-2zM530 784l-71 -44l-55 90l-86 -90l-60 56l79 82h133z" />
    <glyph glyph-name="uni1EAC" unicode="&#x1eac;" horiz-adv-x="616" 
d="M447 0l-20 119h-283l-62 -119h-131l375 700h117l128 -700h-124zM203 231h205l-50 293h-2zM530 784l-71 -44l-55 90l-86 -90l-60 56l79 82h133zM177 -166l20 117h120l-21 -117h-119z" />
    <glyph glyph-name="Adieresis" unicode="&#xc4;" horiz-adv-x="616" 
d="M447 0l-20 119h-283l-62 -119h-131l375 700h117l128 -700h-124zM203 231h205l-50 293h-2zM235 750l20 117h120l-21 -117h-119zM434 750l20 117h119l-20 -117h-119z" />
    <glyph glyph-name="uni01DE" unicode="&#x1de;" horiz-adv-x="616" 
d="M447 0l-20 119h-283l-62 -119h-131l375 700h117l128 -700h-124zM203 231h205l-50 293h-2zM235 750l20 117h120l-21 -117h-119zM434 750l20 117h119l-20 -117h-119zM282 907l13 79h301l-13 -79h-301z" />
    <glyph glyph-name="uni1EA0" unicode="&#x1ea0;" horiz-adv-x="616" 
d="M447 0l-20 119h-283l-62 -119h-131l375 700h117l128 -700h-124zM203 231h205l-50 293h-2zM177 -166l20 117h120l-21 -117h-119z" />
    <glyph glyph-name="Agrave" unicode="&#xc0;" horiz-adv-x="616" 
d="M447 0l-20 119h-283l-62 -119h-131l375 700h117l128 -700h-124zM203 231h205l-50 293h-2zM347 760l-93 131h129l63 -131h-99z" />
    <glyph glyph-name="Amacron" unicode="&#x100;" horiz-adv-x="616" 
d="M447 0l-20 119h-283l-62 -119h-131l375 700h117l128 -700h-124zM203 231h205l-50 293h-2zM256 760l13 79h301l-13 -79h-301z" />
    <glyph glyph-name="Aogonek" unicode="&#x104;" horiz-adv-x="616" 
d="M447 0l-20 119h-283l-62 -119h-131l375 700h117l128 -700h-124zM203 231h205l-50 293h-2zM369 -134c0 53 44 103 133 149l50 -15c-56 -32 -92 -72 -92 -104c0 -15 8 -21 27 -21c18 0 37 6 58 17l20 -74c-37 -17 -70 -26 -101 -26c-61 0 -95 27 -95 74z" />
    <glyph glyph-name="Aring" unicode="&#xc5;" horiz-adv-x="616" 
d="M447 0l-20 119h-283l-62 -119h-131l375 700h117l128 -700h-124zM203 231h205l-50 293h-2zM244 767c0 73 58 127 141 127c81 0 141 -54 141 -127s-60 -127 -141 -127c-83 0 -141 54 -141 127zM453 767c0 40 -28 67 -68 67s-68 -27 -68 -67c0 -39 28 -67 68 -67
s68 28 68 67z" />
    <glyph glyph-name="Aringacute" unicode="&#x1fa;" horiz-adv-x="616" 
d="M447 0l-20 119h-283l-62 -119h-131l375 700h117l128 -700h-124zM203 231h205l-50 293h-2zM244 767c0 73 58 127 141 127c81 0 141 -54 141 -127s-60 -127 -141 -127c-83 0 -141 54 -141 127zM453 767c0 40 -28 67 -68 67s-68 -27 -68 -67c0 -39 28 -67 68 -67
s68 28 68 67zM324 876l109 131h134l-138 -131h-105z" />
    <glyph glyph-name="Atilde" unicode="&#xc3;" horiz-adv-x="616" 
d="M447 0l-20 119h-283l-62 -119h-131l375 700h117l128 -700h-124zM203 231h205l-50 293h-2zM386 778c-16 8 -35 16 -48 16c-19 0 -32 -11 -39 -34h-63c13 68 55 109 108 109c28 0 47 -7 79 -22c20 -11 36 -16 48 -16c19 0 32 11 40 33h62c-13 -67 -55 -109 -108 -109
c-28 0 -50 8 -79 23z" />
    <glyph glyph-name="AE" unicode="&#xc6;" horiz-adv-x="865" 
d="M876 589h-258l-30 -177h231l-19 -107h-231l-34 -195h258l-20 -110h-378l22 125h-252l-74 -125h-140l422 700h523zM436 234l63 355h-61l-209 -355h207z" />
    <glyph glyph-name="AEacute" unicode="&#x1fc;" horiz-adv-x="865" 
d="M876 589h-258l-30 -177h231l-19 -107h-231l-34 -195h258l-20 -110h-378l22 125h-252l-74 -125h-140l422 700h523zM436 234l63 355h-61l-209 -355h207zM457 760l109 131h134l-138 -131h-105z" />
    <glyph glyph-name="B" unicode="B" horiz-adv-x="638" 
d="M29 0l123 700h253c135 0 215 -62 215 -165c0 -76 -41 -134 -118 -166v-2c55 -21 92 -76 92 -139c0 -145 -105 -228 -286 -228h-279zM228 415h139c73 0 124 40 124 99c0 47 -32 71 -93 71h-140zM175 115h150c93 0 142 40 142 117c0 51 -38 80 -105 80h-151z" />
    <glyph glyph-name="uni1E04" unicode="&#x1e04;" horiz-adv-x="638" 
d="M29 0l123 700h253c135 0 215 -62 215 -165c0 -76 -41 -134 -118 -166v-2c55 -21 92 -76 92 -139c0 -145 -105 -228 -286 -228h-279zM228 415h139c73 0 124 40 124 99c0 47 -32 71 -93 71h-140zM175 115h150c93 0 142 40 142 117c0 51 -38 80 -105 80h-151zM197 -166
l20 117h120l-21 -117h-119z" />
    <glyph glyph-name="C" unicode="C" horiz-adv-x="649" 
d="M47 280c-2 248 145 438 344 435c148 0 252 -102 262 -249l-125 -14c-9 92 -60 146 -137 146c-127 0 -217 -135 -217 -318c0 -108 52 -178 139 -178s151 55 190 165l119 -40c-52 -153 -162 -242 -309 -242c-159 0 -266 120 -266 295z" />
    <glyph glyph-name="Cacute" unicode="&#x106;" horiz-adv-x="649" 
d="M47 280c-2 248 145 438 344 435c148 0 252 -102 262 -249l-125 -14c-9 92 -60 146 -137 146c-127 0 -217 -135 -217 -318c0 -108 52 -178 139 -178s151 55 190 165l119 -40c-52 -153 -162 -242 -309 -242c-159 0 -266 120 -266 295zM333 775l109 131h134l-138 -131h-105z
" />
    <glyph glyph-name="Ccaron" unicode="&#x10c;" horiz-adv-x="649" 
d="M47 280c-2 248 145 438 344 435c148 0 252 -102 262 -249l-125 -14c-9 92 -60 146 -137 146c-127 0 -217 -135 -217 -318c0 -108 52 -178 139 -178s151 55 190 165l119 -40c-52 -153 -162 -242 -309 -242c-159 0 -266 120 -266 295zM488 903l61 -55l-79 -83h-133l-60 94
l71 44l55 -89z" />
    <glyph glyph-name="Ccedilla" unicode="&#xc7;" horiz-adv-x="649" 
d="M47 280c-2 248 145 438 344 435c148 0 252 -102 262 -249l-125 -14c-9 92 -60 146 -137 146c-127 0 -217 -135 -217 -318c0 -108 52 -178 139 -178s151 55 190 165l119 -40c-52 -153 -162 -242 -309 -242c-159 0 -266 120 -266 295zM421 -138c0 -65 -51 -111 -123 -111
c-43 0 -80 13 -111 38l43 55c21 -17 39 -24 64 -24c31 0 56 21 56 45c0 17 -13 28 -33 28c-21 0 -40 -9 -59 -26l-48 30l83 116l55 -19l-35 -46c4 1 10 1 17 1c55 0 91 -35 91 -87z" />
    <glyph glyph-name="Ccircumflex" unicode="&#x108;" horiz-adv-x="649" 
d="M47 280c-2 248 145 438 344 435c148 0 252 -102 262 -249l-125 -14c-9 92 -60 146 -137 146c-127 0 -217 -135 -217 -318c0 -108 52 -178 139 -178s151 55 190 165l119 -40c-52 -153 -162 -242 -309 -242c-159 0 -266 120 -266 295zM536 799l-71 -44l-55 90l-86 -90
l-60 56l79 82h133z" />
    <glyph glyph-name="Cdotaccent" unicode="&#x10a;" horiz-adv-x="649" 
d="M47 280c-2 248 145 438 344 435c148 0 252 -102 262 -249l-125 -14c-9 92 -60 146 -137 146c-127 0 -217 -135 -217 -318c0 -108 52 -178 139 -178s151 55 190 165l119 -40c-52 -153 -162 -242 -309 -242c-159 0 -266 120 -266 295zM342 775l20 117h120l-21 -117h-119z
" />
    <glyph glyph-name="D" unicode="D" horiz-adv-x="663" 
d="M29 0l123 700h203c176 0 290 -118 290 -291c2 -241 -147 -412 -362 -409h-254zM176 117h105c144 0 237 113 237 292c0 112 -64 175 -171 175h-89z" />
    <glyph glyph-name="Eth" unicode="&#xd0;" horiz-adv-x="663" 
d="M29 0l123 700h203c176 0 290 -118 290 -291c2 -241 -147 -412 -362 -409h-254zM176 117h105c144 0 237 113 237 292c0 112 -64 175 -171 175h-89zM-20 301l17 101h364l-17 -101h-364z" />
    <glyph glyph-name="Dcaron" unicode="&#x10e;" horiz-adv-x="663" 
d="M29 0l123 700h203c176 0 290 -118 290 -291c2 -241 -147 -412 -362 -409h-254zM176 117h105c144 0 237 113 237 292c0 112 -64 175 -171 175h-89zM455 888l61 -55l-79 -83h-133l-60 94l71 44l55 -89z" />
    <glyph glyph-name="Dcroat" unicode="&#x110;" horiz-adv-x="663" 
d="M29 0l123 700h203c176 0 290 -118 290 -291c2 -241 -147 -412 -362 -409h-254zM176 117h105c144 0 237 113 237 292c0 112 -64 175 -171 175h-89zM-20 301l17 101h364l-17 -101h-364z" />
    <glyph glyph-name="uni1E0C" unicode="&#x1e0c;" horiz-adv-x="663" 
d="M29 0l123 700h203c176 0 290 -118 290 -291c2 -241 -147 -412 -362 -409h-254zM176 117h105c144 0 237 113 237 292c0 112 -64 175 -171 175h-89zM199 -166l20 117h120l-21 -117h-119z" />
    <glyph glyph-name="E" unicode="E" horiz-adv-x="562" 
d="M573 583h-314l-30 -169h288l-19 -112h-289l-33 -185h316l-21 -117h-442l123 700h441z" />
    <glyph glyph-name="Eacute" unicode="&#xc9;" horiz-adv-x="562" 
d="M573 583h-314l-30 -169h288l-19 -112h-289l-33 -185h316l-21 -117h-442l123 700h441zM315 760l109 131h134l-138 -131h-105z" />
    <glyph glyph-name="Ebreve" unicode="&#x114;" horiz-adv-x="562" 
d="M573 583h-314l-30 -169h288l-19 -112h-289l-33 -185h316l-21 -117h-442l123 700h441zM256 883h67c4 -35 24 -52 59 -52c41 0 71 17 90 52h67c-23 -84 -80 -133 -163 -133c-71 0 -120 54 -120 133z" />
    <glyph glyph-name="Ecaron" unicode="&#x11a;" horiz-adv-x="562" 
d="M573 583h-314l-30 -169h288l-19 -112h-289l-33 -185h316l-21 -117h-442l123 700h441zM470 888l61 -55l-79 -83h-133l-60 94l71 44l55 -89z" />
    <glyph glyph-name="uni0228" unicode="&#x228;" horiz-adv-x="562" 
d="M573 583h-314l-30 -169h288l-19 -112h-289l-33 -185h316l-21 -117h-442l123 700h441zM378 -124c0 -65 -51 -111 -123 -111c-43 0 -80 13 -111 38l43 55c21 -17 39 -24 64 -24c31 0 56 21 56 45c0 17 -13 28 -33 28c-21 0 -40 -9 -59 -26l-48 30l83 116l55 -19l-35 -46
c4 1 10 1 17 1c55 0 91 -35 91 -87z" />
    <glyph glyph-name="Ecircumflex" unicode="&#xca;" horiz-adv-x="562" 
d="M573 583h-314l-30 -169h288l-19 -112h-289l-33 -185h316l-21 -117h-442l123 700h441zM518 784l-71 -44l-55 90l-86 -90l-60 56l79 82h133z" />
    <glyph glyph-name="uni1EC6" unicode="&#x1ec6;" horiz-adv-x="562" 
d="M573 583h-314l-30 -169h288l-19 -112h-289l-33 -185h316l-21 -117h-442l123 700h441zM518 784l-71 -44l-55 90l-86 -90l-60 56l79 82h133zM184 -166l20 117h120l-21 -117h-119z" />
    <glyph glyph-name="Edieresis" unicode="&#xcb;" horiz-adv-x="562" 
d="M573 583h-314l-30 -169h288l-19 -112h-289l-33 -185h316l-21 -117h-442l123 700h441zM223 750l20 117h120l-21 -117h-119zM422 750l20 117h119l-20 -117h-119z" />
    <glyph glyph-name="Edotaccent" unicode="&#x116;" horiz-adv-x="562" 
d="M573 583h-314l-30 -169h288l-19 -112h-289l-33 -185h316l-21 -117h-442l123 700h441zM324 760l20 117h120l-21 -117h-119z" />
    <glyph glyph-name="uni1EB8" unicode="&#x1eb8;" horiz-adv-x="562" 
d="M573 583h-314l-30 -169h288l-19 -112h-289l-33 -185h316l-21 -117h-442l123 700h441zM184 -166l20 117h120l-21 -117h-119z" />
    <glyph glyph-name="Egrave" unicode="&#xc8;" horiz-adv-x="562" 
d="M573 583h-314l-30 -169h288l-19 -112h-289l-33 -185h316l-21 -117h-442l123 700h441zM335 760l-93 131h129l63 -131h-99z" />
    <glyph glyph-name="Emacron" unicode="&#x112;" horiz-adv-x="562" 
d="M573 583h-314l-30 -169h288l-19 -112h-289l-33 -185h316l-21 -117h-442l123 700h441zM244 760l13 79h301l-13 -79h-301z" />
    <glyph glyph-name="Eogonek" unicode="&#x118;" horiz-adv-x="562" 
d="M573 583h-314l-30 -169h288l-19 -112h-289l-33 -185h316l-21 -117h-442l123 700h441zM248 -134c0 53 44 103 133 149l50 -15c-56 -32 -92 -72 -92 -104c0 -15 8 -21 27 -21c18 0 37 6 58 17l20 -74c-37 -17 -70 -26 -101 -26c-61 0 -95 27 -95 74z" />
    <glyph glyph-name="uni018E" unicode="&#x18e;" horiz-adv-x="572" 
d="M574 700l-123 -700h-442l21 117h314l32 185h-288l20 112h288l31 169h-316l21 117h442z" />
    <glyph glyph-name="uni1EBC" unicode="&#x1ebc;" horiz-adv-x="562" 
d="M573 583h-314l-30 -169h288l-19 -112h-289l-33 -185h316l-21 -117h-442l123 700h441zM374 778c-16 8 -35 16 -48 16c-19 0 -32 -11 -39 -34h-63c13 68 55 109 108 109c28 0 47 -7 79 -22c20 -11 36 -16 48 -16c19 0 32 11 40 33h62c-13 -67 -55 -109 -108 -109
c-28 0 -50 8 -79 23z" />
    <glyph glyph-name="F" unicode="F" horiz-adv-x="554" 
d="M572 583h-314l-34 -195h294l-20 -113h-294l-48 -275h-127l123 700h441z" />
    <glyph glyph-name="G" unicode="G" horiz-adv-x="659" 
d="M492 256h-145l15 106h279l-12 -72c-15 -94 -51 -168 -107 -223s-126 -82 -209 -82c-158 0 -266 120 -266 295c-3 249 147 439 344 435c143 0 248 -97 262 -241l-126 -15c-11 88 -61 139 -136 139c-125 0 -217 -135 -217 -318c0 -109 54 -178 139 -178
c89 0 158 65 179 154z" />
    <glyph glyph-name="Gbreve" unicode="&#x11e;" horiz-adv-x="659" 
d="M492 256h-145l15 106h279l-12 -72c-15 -94 -51 -168 -107 -223s-126 -82 -209 -82c-158 0 -266 120 -266 295c-3 249 147 439 344 435c143 0 248 -97 262 -241l-126 -15c-11 88 -61 139 -136 139c-125 0 -217 -135 -217 -318c0 -109 54 -178 139 -178
c89 0 158 65 179 154zM274 898h67c4 -35 24 -52 59 -52c41 0 71 17 90 52h67c-23 -84 -80 -133 -163 -133c-71 0 -120 54 -120 133z" />
    <glyph glyph-name="Gcircumflex" unicode="&#x11c;" horiz-adv-x="659" 
d="M492 256h-145l15 106h279l-12 -72c-15 -94 -51 -168 -107 -223s-126 -82 -209 -82c-158 0 -266 120 -266 295c-3 249 147 439 344 435c143 0 248 -97 262 -241l-126 -15c-11 88 -61 139 -136 139c-125 0 -217 -135 -217 -318c0 -109 54 -178 139 -178
c89 0 158 65 179 154zM536 799l-71 -44l-55 90l-86 -90l-60 56l79 82h133z" />
    <glyph glyph-name="uni0122" unicode="&#x122;" horiz-adv-x="659" 
d="M492 256h-145l15 106h279l-12 -72c-15 -94 -51 -168 -107 -223s-126 -82 -209 -82c-158 0 -266 120 -266 295c-3 249 147 439 344 435c143 0 248 -97 262 -241l-126 -15c-11 88 -61 139 -136 139c-125 0 -217 -135 -217 -318c0 -109 54 -178 139 -178
c89 0 158 65 179 154zM213 -283l9 52c33 8 46 23 51 56h-46l20 111h122l-17 -98c-13 -72 -60 -113 -139 -121z" />
    <glyph glyph-name="Gdotaccent" unicode="&#x120;" horiz-adv-x="659" 
d="M492 256h-145l15 106h279l-12 -72c-15 -94 -51 -168 -107 -223s-126 -82 -209 -82c-158 0 -266 120 -266 295c-3 249 147 439 344 435c143 0 248 -97 262 -241l-126 -15c-11 88 -61 139 -136 139c-125 0 -217 -135 -217 -318c0 -109 54 -178 139 -178
c89 0 158 65 179 154zM342 775l20 117h120l-21 -117h-119z" />
    <glyph glyph-name="H" unicode="H" horiz-adv-x="667" 
d="M29 0l123 700h127l-51 -283h263l51 283h127l-123 -700h-127l53 301h-264l-52 -301h-127z" />
    <glyph glyph-name="Hbar" unicode="&#x126;" horiz-adv-x="654" 
d="M714 602l-18 -97h-68l-89 -505h-125l53 305h-266l-54 -305h-125l89 505h-69l18 97h68l17 98h125l-17 -98h266l18 98h125l-17 -98h69zM485 414l17 91h-266l-16 -91h265z" />
    <glyph glyph-name="Hcircumflex" unicode="&#x124;" horiz-adv-x="667" 
d="M29 0l123 700h127l-51 -283h263l51 283h127l-123 -700h-127l53 301h-264l-52 -301h-127zM545 784l-71 -44l-55 90l-86 -90l-60 56l79 82h133z" />
    <glyph glyph-name="uni1E24" unicode="&#x1e24;" horiz-adv-x="667" 
d="M29 0l123 700h127l-51 -283h263l51 283h127l-123 -700h-127l53 301h-264l-52 -301h-127zM201 -166l20 117h120l-21 -117h-119z" />
    <glyph glyph-name="I" unicode="I" horiz-adv-x="277" 
d="M29 0l123 700h127l-123 -700h-127z" />
    <glyph glyph-name="Iacute" unicode="&#xcd;" horiz-adv-x="277" 
d="M29 0l123 700h127l-123 -700h-127zM158 760l109 131h134l-138 -131h-105z" />
    <glyph glyph-name="Ibreve" unicode="&#x12c;" horiz-adv-x="277" 
d="M29 0l123 700h127l-123 -700h-127zM99 883h67c4 -35 24 -52 59 -52c41 0 71 17 90 52h67c-23 -84 -80 -133 -163 -133c-71 0 -120 54 -120 133z" />
    <glyph glyph-name="uni01CF" unicode="&#x1cf;" horiz-adv-x="277" 
d="M29 0l123 700h127l-123 -700h-127zM313 888l61 -55l-79 -83h-133l-60 94l71 44l55 -89z" />
    <glyph glyph-name="Icircumflex" unicode="&#xce;" horiz-adv-x="277" 
d="M29 0l123 700h127l-123 -700h-127zM361 784l-71 -44l-55 90l-86 -90l-60 56l79 82h133z" />
    <glyph glyph-name="Idieresis" unicode="&#xcf;" horiz-adv-x="277" 
d="M29 0l123 700h127l-123 -700h-127zM66 750l20 117h120l-21 -117h-119zM265 750l20 117h119l-20 -117h-119z" />
    <glyph glyph-name="Idotaccent" unicode="&#x130;" horiz-adv-x="277" 
d="M29 0l123 700h127l-123 -700h-127zM167 760l20 117h120l-21 -117h-119z" />
    <glyph glyph-name="uni1ECA" unicode="&#x1eca;" horiz-adv-x="277" 
d="M29 0l123 700h127l-123 -700h-127zM6 -166l20 117h120l-21 -117h-119z" />
    <glyph glyph-name="Igrave" unicode="&#xcc;" horiz-adv-x="277" 
d="M29 0l123 700h127l-123 -700h-127zM178 760l-93 131h129l63 -131h-99z" />
    <glyph glyph-name="Imacron" unicode="&#x12a;" horiz-adv-x="277" 
d="M29 0l123 700h127l-123 -700h-127zM87 760l13 79h301l-13 -79h-301z" />
    <glyph glyph-name="Iogonek" unicode="&#x12e;" horiz-adv-x="277" 
d="M29 0l123 700h127l-123 -700h-127zM-50 -134c0 53 44 103 133 149l50 -15c-56 -32 -92 -72 -92 -104c0 -15 8 -21 27 -21c18 0 37 6 58 17l20 -74c-37 -17 -70 -26 -101 -26c-61 0 -95 27 -95 74z" />
    <glyph glyph-name="Itilde" unicode="&#x128;" horiz-adv-x="277" 
d="M29 0l123 700h127l-123 -700h-127zM217 778c-16 8 -35 16 -48 16c-19 0 -32 -11 -39 -34h-63c13 68 55 109 108 109c28 0 47 -7 79 -22c20 -11 36 -16 48 -16c19 0 32 11 40 33h62c-13 -67 -55 -109 -108 -109c-28 0 -50 8 -79 23z" />
    <glyph glyph-name="J" unicode="J" horiz-adv-x="553" 
d="M12 205l124 14c9 -87 36 -117 95 -117c64 0 104 44 120 132l83 466h127l-87 -489c-25 -144 -112 -226 -243 -226c-128 0 -210 79 -219 220z" />
    <glyph glyph-name="Jcircumflex" unicode="&#x134;" horiz-adv-x="553" 
d="M12 205l124 14c9 -87 36 -117 95 -117c64 0 104 44 120 132l83 466h127l-87 -489c-25 -144 -112 -226 -243 -226c-128 0 -210 79 -219 220zM643 784l-71 -44l-55 90l-86 -90l-60 56l79 82h133z" />
    <glyph glyph-name="K" unicode="K" horiz-adv-x="635" 
d="M685 700l-305 -305l210 -395h-145l-155 303h-2l-96 -96l-36 -207h-127l123 700h127l-54 -300h2l297 300h161z" />
    <glyph glyph-name="uni0136" unicode="&#x136;" horiz-adv-x="635" 
d="M685 700l-305 -305l210 -395h-145l-155 303h-2l-96 -96l-36 -207h-127l123 700h127l-54 -300h2l297 300h161zM213 -268l9 52c33 8 46 23 51 56h-46l20 111h122l-17 -98c-13 -72 -60 -113 -139 -121z" />
    <glyph glyph-name="L" unicode="L" horiz-adv-x="532" 
d="M28 0l124 700h127l-103 -583h302l-21 -117h-429z" />
    <glyph glyph-name="Lacute" unicode="&#x139;" horiz-adv-x="532" 
d="M28 0l124 700h127l-103 -583h302l-21 -117h-429zM158 760l109 131h134l-138 -131h-105z" />
    <glyph glyph-name="Lcaron" unicode="&#x13d;" horiz-adv-x="520" 
d="M28 0l124 700h127l-103 -583h302l-21 -117h-429zM447 481l9 52c33 8 46 23 51 56h-46l20 111h122l-17 -98c-13 -72 -60 -113 -139 -121z" />
    <glyph glyph-name="uni013B" unicode="&#x13b;" horiz-adv-x="532" 
d="M28 0l124 700h127l-103 -583h302l-21 -117h-429zM142 -268l9 52c33 8 46 23 51 56h-46l20 111h122l-17 -98c-13 -72 -60 -113 -139 -121z" />
    <glyph glyph-name="Ldot" unicode="&#x13f;" horiz-adv-x="532" 
d="M28 0l124 700h127l-103 -583h302l-21 -117h-429zM332 323l24 142h146l-24 -142h-146z" />
    <glyph glyph-name="uni1E36" unicode="&#x1e36;" horiz-adv-x="532" 
d="M28 0l124 700h127l-103 -583h302l-21 -117h-429zM156 -166l20 117h120l-21 -117h-119z" />
    <glyph glyph-name="Lslash" unicode="&#x141;" horiz-adv-x="613" 
d="M109 0l124 700h127l-103 -583h302l-21 -117h-429zM192 279l309 192l-38 60l-224 -139l1 7l-245 -157l35 -53l165 105z" />
    <glyph glyph-name="M" unicode="M" horiz-adv-x="851" 
d="M28 0l124 700h137l120 -504h2l294 504h148l-124 -700h-122l83 475h-1l-281 -475h-54l-116 475h-4l-84 -475h-122z" />
    <glyph glyph-name="N" unicode="N" horiz-adv-x="673" 
d="M28 0l124 700h130l180 -485h2l85 485h127l-124 -700h-130l-180 485h-2l-85 -485h-127z" />
    <glyph glyph-name="Nacute" unicode="&#x143;" horiz-adv-x="673" 
d="M28 0l124 700h130l180 -485h2l85 485h127l-124 -700h-130l-180 485h-2l-85 -485h-127zM359 760l109 131h134l-138 -131h-105z" />
    <glyph glyph-name="Ncaron" unicode="&#x147;" horiz-adv-x="673" 
d="M28 0l124 700h130l180 -485h2l85 485h127l-124 -700h-130l-180 485h-2l-85 -485h-127zM514 888l61 -55l-79 -83h-133l-60 94l71 44l55 -89z" />
    <glyph glyph-name="uni0145" unicode="&#x145;" horiz-adv-x="673" 
d="M28 0l124 700h130l180 -485h2l85 485h127l-124 -700h-130l-180 485h-2l-85 -485h-127zM208 -268l9 52c33 8 46 23 51 56h-46l20 111h122l-17 -98c-13 -72 -60 -113 -139 -121z" />
    <glyph glyph-name="uni1E44" unicode="&#x1e44;" horiz-adv-x="673" 
d="M28 0l124 700h130l180 -485h2l85 485h127l-124 -700h-130l-180 485h-2l-85 -485h-127zM368 760l20 117h120l-21 -117h-119z" />
    <glyph glyph-name="uni1E46" unicode="&#x1e46;" horiz-adv-x="673" 
d="M28 0l124 700h130l180 -485h2l85 485h127l-124 -700h-130l-180 485h-2l-85 -485h-127zM222 -166l20 117h120l-21 -117h-119z" />
    <glyph glyph-name="Eng" unicode="&#x14a;" horiz-adv-x="673" 
d="M676 700l-124 -700h-1l-8 -49c-16 -97 -59 -142 -152 -142h-80l19 111h41c29 0 43 12 50 48l6 32h-5l-180 485h-2l-85 -485h-127l124 700h130l180 -485h2l85 485h127z" />
    <glyph glyph-name="Ntilde" unicode="&#xd1;" horiz-adv-x="673" 
d="M28 0l124 700h130l180 -485h2l85 485h127l-124 -700h-130l-180 485h-2l-85 -485h-127zM418 778c-16 8 -35 16 -48 16c-19 0 -32 -11 -39 -34h-63c13 68 55 109 108 109c28 0 47 -7 79 -22c20 -11 36 -16 48 -16c19 0 32 11 40 33h62c-13 -67 -55 -109 -108 -109
c-28 0 -50 8 -79 23z" />
    <glyph glyph-name="O" unicode="O" horiz-adv-x="683" 
d="M47 280c-3 248 149 438 348 435c161 0 271 -120 271 -295c3 -249 -150 -439 -349 -435c-160 0 -270 120 -270 295zM539 420c0 108 -56 178 -144 178c-127 0 -221 -135 -221 -318c0 -108 55 -178 143 -178c126 -3 224 137 222 318z" />
    <glyph glyph-name="Oacute" unicode="&#xd3;" horiz-adv-x="683" 
d="M47 280c-3 248 149 438 348 435c161 0 271 -120 271 -295c3 -249 -150 -439 -349 -435c-160 0 -270 120 -270 295zM539 420c0 108 -56 178 -144 178c-127 0 -221 -135 -221 -318c0 -108 55 -178 143 -178c126 -3 224 137 222 318zM337 775l109 131h134l-138 -131h-105z
" />
    <glyph glyph-name="Obreve" unicode="&#x14e;" horiz-adv-x="683" 
d="M47 280c-3 248 149 438 348 435c161 0 271 -120 271 -295c3 -249 -150 -439 -349 -435c-160 0 -270 120 -270 295zM539 420c0 108 -56 178 -144 178c-127 0 -221 -135 -221 -318c0 -108 55 -178 143 -178c126 -3 224 137 222 318zM278 898h67c4 -35 24 -52 59 -52
c41 0 71 17 90 52h67c-23 -84 -80 -133 -163 -133c-71 0 -120 54 -120 133z" />
    <glyph glyph-name="uni01D1" unicode="&#x1d1;" horiz-adv-x="683" 
d="M47 280c-3 248 149 438 348 435c161 0 271 -120 271 -295c3 -249 -150 -439 -349 -435c-160 0 -270 120 -270 295zM539 420c0 108 -56 178 -144 178c-127 0 -221 -135 -221 -318c0 -108 55 -178 143 -178c126 -3 224 137 222 318zM492 903l61 -55l-79 -83h-133l-60 94
l71 44l55 -89z" />
    <glyph glyph-name="Ocircumflex" unicode="&#xd4;" horiz-adv-x="683" 
d="M47 280c-3 248 149 438 348 435c161 0 271 -120 271 -295c3 -249 -150 -439 -349 -435c-160 0 -270 120 -270 295zM539 420c0 108 -56 178 -144 178c-127 0 -221 -135 -221 -318c0 -108 55 -178 143 -178c126 -3 224 137 222 318zM540 799l-71 -44l-55 90l-86 -90l-60 56
l79 82h133z" />
    <glyph glyph-name="uni1ED8" unicode="&#x1ed8;" horiz-adv-x="683" 
d="M47 280c-3 248 149 438 348 435c161 0 271 -120 271 -295c3 -249 -150 -439 -349 -435c-160 0 -270 120 -270 295zM539 420c0 108 -56 178 -144 178c-127 0 -221 -135 -221 -318c0 -108 55 -178 143 -178c126 -3 224 137 222 318zM540 799l-71 -44l-55 90l-86 -90l-60 56
l79 82h133zM231 -181l20 117h120l-21 -117h-119z" />
    <glyph glyph-name="Odieresis" unicode="&#xd6;" horiz-adv-x="683" 
d="M47 280c-3 248 149 438 348 435c161 0 271 -120 271 -295c3 -249 -150 -439 -349 -435c-160 0 -270 120 -270 295zM539 420c0 108 -56 178 -144 178c-127 0 -221 -135 -221 -318c0 -108 55 -178 143 -178c126 -3 224 137 222 318zM245 765l20 117h120l-21 -117h-119z
M444 765l20 117h119l-20 -117h-119z" />
    <glyph glyph-name="uni1ECC" unicode="&#x1ecc;" horiz-adv-x="683" 
d="M47 280c-3 248 149 438 348 435c161 0 271 -120 271 -295c3 -249 -150 -439 -349 -435c-160 0 -270 120 -270 295zM539 420c0 108 -56 178 -144 178c-127 0 -221 -135 -221 -318c0 -108 55 -178 143 -178c126 -3 224 137 222 318zM231 -181l20 117h120l-21 -117h-119z
" />
    <glyph glyph-name="Ograve" unicode="&#xd2;" horiz-adv-x="683" 
d="M47 280c-3 248 149 438 348 435c161 0 271 -120 271 -295c3 -249 -150 -439 -349 -435c-160 0 -270 120 -270 295zM539 420c0 108 -56 178 -144 178c-127 0 -221 -135 -221 -318c0 -108 55 -178 143 -178c126 -3 224 137 222 318zM357 775l-93 131h129l63 -131h-99z" />
    <glyph glyph-name="Ohungarumlaut" unicode="&#x150;" horiz-adv-x="683" 
d="M47 280c-3 248 149 438 348 435c161 0 271 -120 271 -295c3 -249 -150 -439 -349 -435c-160 0 -270 120 -270 295zM539 420c0 108 -56 178 -144 178c-127 0 -221 -135 -221 -318c0 -108 55 -178 143 -178c126 -3 224 137 222 318zM244 775l109 131h134l-138 -131h-105z
M427 775l109 131h134l-138 -131h-105z" />
    <glyph glyph-name="Omacron" unicode="&#x14c;" horiz-adv-x="683" 
d="M47 280c-3 248 149 438 348 435c161 0 271 -120 271 -295c3 -249 -150 -439 -349 -435c-160 0 -270 120 -270 295zM539 420c0 108 -56 178 -144 178c-127 0 -221 -135 -221 -318c0 -108 55 -178 143 -178c126 -3 224 137 222 318zM266 775l13 79h301l-13 -79h-301z" />
    <glyph glyph-name="Oslash" unicode="&#xd8;" horiz-adv-x="683" 
d="M666 420c3 -249 -150 -439 -349 -435c-59 0 -110 15 -153 45l-51 -70l-59 43l56 77c-40 52 -63 121 -63 200c-3 248 149 438 348 435c55 0 104 -14 148 -41l47 65l59 -43l-51 -71c44 -52 68 -124 68 -205zM188 187l286 392c-23 15 -49 23 -78 23
c-129 0 -225 -138 -225 -323c0 -35 6 -65 17 -92zM541 421c0 38 -7 71 -20 100l-288 -396c25 -18 52 -27 83 -27c129 0 225 138 225 323z" />
    <glyph glyph-name="Oslashacute" unicode="&#x1fe;" horiz-adv-x="683" 
d="M666 420c3 -249 -150 -439 -349 -435c-59 0 -110 15 -153 45l-51 -70l-59 43l56 77c-40 52 -63 121 -63 200c-3 248 149 438 348 435c55 0 104 -14 148 -41l47 65l59 -43l-51 -71c44 -52 68 -124 68 -205zM188 187l286 392c-23 15 -49 23 -78 23
c-129 0 -225 -138 -225 -323c0 -35 6 -65 17 -92zM541 421c0 38 -7 71 -20 100l-288 -396c25 -18 52 -27 83 -27c129 0 225 138 225 323zM337 775l109 131h134l-138 -131h-105z" />
    <glyph glyph-name="Otilde" unicode="&#xd5;" horiz-adv-x="683" 
d="M47 280c-3 248 149 438 348 435c161 0 271 -120 271 -295c3 -249 -150 -439 -349 -435c-160 0 -270 120 -270 295zM539 420c0 108 -56 178 -144 178c-127 0 -221 -135 -221 -318c0 -108 55 -178 143 -178c126 -3 224 137 222 318zM396 793c-16 8 -35 16 -48 16
c-19 0 -32 -11 -39 -34h-63c13 68 55 109 108 109c28 0 47 -7 79 -22c20 -11 36 -16 48 -16c19 0 32 11 40 33h62c-13 -67 -55 -109 -108 -109c-28 0 -50 8 -79 23z" />
    <glyph glyph-name="uni1E4C" unicode="&#x1e4c;" horiz-adv-x="683" 
d="M47 280c-3 248 149 438 348 435c161 0 271 -120 271 -295c3 -249 -150 -439 -349 -435c-160 0 -270 120 -270 295zM539 420c0 108 -56 178 -144 178c-127 0 -221 -135 -221 -318c0 -108 55 -178 143 -178c126 -3 224 137 222 318zM396 793c-16 8 -35 16 -48 16
c-19 0 -32 -11 -39 -34h-63c13 68 55 109 108 109c28 0 47 -7 79 -22c20 -11 36 -16 48 -16c19 0 32 11 40 33h62c-13 -67 -55 -109 -108 -109c-28 0 -50 8 -79 23zM362 914l109 131h134l-138 -131h-105z" />
    <glyph glyph-name="OE" unicode="&#x152;" horiz-adv-x="953" 
d="M47 280c-3 246 149 438 346 435c64 0 119 -17 165 -52h2l7 37h418l-21 -114h-294l-29 -173h266l-20 -110h-266l-33 -189h294l-20 -114h-415l5 35h-2c-37 -31 -86 -47 -146 -47c-153 0 -257 118 -257 292zM477 189l60 342c-33 47 -80 70 -141 70
c-128 3 -227 -140 -225 -321c0 -109 57 -177 146 -177c65 0 123 31 160 86z" />
    <glyph glyph-name="P" unicode="P" horiz-adv-x="618" 
d="M29 0l123 700h259c135 0 226 -81 226 -200c0 -150 -115 -250 -286 -250h-151l-44 -250h-127zM221 367h144c89 0 145 50 145 130c0 57 -36 86 -104 86h-148z" />
    <glyph glyph-name="Thorn" unicode="&#xde;" horiz-adv-x="620" 
d="M29 0l123 700h127l-21 -122h134c135 0 225 -81 225 -200c0 -150 -115 -250 -286 -250h-153l-22 -128h-127zM199 245h144c89 0 145 50 145 130c0 57 -35 86 -104 86h-148z" />
    <glyph glyph-name="Q" unicode="Q" horiz-adv-x="693" 
d="M581 126l70 -83l-71 -58l-61 73c-58 -49 -125 -73 -202 -73c-160 0 -270 120 -270 295c-3 248 149 438 348 435c161 0 271 -120 271 -295c0 -116 -30 -218 -85 -294zM440 151l-128 153l71 56l113 -134c29 56 43 121 43 194c0 108 -56 178 -144 178
c-127 0 -221 -135 -221 -318c0 -108 55 -178 143 -178c46 0 87 16 123 49z" />
    <glyph glyph-name="R" unicode="R" horiz-adv-x="623" 
d="M29 0l123 700h250c139 0 226 -76 226 -197c0 -124 -71 -206 -199 -233v-2l109 -268h-136l-101 260h-100l-45 -260h-127zM221 375h130c96 0 150 44 150 123c0 55 -35 85 -104 85h-139z" />
    <glyph glyph-name="Racute" unicode="&#x154;" horiz-adv-x="623" 
d="M29 0l123 700h250c139 0 226 -76 226 -197c0 -124 -71 -206 -199 -233v-2l109 -268h-136l-101 260h-100l-45 -260h-127zM221 375h130c96 0 150 44 150 123c0 55 -35 85 -104 85h-139zM301 760l109 131h134l-138 -131h-105z" />
    <glyph glyph-name="Rcaron" unicode="&#x158;" horiz-adv-x="623" 
d="M29 0l123 700h250c139 0 226 -76 226 -197c0 -124 -71 -206 -199 -233v-2l109 -268h-136l-101 260h-100l-45 -260h-127zM221 375h130c96 0 150 44 150 123c0 55 -35 85 -104 85h-139zM456 888l61 -55l-79 -83h-133l-60 94l71 44l55 -89z" />
    <glyph glyph-name="uni0156" unicode="&#x156;" horiz-adv-x="623" 
d="M29 0l123 700h250c139 0 226 -76 226 -197c0 -124 -71 -206 -199 -233v-2l109 -268h-136l-101 260h-100l-45 -260h-127zM221 375h130c96 0 150 44 150 123c0 55 -35 85 -104 85h-139zM197 -268l9 52c33 8 46 23 51 56h-46l20 111h122l-17 -98c-13 -72 -60 -113 -139 -121
z" />
    <glyph glyph-name="S" unicode="S" horiz-adv-x="598" 
d="M19 231l125 26c17 -111 65 -156 164 -156c72 0 122 36 122 89c0 51 -34 80 -139 123c-72 29 -123 59 -152 90s-43 71 -43 118c0 109 101 194 231 194c69 0 126 -18 173 -55s76 -87 87 -150l-124 -26c-21 81 -61 115 -136 115c-60 0 -105 -33 -105 -78
c0 -39 30 -64 126 -104c152 -63 209 -124 209 -227c0 -118 -107 -205 -251 -205c-160 0 -268 93 -287 246z" />
    <glyph glyph-name="Sacute" unicode="&#x15a;" horiz-adv-x="598" 
d="M19 231l125 26c17 -111 65 -156 164 -156c72 0 122 36 122 89c0 51 -34 80 -139 123c-72 29 -123 59 -152 90s-43 71 -43 118c0 109 101 194 231 194c69 0 126 -18 173 -55s76 -87 87 -150l-124 -26c-21 81 -61 115 -136 115c-60 0 -105 -33 -105 -78
c0 -39 30 -64 126 -104c152 -63 209 -124 209 -227c0 -118 -107 -205 -251 -205c-160 0 -268 93 -287 246zM269 775l109 131h134l-138 -131h-105z" />
    <glyph glyph-name="Scaron" unicode="&#x160;" horiz-adv-x="598" 
d="M19 231l125 26c17 -111 65 -156 164 -156c72 0 122 36 122 89c0 51 -34 80 -139 123c-72 29 -123 59 -152 90s-43 71 -43 118c0 109 101 194 231 194c69 0 126 -18 173 -55s76 -87 87 -150l-124 -26c-21 81 -61 115 -136 115c-60 0 -105 -33 -105 -78
c0 -39 30 -64 126 -104c152 -63 209 -124 209 -227c0 -118 -107 -205 -251 -205c-160 0 -268 93 -287 246zM424 903l61 -55l-79 -83h-133l-60 94l71 44l55 -89z" />
    <glyph glyph-name="Scedilla" unicode="&#x15e;" horiz-adv-x="598" 
d="M19 231l125 26c17 -111 65 -156 164 -156c72 0 122 36 122 89c0 51 -34 80 -139 123c-72 29 -123 59 -152 90s-43 71 -43 118c0 109 101 194 231 194c69 0 126 -18 173 -55s76 -87 87 -150l-124 -26c-21 81 -61 115 -136 115c-60 0 -105 -33 -105 -78
c0 -39 30 -64 126 -104c152 -63 209 -124 209 -227c0 -118 -107 -205 -251 -205c-160 0 -268 93 -287 246zM414 -138c0 -65 -51 -111 -123 -111c-43 0 -80 13 -111 38l43 55c21 -17 39 -24 64 -24c31 0 56 21 56 45c0 17 -13 28 -33 28c-21 0 -40 -9 -59 -26l-48 30l83 116
l55 -19l-35 -46c4 1 10 1 17 1c55 0 91 -35 91 -87z" />
    <glyph glyph-name="Scircumflex" unicode="&#x15c;" horiz-adv-x="598" 
d="M19 231l125 26c17 -111 65 -156 164 -156c72 0 122 36 122 89c0 51 -34 80 -139 123c-72 29 -123 59 -152 90s-43 71 -43 118c0 109 101 194 231 194c69 0 126 -18 173 -55s76 -87 87 -150l-124 -26c-21 81 -61 115 -136 115c-60 0 -105 -33 -105 -78
c0 -39 30 -64 126 -104c152 -63 209 -124 209 -227c0 -118 -107 -205 -251 -205c-160 0 -268 93 -287 246zM472 799l-71 -44l-55 90l-86 -90l-60 56l79 82h133z" />
    <glyph glyph-name="uni0218" unicode="&#x218;" horiz-adv-x="598" 
d="M19 231l125 26c17 -111 65 -156 164 -156c72 0 122 36 122 89c0 51 -34 80 -139 123c-72 29 -123 59 -152 90s-43 71 -43 118c0 109 101 194 231 194c69 0 126 -18 173 -55s76 -87 87 -150l-124 -26c-21 81 -61 115 -136 115c-60 0 -105 -33 -105 -78
c0 -39 30 -64 126 -104c152 -63 209 -124 209 -227c0 -118 -107 -205 -251 -205c-160 0 -268 93 -287 246zM206 -283l9 52c33 8 46 23 51 56h-46l20 111h122l-17 -98c-13 -72 -60 -113 -139 -121z" />
    <glyph glyph-name="uni1E62" unicode="&#x1e62;" horiz-adv-x="598" 
d="M19 231l125 26c17 -111 65 -156 164 -156c72 0 122 36 122 89c0 51 -34 80 -139 123c-72 29 -123 59 -152 90s-43 71 -43 118c0 109 101 194 231 194c69 0 126 -18 173 -55s76 -87 87 -150l-124 -26c-21 81 -61 115 -136 115c-60 0 -105 -33 -105 -78
c0 -39 30 -64 126 -104c152 -63 209 -124 209 -227c0 -118 -107 -205 -251 -205c-160 0 -268 93 -287 246zM220 -181l20 117h120l-21 -117h-119z" />
    <glyph glyph-name="uni018F" unicode="&#x18f;" horiz-adv-x="672" 
d="M655 420c3 -249 -144 -439 -343 -435c-163 0 -267 121 -267 299c0 35 4 71 12 110h470c1 6 1 15 1 26c0 109 -51 178 -138 178c-79 0 -146 -49 -186 -136l-114 51c61 129 171 202 300 202c159 0 265 -120 265 -295zM512 292h-338c-1 -5 -1 -13 -1 -23
c0 -100 55 -167 139 -167c95 0 168 73 200 190z" />
    <glyph glyph-name="T" unicode="T" horiz-adv-x="599" 
d="M190 0l102 584h-208l21 116h542l-20 -116h-208l-102 -584h-127z" />
    <glyph glyph-name="_123" horiz-adv-x="599" 
d="M190 0l102 584h-208l21 116h542l-20 -116h-208l-102 -584h-127z" />
    <glyph glyph-name="Tbar" unicode="&#x166;" horiz-adv-x="599" 
d="M190 0l102 584h-208l21 116h542l-20 -116h-208l-102 -584h-127zM121 287l17 101h364l-17 -101h-364z" />
    <glyph glyph-name="_125" horiz-adv-x="599" 
d="M190 0l102 584h-208l21 116h542l-20 -116h-208l-102 -584h-127zM124 301l17 101h364l-17 -101h-364z" />
    <glyph glyph-name="Tcaron" unicode="&#x164;" horiz-adv-x="599" 
d="M190 0l102 584h-208l21 116h542l-20 -116h-208l-102 -584h-127zM474 888l61 -55l-79 -83h-133l-60 94l71 44l55 -89z" />
    <glyph glyph-name="_127" horiz-adv-x="599" 
d="M190 0l102 584h-208l21 116h542l-20 -116h-208l-102 -584h-127zM474 888l61 -55l-79 -83h-133l-60 94l71 44l55 -89z" />
    <glyph glyph-name="uni0162" unicode="&#x162;" horiz-adv-x="599" 
d="M190 0l102 584h-208l21 116h542l-20 -116h-208l-102 -584h-127zM361 -124c0 -65 -51 -111 -123 -111c-43 0 -80 13 -111 38l43 55c21 -17 39 -24 64 -24c31 0 56 21 56 45c0 17 -13 28 -33 28c-21 0 -40 -9 -59 -26l-48 30l83 116l55 -19l-35 -46c4 1 10 1 17 1
c55 0 91 -35 91 -87z" />
    <glyph glyph-name="_129" horiz-adv-x="599" 
d="M190 0l102 584h-208l21 116h542l-20 -116h-208l-102 -584h-127zM362 -124c0 -65 -51 -111 -123 -111c-43 0 -80 13 -111 38l43 55c21 -17 39 -24 64 -24c31 0 56 21 56 45c0 17 -13 28 -33 28c-21 0 -40 -9 -59 -26l-48 30l83 116l55 -19l-35 -46c4 1 10 1 17 1
c55 0 91 -35 91 -87z" />
    <glyph glyph-name="uni021A" unicode="&#x21a;" horiz-adv-x="599" 
d="M190 0l102 584h-208l21 116h542l-20 -116h-208l-102 -584h-127zM153 -268l9 52c33 8 46 23 51 56h-46l20 111h122l-17 -98c-13 -72 -60 -113 -139 -121z" />
    <glyph glyph-name="_131" horiz-adv-x="599" 
d="M190 0l102 584h-208l21 116h542l-20 -116h-208l-102 -584h-127zM154 -268l9 52c33 8 46 23 51 56h-46l20 111h122l-17 -98c-13 -72 -60 -113 -139 -121z" />
    <glyph glyph-name="uni1E6C" unicode="&#x1e6c;" horiz-adv-x="599" 
d="M190 0l102 584h-208l21 116h542l-20 -116h-208l-102 -584h-127zM167 -166l20 117h120l-21 -117h-119z" />
    <glyph glyph-name="_133" horiz-adv-x="599" 
d="M190 0l102 584h-208l21 116h542l-20 -116h-208l-102 -584h-127zM168 -166l20 117h120l-21 -117h-119z" />
    <glyph glyph-name="U" unicode="U" horiz-adv-x="665" 
d="M63 203c0 15 2 34 5 55l79 442h127l-79 -446c-3 -13 -4 -28 -4 -43c0 -71 38 -109 107 -109c91 0 152 54 169 151l79 447h127l-80 -453c-31 -173 -134 -262 -301 -262c-138 0 -229 88 -229 218z" />
    <glyph glyph-name="Uacute" unicode="&#xda;" horiz-adv-x="665" 
d="M63 203c0 15 2 34 5 55l79 442h127l-79 -446c-3 -13 -4 -28 -4 -43c0 -71 38 -109 107 -109c91 0 152 54 169 151l79 447h127l-80 -453c-31 -173 -134 -262 -301 -262c-138 0 -229 88 -229 218zM352 760l109 131h134l-138 -131h-105z" />
    <glyph glyph-name="Ubreve" unicode="&#x16c;" horiz-adv-x="665" 
d="M63 203c0 15 2 34 5 55l79 442h127l-79 -446c-3 -13 -4 -28 -4 -43c0 -71 38 -109 107 -109c91 0 152 54 169 151l79 447h127l-80 -453c-31 -173 -134 -262 -301 -262c-138 0 -229 88 -229 218zM293 883h67c4 -35 24 -52 59 -52c41 0 71 17 90 52h67
c-23 -84 -80 -133 -163 -133c-71 0 -120 54 -120 133z" />
    <glyph glyph-name="uni01D3" unicode="&#x1d3;" horiz-adv-x="665" 
d="M63 203c0 15 2 34 5 55l79 442h127l-79 -446c-3 -13 -4 -28 -4 -43c0 -71 38 -109 107 -109c91 0 152 54 169 151l79 447h127l-80 -453c-31 -173 -134 -262 -301 -262c-138 0 -229 88 -229 218zM507 888l61 -55l-79 -83h-133l-60 94l71 44l55 -89z" />
    <glyph glyph-name="Ucircumflex" unicode="&#xdb;" horiz-adv-x="665" 
d="M63 203c0 15 2 34 5 55l79 442h127l-79 -446c-3 -13 -4 -28 -4 -43c0 -71 38 -109 107 -109c91 0 152 54 169 151l79 447h127l-80 -453c-31 -173 -134 -262 -301 -262c-138 0 -229 88 -229 218zM555 784l-71 -44l-55 90l-86 -90l-60 56l79 82h133z" />
    <glyph glyph-name="Udieresis" unicode="&#xdc;" horiz-adv-x="665" 
d="M63 203c0 15 2 34 5 55l79 442h127l-79 -446c-3 -13 -4 -28 -4 -43c0 -71 38 -109 107 -109c91 0 152 54 169 151l79 447h127l-80 -453c-31 -173 -134 -262 -301 -262c-138 0 -229 88 -229 218zM260 750l20 117h120l-21 -117h-119zM459 750l20 117h119l-20 -117h-119z
" />
    <glyph glyph-name="uni01D7" unicode="&#x1d7;" horiz-adv-x="665" 
d="M63 203c0 15 2 34 5 55l79 442h127l-79 -446c-3 -13 -4 -28 -4 -43c0 -71 38 -109 107 -109c91 0 152 54 169 151l79 447h127l-80 -453c-31 -173 -134 -262 -301 -262c-138 0 -229 88 -229 218zM260 750l20 117h120l-21 -117h-119zM459 750l20 117h119l-20 -117h-119z
M378 907l109 131h134l-138 -131h-105z" />
    <glyph glyph-name="uni01D9" unicode="&#x1d9;" horiz-adv-x="665" 
d="M63 203c0 15 2 34 5 55l79 442h127l-79 -446c-3 -13 -4 -28 -4 -43c0 -71 38 -109 107 -109c91 0 152 54 169 151l79 447h127l-80 -453c-31 -173 -134 -262 -301 -262c-138 0 -229 88 -229 218zM260 750l20 117h120l-21 -117h-119zM459 750l20 117h119l-20 -117h-119z
M533 1035l61 -55l-79 -83h-133l-60 94l71 44l55 -89z" />
    <glyph glyph-name="uni01DB" unicode="&#x1db;" horiz-adv-x="665" 
d="M63 203c0 15 2 34 5 55l79 442h127l-79 -446c-3 -13 -4 -28 -4 -43c0 -71 38 -109 107 -109c91 0 152 54 169 151l79 447h127l-80 -453c-31 -173 -134 -262 -301 -262c-138 0 -229 88 -229 218zM260 750l20 117h120l-21 -117h-119zM459 750l20 117h119l-20 -117h-119z
M398 907l-93 131h129l63 -131h-99z" />
    <glyph glyph-name="uni01D5" unicode="&#x1d5;" horiz-adv-x="665" 
d="M63 203c0 15 2 34 5 55l79 442h127l-79 -446c-3 -13 -4 -28 -4 -43c0 -71 38 -109 107 -109c91 0 152 54 169 151l79 447h127l-80 -453c-31 -173 -134 -262 -301 -262c-138 0 -229 88 -229 218zM260 750l20 117h120l-21 -117h-119zM459 750l20 117h119l-20 -117h-119z
M307 907l13 79h301l-13 -79h-301z" />
    <glyph glyph-name="uni1EE4" unicode="&#x1ee4;" horiz-adv-x="665" 
d="M63 203c0 15 2 34 5 55l79 442h127l-79 -446c-3 -13 -4 -28 -4 -43c0 -71 38 -109 107 -109c91 0 152 54 169 151l79 447h127l-80 -453c-31 -173 -134 -262 -301 -262c-138 0 -229 88 -229 218zM206 -181l20 117h120l-21 -117h-119z" />
    <glyph glyph-name="Ugrave" unicode="&#xd9;" horiz-adv-x="665" 
d="M63 203c0 15 2 34 5 55l79 442h127l-79 -446c-3 -13 -4 -28 -4 -43c0 -71 38 -109 107 -109c91 0 152 54 169 151l79 447h127l-80 -453c-31 -173 -134 -262 -301 -262c-138 0 -229 88 -229 218zM372 760l-93 131h129l63 -131h-99z" />
    <glyph glyph-name="Uhungarumlaut" unicode="&#x170;" horiz-adv-x="665" 
d="M63 203c0 15 2 34 5 55l79 442h127l-79 -446c-3 -13 -4 -28 -4 -43c0 -71 38 -109 107 -109c91 0 152 54 169 151l79 447h127l-80 -453c-31 -173 -134 -262 -301 -262c-138 0 -229 88 -229 218zM259 760l109 131h134l-138 -131h-105zM442 760l109 131h134l-138 -131h-105
z" />
    <glyph glyph-name="Umacron" unicode="&#x16a;" horiz-adv-x="665" 
d="M63 203c0 15 2 34 5 55l79 442h127l-79 -446c-3 -13 -4 -28 -4 -43c0 -71 38 -109 107 -109c91 0 152 54 169 151l79 447h127l-80 -453c-31 -173 -134 -262 -301 -262c-138 0 -229 88 -229 218zM281 760l13 79h301l-13 -79h-301z" />
    <glyph glyph-name="Uogonek" unicode="&#x172;" horiz-adv-x="665" 
d="M63 203c0 15 2 34 5 55l79 442h127l-79 -446c-3 -13 -4 -28 -4 -43c0 -71 38 -109 107 -109c91 0 152 54 169 151l79 447h127l-80 -453c-31 -173 -134 -262 -301 -262c-138 0 -229 88 -229 218zM216 -134c0 53 44 103 133 149l50 -15c-56 -32 -92 -72 -92 -104
c0 -15 8 -21 27 -21c18 0 37 6 58 17l20 -74c-37 -17 -70 -26 -101 -26c-61 0 -95 27 -95 74z" />
    <glyph glyph-name="Uring" unicode="&#x16e;" horiz-adv-x="665" 
d="M63 203c0 15 2 34 5 55l79 442h127l-79 -446c-3 -13 -4 -28 -4 -43c0 -71 38 -109 107 -109c91 0 152 54 169 151l79 447h127l-80 -453c-31 -173 -134 -262 -301 -262c-138 0 -229 88 -229 218zM269 767c0 73 58 127 141 127c81 0 141 -54 141 -127s-60 -127 -141 -127
c-83 0 -141 54 -141 127zM478 767c0 40 -28 67 -68 67s-68 -27 -68 -67c0 -39 28 -67 68 -67s68 28 68 67z" />
    <glyph glyph-name="Utilde" unicode="&#x168;" horiz-adv-x="665" 
d="M63 203c0 15 2 34 5 55l79 442h127l-79 -446c-3 -13 -4 -28 -4 -43c0 -71 38 -109 107 -109c91 0 152 54 169 151l79 447h127l-80 -453c-31 -173 -134 -262 -301 -262c-138 0 -229 88 -229 218zM411 778c-16 8 -35 16 -48 16c-19 0 -32 -11 -39 -34h-63
c13 68 55 109 108 109c28 0 47 -7 79 -22c20 -11 36 -16 48 -16c19 0 32 11 40 33h62c-13 -67 -55 -109 -108 -109c-28 0 -50 8 -79 23z" />
    <glyph glyph-name="V" unicode="V" horiz-adv-x="637" 
d="M204 0l-129 700h130l89 -527h2l275 527h145l-378 -700h-134z" />
    <glyph glyph-name="W" unicode="W" horiz-adv-x="889" 
d="M113 0l-23 700h128l12 -498h2l227 498h117l52 -498h2l188 498h135l-269 -700h-139l-55 512h-2l-234 -512h-141z" />
    <glyph glyph-name="Wacute" unicode="&#x1e82;" horiz-adv-x="889" 
d="M113 0l-23 700h128l12 -498h2l227 498h117l52 -498h2l188 498h135l-269 -700h-139l-55 512h-2l-234 -512h-141zM461 760l109 131h134l-138 -131h-105z" />
    <glyph glyph-name="Wcircumflex" unicode="&#x174;" horiz-adv-x="889" 
d="M113 0l-23 700h128l12 -498h2l227 498h117l52 -498h2l188 498h135l-269 -700h-139l-55 512h-2l-234 -512h-141zM664 784l-71 -44l-55 90l-86 -90l-60 56l79 82h133z" />
    <glyph glyph-name="Wdieresis" unicode="&#x1e84;" horiz-adv-x="889" 
d="M113 0l-23 700h128l12 -498h2l227 498h117l52 -498h2l188 498h135l-269 -700h-139l-55 512h-2l-234 -512h-141zM369 750l20 117h120l-21 -117h-119zM568 750l20 117h119l-20 -117h-119z" />
    <glyph glyph-name="Wgrave" unicode="&#x1e80;" horiz-adv-x="889" 
d="M113 0l-23 700h128l12 -498h2l227 498h117l52 -498h2l188 498h135l-269 -700h-139l-55 512h-2l-234 -512h-141zM481 760l-93 131h129l63 -131h-99z" />
    <glyph glyph-name="X" unicode="X" horiz-adv-x="594" 
d="M-44 0l283 355l-151 345h136l99 -251h2l187 251h152l-276 -345l156 -355h-137l-103 261h-2l-195 -261h-151z" />
    <glyph glyph-name="Y" unicode="Y" horiz-adv-x="587" 
d="M182 0l53 287l-165 413h128l109 -300h2l214 300h148l-309 -413l-53 -287h-127z" />
    <glyph glyph-name="Yacute" unicode="&#xdd;" horiz-adv-x="587" 
d="M182 0l53 287l-165 413h128l109 -300h2l214 300h148l-309 -413l-53 -287h-127zM313 760l109 131h134l-138 -131h-105z" />
    <glyph glyph-name="Ycircumflex" unicode="&#x176;" horiz-adv-x="587" 
d="M182 0l53 287l-165 413h128l109 -300h2l214 300h148l-309 -413l-53 -287h-127zM516 784l-71 -44l-55 90l-86 -90l-60 56l79 82h133z" />
    <glyph glyph-name="Ydieresis" unicode="&#x178;" horiz-adv-x="587" 
d="M182 0l53 287l-165 413h128l109 -300h2l214 300h148l-309 -413l-53 -287h-127zM221 750l20 117h120l-21 -117h-119zM420 750l20 117h119l-20 -117h-119z" />
    <glyph glyph-name="uni1EF4" unicode="&#x1ef4;" horiz-adv-x="587" 
d="M182 0l53 287l-165 413h128l109 -300h2l214 300h148l-309 -413l-53 -287h-127zM161 -166l20 117h120l-21 -117h-119z" />
    <glyph glyph-name="Ygrave" unicode="&#x1ef2;" horiz-adv-x="587" 
d="M182 0l53 287l-165 413h128l109 -300h2l214 300h148l-309 -413l-53 -287h-127zM333 760l-93 131h129l63 -131h-99z" />
    <glyph glyph-name="uni1EF8" unicode="&#x1ef8;" horiz-adv-x="587" 
d="M182 0l53 287l-165 413h128l109 -300h2l214 300h148l-309 -413l-53 -287h-127zM372 778c-16 8 -35 16 -48 16c-19 0 -32 -11 -39 -34h-63c13 68 55 109 108 109c28 0 47 -7 79 -22c20 -11 36 -16 48 -16c19 0 32 11 40 33h62c-13 -67 -55 -109 -108 -109
c-28 0 -50 8 -79 23z" />
    <glyph glyph-name="Z" unicode="Z" horiz-adv-x="566" 
d="M-23 0l18 106l434 475v2h-337l21 117h506l-18 -106l-435 -475v-2h346l-21 -117h-514z" />
    <glyph glyph-name="Zacute" unicode="&#x179;" horiz-adv-x="566" 
d="M-23 0l18 106l434 475v2h-337l21 117h506l-18 -106l-435 -475v-2h346l-21 -117h-514zM304 760l109 131h134l-138 -131h-105z" />
    <glyph glyph-name="Zcaron" unicode="&#x17d;" horiz-adv-x="566" 
d="M-23 0l18 106l434 475v2h-337l21 117h506l-18 -106l-435 -475v-2h346l-21 -117h-514zM459 888l61 -55l-79 -83h-133l-60 94l71 44l55 -89z" />
    <glyph glyph-name="Zdotaccent" unicode="&#x17b;" horiz-adv-x="566" 
d="M-23 0l18 106l434 475v2h-337l21 117h506l-18 -106l-435 -475v-2h346l-21 -117h-514zM313 760l20 117h120l-21 -117h-119z" />
    <glyph glyph-name="uni1E92" unicode="&#x1e92;" horiz-adv-x="566" 
d="M-23 0l18 106l434 475v2h-337l21 117h506l-18 -106l-435 -475v-2h346l-21 -117h-514zM154 -166l20 117h120l-21 -117h-119z" />
    <glyph glyph-name="a" unicode="a" horiz-adv-x="585" 
d="M458 530h119l-93 -530h-110l8 49h-2c-29 -37 -81 -58 -141 -58c-124 0 -206 90 -206 229c-2 174 121 324 272 321c60 0 111 -19 143 -51h2zM398 207l28 157c-17 41 -61 67 -113 67c-88 0 -158 -94 -158 -208c0 -75 41 -121 108 -121c32 0 61 10 88 31s42 45 47 74z" />
    <glyph glyph-name="aacute" unicode="&#xe1;" horiz-adv-x="585" 
d="M458 530h119l-93 -530h-110l8 49h-2c-29 -37 -81 -58 -141 -58c-124 0 -206 90 -206 229c-2 174 121 324 272 321c60 0 111 -19 143 -51h2zM398 207l28 157c-17 41 -61 67 -113 67c-88 0 -158 -94 -158 -208c0 -75 41 -121 108 -121c32 0 61 10 88 31s42 45 47 74z
M274 601l109 131h134l-138 -131h-105z" />
    <glyph glyph-name="abreve" unicode="&#x103;" horiz-adv-x="585" 
d="M458 530h119l-93 -530h-110l8 49h-2c-29 -37 -81 -58 -141 -58c-124 0 -206 90 -206 229c-2 174 121 324 272 321c60 0 111 -19 143 -51h2zM398 207l28 157c-17 41 -61 67 -113 67c-88 0 -158 -94 -158 -208c0 -75 41 -121 108 -121c32 0 61 10 88 31s42 45 47 74z
M215 724h67c4 -35 24 -52 59 -52c41 0 71 17 90 52h67c-23 -84 -80 -133 -163 -133c-71 0 -120 54 -120 133z" />
    <glyph glyph-name="uni01CE" unicode="&#x1ce;" horiz-adv-x="585" 
d="M458 530h119l-93 -530h-110l8 49h-2c-29 -37 -81 -58 -141 -58c-124 0 -206 90 -206 229c-2 174 121 324 272 321c60 0 111 -19 143 -51h2zM398 207l28 157c-17 41 -61 67 -113 67c-88 0 -158 -94 -158 -208c0 -75 41 -121 108 -121c32 0 61 10 88 31s42 45 47 74z
M429 729l61 -55l-79 -83h-133l-60 94l71 44l55 -89z" />
    <glyph glyph-name="acircumflex" unicode="&#xe2;" horiz-adv-x="585" 
d="M458 530h119l-93 -530h-110l8 49h-2c-29 -37 -81 -58 -141 -58c-124 0 -206 90 -206 229c-2 174 121 324 272 321c60 0 111 -19 143 -51h2zM398 207l28 157c-17 41 -61 67 -113 67c-88 0 -158 -94 -158 -208c0 -75 41 -121 108 -121c32 0 61 10 88 31s42 45 47 74z
M477 625l-71 -44l-55 90l-86 -90l-60 56l79 82h133z" />
    <glyph glyph-name="uni1EAD" unicode="&#x1ead;" horiz-adv-x="585" 
d="M458 530h119l-93 -530h-110l8 49h-2c-29 -37 -81 -58 -141 -58c-124 0 -206 90 -206 229c-2 174 121 324 272 321c60 0 111 -19 143 -51h2zM398 207l28 157c-17 41 -61 67 -113 67c-88 0 -158 -94 -158 -208c0 -75 41 -121 108 -121c32 0 61 10 88 31s42 45 47 74z
M477 625l-71 -44l-55 90l-86 -90l-60 56l79 82h133zM167 -176l20 117h120l-21 -117h-119z" />
    <glyph glyph-name="adieresis" unicode="&#xe4;" horiz-adv-x="585" 
d="M458 530h119l-93 -530h-110l8 49h-2c-29 -37 -81 -58 -141 -58c-124 0 -206 90 -206 229c-2 174 121 324 272 321c60 0 111 -19 143 -51h2zM398 207l28 157c-17 41 -61 67 -113 67c-88 0 -158 -94 -158 -208c0 -75 41 -121 108 -121c32 0 61 10 88 31s42 45 47 74z
M182 591l20 117h120l-21 -117h-119zM381 591l20 117h119l-20 -117h-119z" />
    <glyph glyph-name="uni01DF" unicode="&#x1df;" horiz-adv-x="585" 
d="M458 530h119l-93 -530h-110l8 49h-2c-29 -37 -81 -58 -141 -58c-124 0 -206 90 -206 229c-2 174 121 324 272 321c60 0 111 -19 143 -51h2zM398 207l28 157c-17 41 -61 67 -113 67c-88 0 -158 -94 -158 -208c0 -75 41 -121 108 -121c32 0 61 10 88 31s42 45 47 74z
M182 591l20 117h120l-21 -117h-119zM381 591l20 117h119l-20 -117h-119zM229 748l13 79h301l-13 -79h-301z" />
    <glyph glyph-name="uni1EA1" unicode="&#x1ea1;" horiz-adv-x="585" 
d="M458 530h119l-93 -530h-110l8 49h-2c-29 -37 -81 -58 -141 -58c-124 0 -206 90 -206 229c-2 174 121 324 272 321c60 0 111 -19 143 -51h2zM398 207l28 157c-17 41 -61 67 -113 67c-88 0 -158 -94 -158 -208c0 -75 41 -121 108 -121c32 0 61 10 88 31s42 45 47 74z
M167 -176l20 117h120l-21 -117h-119z" />
    <glyph glyph-name="agrave" unicode="&#xe0;" horiz-adv-x="585" 
d="M458 530h119l-93 -530h-110l8 49h-2c-29 -37 -81 -58 -141 -58c-124 0 -206 90 -206 229c-2 174 121 324 272 321c60 0 111 -19 143 -51h2zM398 207l28 157c-17 41 -61 67 -113 67c-88 0 -158 -94 -158 -208c0 -75 41 -121 108 -121c32 0 61 10 88 31s42 45 47 74z
M294 601l-93 131h129l63 -131h-99z" />
    <glyph glyph-name="amacron" unicode="&#x101;" horiz-adv-x="585" 
d="M458 530h119l-93 -530h-110l8 49h-2c-29 -37 -81 -58 -141 -58c-124 0 -206 90 -206 229c-2 174 121 324 272 321c60 0 111 -19 143 -51h2zM398 207l28 157c-17 41 -61 67 -113 67c-88 0 -158 -94 -158 -208c0 -75 41 -121 108 -121c32 0 61 10 88 31s42 45 47 74z
M203 601l13 79h301l-13 -79h-301z" />
    <glyph glyph-name="aogonek" unicode="&#x105;" horiz-adv-x="585" 
d="M458 530h119l-93 -530h-110l8 49h-2c-29 -37 -81 -58 -141 -58c-124 0 -206 90 -206 229c-2 174 121 324 272 321c60 0 111 -19 143 -51h2zM398 207l28 157c-17 41 -61 67 -113 67c-88 0 -158 -94 -158 -208c0 -75 41 -121 108 -121c32 0 61 10 88 31s42 45 47 74z
M288 -134c0 53 44 103 133 149l50 -15c-56 -32 -92 -72 -92 -104c0 -15 8 -21 27 -21c18 0 37 6 58 17l20 -74c-37 -17 -70 -26 -101 -26c-61 0 -95 27 -95 74z" />
    <glyph glyph-name="aring" unicode="&#xe5;" horiz-adv-x="590" 
d="M211 682c0 67 54 115 127 115s127 -48 127 -115c0 -65 -54 -114 -127 -114s-127 47 -127 114zM399 682c0 36 -25 61 -61 61s-61 -25 -61 -61c0 -35 25 -60 61 -60s61 25 61 60zM458 530h119l-93 -530h-110l8 49h-2c-29 -37 -81 -58 -141 -58c-124 0 -206 90 -206 229
c-2 174 121 324 272 321c60 0 111 -19 143 -51h2zM398 207l28 157c-17 41 -61 67 -113 67c-88 0 -158 -94 -158 -208c0 -75 41 -121 108 -121c32 0 61 10 88 31s42 45 47 74z" />
    <glyph glyph-name="aringacute" unicode="&#x1fb;" horiz-adv-x="584" 
d="M211 682c0 48 28 88 72 105l100 120h134l-126 -119c45 -19 74 -58 74 -106c0 -65 -54 -114 -127 -114s-127 47 -127 114zM399 682c0 36 -25 61 -61 61s-61 -25 -61 -61c0 -35 25 -60 61 -60s61 25 61 60zM458 530h119l-93 -530h-110l8 49h-2c-29 -37 -81 -58 -141 -58
c-124 0 -206 90 -206 229c-2 174 121 324 272 321c60 0 111 -19 143 -51h2zM398 207l28 157c-17 41 -61 67 -113 67c-88 0 -158 -94 -158 -208c0 -75 41 -121 108 -121c32 0 61 10 88 31s42 45 47 74z" />
    <glyph glyph-name="atilde" unicode="&#xe3;" horiz-adv-x="585" 
d="M458 530h119l-93 -530h-110l8 49h-2c-29 -37 -81 -58 -141 -58c-124 0 -206 90 -206 229c-2 174 121 324 272 321c60 0 111 -19 143 -51h2zM398 207l28 157c-17 41 -61 67 -113 67c-88 0 -158 -94 -158 -208c0 -75 41 -121 108 -121c32 0 61 10 88 31s42 45 47 74z
M333 619c-16 8 -35 16 -48 16c-19 0 -32 -11 -39 -34h-63c13 68 55 109 108 109c28 0 47 -7 79 -22c20 -11 36 -16 48 -16c19 0 32 11 40 33h62c-13 -67 -55 -109 -108 -109c-28 0 -50 8 -79 23z" />
    <glyph glyph-name="ae" unicode="&#xe6;" horiz-adv-x="900" 
d="M864 303c0 -33 -2 -58 -6 -74h-388v-6c-4 -85 42 -134 125 -134c51 0 95 27 142 90l85 -73c-59 -77 -140 -121 -227 -121c-88 0 -152 33 -189 93c-45 -57 -119 -93 -200 -93c-117 0 -181 52 -181 140c0 41 10 73 31 97c21 25 45 43 74 54c29 12 67 24 112 35
c91 25 130 35 136 86c0 29 -30 47 -78 47c-65 0 -117 -37 -138 -101l-107 34c33 104 129 168 246 168c77 0 134 -25 163 -70c47 47 103 70 170 70c138 0 230 -97 230 -242zM635 442c-73 0 -132 -47 -153 -124h269c4 75 -41 124 -116 124zM346 183l16 90h-2
c-16 -20 -46 -30 -99 -45c-81 -23 -123 -42 -123 -91c0 -35 22 -50 69 -50c68 0 130 41 139 96z" />
    <glyph glyph-name="aeacute" unicode="&#x1fd;" horiz-adv-x="900" 
d="M864 303c0 -33 -2 -58 -6 -74h-388v-6c-4 -85 42 -134 125 -134c51 0 95 27 142 90l85 -73c-59 -77 -140 -121 -227 -121c-88 0 -152 33 -189 93c-45 -57 -119 -93 -200 -93c-117 0 -181 52 -181 140c0 41 10 73 31 97c21 25 45 43 74 54c29 12 67 24 112 35
c91 25 130 35 136 86c0 29 -30 47 -78 47c-65 0 -117 -37 -138 -101l-107 34c33 104 129 168 246 168c77 0 134 -25 163 -70c47 47 103 70 170 70c138 0 230 -97 230 -242zM635 442c-73 0 -132 -47 -153 -124h269c4 75 -41 124 -116 124zM346 183l16 90h-2
c-16 -20 -46 -30 -99 -45c-81 -23 -123 -42 -123 -91c0 -35 22 -50 69 -50c68 0 130 41 139 96zM439 590l109 131h134l-138 -131h-105z" />
    <glyph glyph-name="b" unicode="b" horiz-adv-x="596" 
d="M138 52h-2l-8 -52h-120l129 730h122l-41 -228h2c35 28 85 43 133 43c124 0 210 -97 210 -238c3 -179 -124 -325 -279 -322c-59 0 -113 26 -146 67zM441 306c0 80 -42 127 -113 127s-130 -48 -142 -117l-24 -137c13 -48 59 -82 114 -82c94 0 165 92 165 209z" />
    <glyph glyph-name="uni1E05" unicode="&#x1e05;" horiz-adv-x="596" 
d="M138 52h-2l-8 -52h-120l129 730h122l-41 -228h2c35 28 85 43 133 43c124 0 210 -97 210 -238c3 -179 -124 -325 -279 -322c-59 0 -113 26 -146 67zM441 306c0 80 -42 127 -113 127s-130 -48 -142 -117l-24 -137c13 -48 59 -82 114 -82c94 0 165 92 165 209zM198 -178
l20 117h120l-21 -117h-119z" />
    <glyph glyph-name="c" unicode="c" horiz-adv-x="563" 
d="M33 223c-3 181 125 325 282 322c122 0 215 -81 223 -197l-118 -16c-9 64 -46 100 -105 100c-93 0 -160 -89 -160 -209c0 -77 40 -124 111 -124c65 0 109 36 137 112l113 -42c-43 -119 -133 -184 -250 -184c-139 0 -233 97 -233 238z" />
    <glyph glyph-name="cacute" unicode="&#x107;" horiz-adv-x="563" 
d="M33 223c-3 181 125 325 282 322c122 0 215 -81 223 -197l-118 -16c-9 64 -46 100 -105 100c-93 0 -160 -89 -160 -209c0 -77 40 -124 111 -124c65 0 109 36 137 112l113 -42c-43 -119 -133 -184 -250 -184c-139 0 -233 97 -233 238zM257 605l109 131h134l-138 -131h-105z
" />
    <glyph glyph-name="ccaron" unicode="&#x10d;" horiz-adv-x="563" 
d="M33 223c-3 181 125 325 282 322c122 0 215 -81 223 -197l-118 -16c-9 64 -46 100 -105 100c-93 0 -160 -89 -160 -209c0 -77 40 -124 111 -124c65 0 109 36 137 112l113 -42c-43 -119 -133 -184 -250 -184c-139 0 -233 97 -233 238zM412 733l61 -55l-79 -83h-133l-60 94
l71 44l55 -89z" />
    <glyph glyph-name="ccedilla" unicode="&#xe7;" horiz-adv-x="563" 
d="M33 223c-3 181 125 325 282 322c122 0 215 -81 223 -197l-118 -16c-9 64 -46 100 -105 100c-93 0 -160 -89 -160 -209c0 -77 40 -124 111 -124c65 0 109 36 137 112l113 -42c-43 -119 -133 -184 -250 -184c-139 0 -233 97 -233 238zM374 -138c0 -65 -51 -111 -123 -111
c-43 0 -80 13 -111 38l43 55c21 -17 39 -24 64 -24c31 0 56 21 56 45c0 17 -13 28 -33 28c-21 0 -40 -9 -59 -26l-48 30l83 116l55 -19l-35 -46c4 1 10 1 17 1c55 0 91 -35 91 -87z" />
    <glyph glyph-name="ccircumflex" unicode="&#x109;" horiz-adv-x="563" 
d="M33 223c-3 181 125 325 282 322c122 0 215 -81 223 -197l-118 -16c-9 64 -46 100 -105 100c-93 0 -160 -89 -160 -209c0 -77 40 -124 111 -124c65 0 109 36 137 112l113 -42c-43 -119 -133 -184 -250 -184c-139 0 -233 97 -233 238zM460 629l-71 -44l-55 90l-86 -90
l-60 56l79 82h133z" />
    <glyph glyph-name="cdotaccent" unicode="&#x10b;" horiz-adv-x="563" 
d="M33 223c-3 181 125 325 282 322c122 0 215 -81 223 -197l-118 -16c-9 64 -46 100 -105 100c-93 0 -160 -89 -160 -209c0 -77 40 -124 111 -124c65 0 109 36 137 112l113 -42c-43 -119 -133 -184 -250 -184c-139 0 -233 97 -233 238zM266 605l20 117h120l-21 -117h-119z
" />
    <glyph glyph-name="d" unicode="d" horiz-adv-x="595" 
d="M33 220c-3 185 125 328 276 325c59 0 111 -20 147 -51h2l42 236h122l-129 -730h-111l9 49h-2c-33 -39 -85 -63 -145 -63c-129 0 -211 90 -211 234zM407 207l28 158c-19 40 -63 68 -119 68c-89 0 -161 -87 -161 -209c0 -80 43 -125 112 -125c33 0 64 11 91 32
c27 22 44 47 49 76z" />
    <glyph glyph-name="eth" unicode="&#xf0;" horiz-adv-x="593" 
d="M33 223c-3 177 126 326 275 322c51 0 90 -11 119 -34h2c-16 42 -35 81 -57 117l-130 -43l-18 52l117 39c-25 36 -51 68 -77 97v2h118c15 -18 32 -41 50 -69l133 45l19 -51l-123 -42c64 -111 100 -229 100 -334c2 -196 -125 -342 -290 -339c-138 0 -238 100 -238 238z
M435 307c0 77 -44 126 -119 126c-89 0 -161 -91 -161 -210c0 -76 46 -126 117 -126c93 0 163 91 163 210z" />
    <glyph glyph-name="dcaron" unicode="&#x10f;" horiz-adv-x="699" 
d="M33 220c-3 185 125 328 276 325c59 0 111 -20 147 -51h2l42 236h122l-129 -730h-111l9 49h-2c-33 -39 -85 -63 -145 -63c-129 0 -211 90 -211 234zM407 207l28 158c-19 40 -63 68 -119 68c-89 0 -161 -87 -161 -209c0 -80 43 -125 112 -125c33 0 64 11 91 32
c27 22 44 47 49 76zM629 511l9 52c33 8 46 23 51 56h-46l20 111h122l-17 -98c-13 -72 -60 -113 -139 -121z" />
    <glyph glyph-name="dcroat" unicode="&#x111;" horiz-adv-x="595" 
d="M33 220c-3 185 125 328 276 325c59 0 111 -20 147 -51h2l42 236h122l-129 -730h-111l9 49h-2c-33 -39 -85 -63 -145 -63c-129 0 -211 90 -211 234zM407 207l28 158c-19 40 -63 68 -119 68c-89 0 -161 -87 -161 -209c0 -80 43 -125 112 -125c33 0 64 11 91 32
c27 22 44 47 49 76zM311 586l15 84h341l-15 -84h-341z" />
    <glyph glyph-name="uni1E0D" unicode="&#x1e0d;" horiz-adv-x="595" 
d="M33 220c-3 185 125 328 276 325c59 0 111 -20 147 -51h2l42 236h122l-129 -730h-111l9 49h-2c-33 -39 -85 -63 -145 -63c-129 0 -211 90 -211 234zM407 207l28 158c-19 40 -63 68 -119 68c-89 0 -161 -87 -161 -209c0 -80 43 -125 112 -125c33 0 64 11 91 32
c27 22 44 47 49 76zM170 -166l20 117h120l-21 -117h-119z" />
    <glyph glyph-name="e" unicode="e" horiz-adv-x="579" 
d="M544 303c0 -27 -2 -52 -5 -74h-387v-6c-4 -83 41 -133 121 -133c51 0 95 27 142 88l86 -70c-57 -79 -141 -123 -232 -123c-141 0 -236 94 -236 238c-3 179 124 326 281 322c138 0 230 -97 230 -242zM314 440c-71 0 -128 -49 -151 -121h265c1 77 -46 121 -114 121z" />
    <glyph glyph-name="eacute" unicode="&#xe9;" horiz-adv-x="579" 
d="M544 303c0 -27 -2 -52 -5 -74h-387v-6c-4 -83 41 -133 121 -133c51 0 95 27 142 88l86 -70c-57 -79 -141 -123 -232 -123c-141 0 -236 94 -236 238c-3 179 124 326 281 322c138 0 230 -97 230 -242zM314 440c-71 0 -128 -49 -151 -121h265c1 77 -46 121 -114 121z
M256 605l109 131h134l-138 -131h-105z" />
    <glyph glyph-name="ebreve" unicode="&#x115;" horiz-adv-x="579" 
d="M544 303c0 -27 -2 -52 -5 -74h-387v-6c-4 -83 41 -133 121 -133c51 0 95 27 142 88l86 -70c-57 -79 -141 -123 -232 -123c-141 0 -236 94 -236 238c-3 179 124 326 281 322c138 0 230 -97 230 -242zM314 440c-71 0 -128 -49 -151 -121h265c1 77 -46 121 -114 121z
M197 728h67c4 -35 24 -52 59 -52c41 0 71 17 90 52h67c-23 -84 -80 -133 -163 -133c-71 0 -120 54 -120 133z" />
    <glyph glyph-name="ecaron" unicode="&#x11b;" horiz-adv-x="579" 
d="M544 303c0 -27 -2 -52 -5 -74h-387v-6c-4 -83 41 -133 121 -133c51 0 95 27 142 88l86 -70c-57 -79 -141 -123 -232 -123c-141 0 -236 94 -236 238c-3 179 124 326 281 322c138 0 230 -97 230 -242zM314 440c-71 0 -128 -49 -151 -121h265c1 77 -46 121 -114 121z
M411 733l61 -55l-79 -83h-133l-60 94l71 44l55 -89z" />
    <glyph glyph-name="uni0229" unicode="&#x229;" horiz-adv-x="579" 
d="M544 303c0 -27 -2 -52 -5 -74h-387v-6c-4 -83 41 -133 121 -133c51 0 95 27 142 88l86 -70c-57 -79 -141 -123 -232 -123c-141 0 -236 94 -236 238c-3 179 124 326 281 322c138 0 230 -97 230 -242zM314 440c-71 0 -128 -49 -151 -121h265c1 77 -46 121 -114 121z
M377 -138c0 -65 -51 -111 -123 -111c-43 0 -80 13 -111 38l43 55c21 -17 39 -24 64 -24c31 0 56 21 56 45c0 17 -13 28 -33 28c-21 0 -40 -9 -59 -26l-48 30l83 116l55 -19l-35 -46c4 1 10 1 17 1c55 0 91 -35 91 -87z" />
    <glyph glyph-name="ecircumflex" unicode="&#xea;" horiz-adv-x="579" 
d="M544 303c0 -27 -2 -52 -5 -74h-387v-6c-4 -83 41 -133 121 -133c51 0 95 27 142 88l86 -70c-57 -79 -141 -123 -232 -123c-141 0 -236 94 -236 238c-3 179 124 326 281 322c138 0 230 -97 230 -242zM314 440c-71 0 -128 -49 -151 -121h265c1 77 -46 121 -114 121z
M459 629l-71 -44l-55 90l-86 -90l-60 56l79 82h133z" />
    <glyph glyph-name="uni1EC7" unicode="&#x1ec7;" horiz-adv-x="579" 
d="M544 303c0 -27 -2 -52 -5 -74h-387v-6c-4 -83 41 -133 121 -133c51 0 95 27 142 88l86 -70c-57 -79 -141 -123 -232 -123c-141 0 -236 94 -236 238c-3 179 124 326 281 322c138 0 230 -97 230 -242zM314 440c-71 0 -128 -49 -151 -121h265c1 77 -46 121 -114 121z
M459 629l-71 -44l-55 90l-86 -90l-60 56l79 82h133zM183 -181l20 117h120l-21 -117h-119z" />
    <glyph glyph-name="edieresis" unicode="&#xeb;" horiz-adv-x="579" 
d="M544 303c0 -27 -2 -52 -5 -74h-387v-6c-4 -83 41 -133 121 -133c51 0 95 27 142 88l86 -70c-57 -79 -141 -123 -232 -123c-141 0 -236 94 -236 238c-3 179 124 326 281 322c138 0 230 -97 230 -242zM314 440c-71 0 -128 -49 -151 -121h265c1 77 -46 121 -114 121z
M164 595l20 117h120l-21 -117h-119zM363 595l20 117h119l-20 -117h-119z" />
    <glyph glyph-name="edotaccent" unicode="&#x117;" horiz-adv-x="579" 
d="M544 303c0 -27 -2 -52 -5 -74h-387v-6c-4 -83 41 -133 121 -133c51 0 95 27 142 88l86 -70c-57 -79 -141 -123 -232 -123c-141 0 -236 94 -236 238c-3 179 124 326 281 322c138 0 230 -97 230 -242zM314 440c-71 0 -128 -49 -151 -121h265c1 77 -46 121 -114 121z
M265 605l20 117h120l-21 -117h-119z" />
    <glyph glyph-name="uni1EB9" unicode="&#x1eb9;" horiz-adv-x="579" 
d="M544 303c0 -27 -2 -52 -5 -74h-387v-6c-4 -83 41 -133 121 -133c51 0 95 27 142 88l86 -70c-57 -79 -141 -123 -232 -123c-141 0 -236 94 -236 238c-3 179 124 326 281 322c138 0 230 -97 230 -242zM314 440c-71 0 -128 -49 -151 -121h265c1 77 -46 121 -114 121z
M183 -181l20 117h120l-21 -117h-119z" />
    <glyph glyph-name="egrave" unicode="&#xe8;" horiz-adv-x="579" 
d="M544 303c0 -27 -2 -52 -5 -74h-387v-6c-4 -83 41 -133 121 -133c51 0 95 27 142 88l86 -70c-57 -79 -141 -123 -232 -123c-141 0 -236 94 -236 238c-3 179 124 326 281 322c138 0 230 -97 230 -242zM314 440c-71 0 -128 -49 -151 -121h265c1 77 -46 121 -114 121z
M276 605l-93 131h129l63 -131h-99z" />
    <glyph glyph-name="emacron" unicode="&#x113;" horiz-adv-x="579" 
d="M544 303c0 -27 -2 -52 -5 -74h-387v-6c-4 -83 41 -133 121 -133c51 0 95 27 142 88l86 -70c-57 -79 -141 -123 -232 -123c-141 0 -236 94 -236 238c-3 179 124 326 281 322c138 0 230 -97 230 -242zM314 440c-71 0 -128 -49 -151 -121h265c1 77 -46 121 -114 121z
M185 605l13 79h301l-13 -79h-301z" />
    <glyph glyph-name="eogonek" unicode="&#x119;" horiz-adv-x="579" 
d="M544 303c0 -27 -2 -52 -5 -74h-387v-6c-4 -83 41 -133 121 -133c51 0 95 27 142 88l86 -70c-57 -79 -141 -123 -232 -123c-141 0 -236 94 -236 238c-3 179 124 326 281 322c138 0 230 -97 230 -242zM314 440c-71 0 -128 -49 -151 -121h265c1 77 -46 121 -114 121z
M175 -134c0 53 44 103 133 149l50 -15c-56 -32 -92 -72 -92 -104c0 -15 8 -21 27 -21c18 0 37 6 58 17l20 -74c-37 -17 -70 -26 -101 -26c-61 0 -95 27 -95 74z" />
    <glyph glyph-name="uni0258" unicode="&#x258;" horiz-adv-x="572" 
d="M538 307c2 -176 -126 -325 -276 -322c-101 0 -184 49 -223 132l95 56c27 -55 69 -83 128 -83c73 0 138 58 155 139h-380v19c-2 163 119 300 274 297c137 0 227 -95 227 -238zM163 319h261c1 77 -41 121 -116 121s-134 -50 -145 -121z" />
    <glyph glyph-name="uni1EBD" unicode="&#x1ebd;" horiz-adv-x="579" 
d="M544 303c0 -27 -2 -52 -5 -74h-387v-6c-4 -83 41 -133 121 -133c51 0 95 27 142 88l86 -70c-57 -79 -141 -123 -232 -123c-141 0 -236 94 -236 238c-3 179 124 326 281 322c138 0 230 -97 230 -242zM314 440c-71 0 -128 -49 -151 -121h265c1 77 -46 121 -114 121z
M315 623c-16 8 -35 16 -48 16c-19 0 -32 -11 -39 -34h-63c13 68 55 109 108 109c28 0 47 -7 79 -22c20 -11 36 -16 48 -16c19 0 32 11 40 33h62c-13 -67 -55 -109 -108 -109c-28 0 -50 8 -79 23z" />
    <glyph glyph-name="uni0259" unicode="&#x259;" horiz-adv-x="579" 
d="M546 307c3 -179 -124 -326 -281 -322c-138 0 -230 97 -230 242c0 29 2 54 6 74h386v6c4 83 -41 133 -121 133c-55 0 -99 -25 -146 -88l-86 70c64 82 143 123 236 123c141 0 236 -94 236 -238zM416 211h-265c-1 -77 46 -121 114 -121c71 0 128 49 151 121z" />
    <glyph glyph-name="f" unicode="f" horiz-adv-x="379" 
d="M62 0l75 421h-99l19 109h99l10 60c16 88 74 133 169 133h98l-20 -110h-75c-33 0 -48 -12 -53 -45l-7 -38h140l-19 -109h-140l-75 -421h-122z" />
    <glyph glyph-name="g" unicode="g" horiz-adv-x="591" 
d="M5 -117l92 69c39 -56 80 -82 136 -82c72 0 129 53 144 133l7 40h-2c-28 -33 -84 -58 -139 -58c-65 0 -116 21 -154 63c-37 43 -56 100 -56 171c-3 177 124 326 275 323c63 0 119 -23 151 -59h2l9 47h117l-94 -541c-13 -69 -43 -125 -90 -166c-47 -42 -103 -63 -170 -63
c-96 0 -176 43 -228 123zM410 211l24 139c-19 49 -62 79 -118 79c-91 0 -161 -90 -161 -206c0 -79 40 -126 105 -126c77 0 138 46 150 114z" />
    <glyph glyph-name="gbreve" unicode="&#x11f;" horiz-adv-x="591" 
d="M5 -117l92 69c39 -56 80 -82 136 -82c72 0 129 53 144 133l7 40h-2c-28 -33 -84 -58 -139 -58c-65 0 -116 21 -154 63c-37 43 -56 100 -56 171c-3 177 124 326 275 323c63 0 119 -23 151 -59h2l9 47h117l-94 -541c-13 -69 -43 -125 -90 -166c-47 -42 -103 -63 -170 -63
c-96 0 -176 43 -228 123zM410 211l24 139c-19 49 -62 79 -118 79c-91 0 -161 -90 -161 -206c0 -79 40 -126 105 -126c77 0 138 46 150 114zM208 725h67c4 -35 24 -52 59 -52c41 0 71 17 90 52h67c-23 -84 -80 -133 -163 -133c-71 0 -120 54 -120 133z" />
    <glyph glyph-name="gcircumflex" unicode="&#x11d;" horiz-adv-x="591" 
d="M5 -117l92 69c39 -56 80 -82 136 -82c72 0 129 53 144 133l7 40h-2c-28 -33 -84 -58 -139 -58c-65 0 -116 21 -154 63c-37 43 -56 100 -56 171c-3 177 124 326 275 323c63 0 119 -23 151 -59h2l9 47h117l-94 -541c-13 -69 -43 -125 -90 -166c-47 -42 -103 -63 -170 -63
c-96 0 -176 43 -228 123zM410 211l24 139c-19 49 -62 79 -118 79c-91 0 -161 -90 -161 -206c0 -79 40 -126 105 -126c77 0 138 46 150 114zM470 626l-71 -44l-55 90l-86 -90l-60 56l79 82h133z" />
    <glyph glyph-name="uni0123" unicode="&#x123;" horiz-adv-x="591" 
d="M5 -117l92 69c39 -56 80 -82 136 -82c72 0 129 53 144 133l7 40h-2c-28 -33 -84 -58 -139 -58c-65 0 -116 21 -154 63c-37 43 -56 100 -56 171c-3 177 124 326 275 323c63 0 119 -23 151 -59h2l9 47h117l-94 -541c-13 -69 -43 -125 -90 -166c-47 -42 -103 -63 -170 -63
c-96 0 -176 43 -228 123zM410 211l24 139c-19 49 -62 79 -118 79c-91 0 -161 -90 -161 -206c0 -79 40 -126 105 -126c77 0 138 46 150 114zM440 821l-10 -52c-36 -9 -51 -24 -56 -56h50l-20 -111h-134l17 98c13 71 66 113 153 121z" />
    <glyph glyph-name="gdotaccent" unicode="&#x121;" horiz-adv-x="591" 
d="M5 -117l92 69c39 -56 80 -82 136 -82c72 0 129 53 144 133l7 40h-2c-28 -33 -84 -58 -139 -58c-65 0 -116 21 -154 63c-37 43 -56 100 -56 171c-3 177 124 326 275 323c63 0 119 -23 151 -59h2l9 47h117l-94 -541c-13 -69 -43 -125 -90 -166c-47 -42 -103 -63 -170 -63
c-96 0 -176 43 -228 123zM410 211l24 139c-19 49 -62 79 -118 79c-91 0 -161 -90 -161 -206c0 -79 40 -126 105 -126c77 0 138 46 150 114zM276 602l20 117h120l-21 -117h-119z" />
    <glyph glyph-name="h" unicode="h" horiz-adv-x="567" 
d="M9 0l128 730h122l-44 -247h2c33 37 89 62 145 62c104 0 172 -67 172 -166c0 -15 -1 -30 -4 -43l-59 -336h-122l58 328c1 6 2 15 2 26c0 51 -30 78 -85 78c-71 0 -125 -47 -138 -116l-55 -316h-122z" />
    <glyph glyph-name="hbar" unicode="&#x127;" horiz-adv-x="567" 
d="M9 0l128 730h122l-44 -247h2c33 37 89 62 145 62c104 0 172 -67 172 -166c0 -15 -1 -30 -4 -43l-59 -336h-122l58 328c1 6 2 15 2 26c0 51 -30 78 -85 78c-71 0 -125 -47 -138 -116l-55 -316h-122zM55 586l15 84h341l-15 -84h-341z" />
    <glyph glyph-name="hcircumflex" unicode="&#x125;" horiz-adv-x="567" 
d="M9 0l128 730h122l-44 -247h2c33 37 89 62 145 62c104 0 172 -67 172 -166c0 -15 -1 -30 -4 -43l-59 -336h-122l58 328c1 6 2 15 2 26c0 51 -30 78 -85 78c-71 0 -125 -47 -138 -116l-55 -316h-122zM510 784l-71 -44l-55 90l-86 -90l-60 56l79 82h133z" />
    <glyph glyph-name="uni1E25" unicode="&#x1e25;" horiz-adv-x="567" 
d="M9 0l128 730h122l-44 -247h2c33 37 89 62 145 62c104 0 172 -67 172 -166c0 -15 -1 -30 -4 -43l-59 -336h-122l58 328c1 6 2 15 2 26c0 51 -30 78 -85 78c-71 0 -125 -47 -138 -116l-55 -316h-122zM152 -166l20 117h120l-21 -117h-119z" />
    <glyph glyph-name="i" unicode="i" horiz-adv-x="232" 
d="M9 0l93 530h122l-93 -530h-122zM115 620l22 123h127l-22 -123h-127z" />
    <glyph glyph-name="dotlessi" unicode="&#x131;" horiz-adv-x="232" 
d="M9 0l93 530h122l-93 -530h-122z" />
    <glyph glyph-name="iacute" unicode="&#xed;" horiz-adv-x="232" 
d="M9 0l93 530h122l-93 -530h-122zM105 590l109 131h134l-138 -131h-105z" />
    <glyph glyph-name="ibreve" unicode="&#x12d;" horiz-adv-x="232" 
d="M9 0l93 530h122l-93 -530h-122zM45 713h67c4 -35 24 -52 59 -52c41 0 71 17 90 52h67c-23 -84 -80 -133 -163 -133c-71 0 -120 54 -120 133z" />
    <glyph glyph-name="uni01D0" unicode="&#x1d0;" horiz-adv-x="232" 
d="M9 0l93 530h122l-93 -530h-122zM260 718l61 -55l-79 -83h-133l-60 94l71 44l55 -89z" />
    <glyph glyph-name="icircumflex" unicode="&#xee;" horiz-adv-x="232" 
d="M9 0l93 530h122l-93 -530h-122zM308 614l-71 -44l-55 90l-86 -90l-60 56l79 82h133z" />
    <glyph glyph-name="idieresis" unicode="&#xef;" horiz-adv-x="229" 
d="M19 580l20 117h120l-21 -117h-119zM203 580l20 117h119l-20 -117h-119zM9 0l93 530h122l-93 -530h-122z" />
    <glyph glyph-name="i.locl" horiz-adv-x="232" 
d="M9 0l93 530h122l-93 -530h-122zM115 620l22 123h127l-22 -123h-127z" />
    <glyph glyph-name="uni1ECB" unicode="&#x1ecb;" horiz-adv-x="232" 
d="M9 0l93 530h122l-93 -530h-122zM115 620l22 123h127l-22 -123h-127zM-18 -166l20 117h120l-21 -117h-119z" />
    <glyph glyph-name="igrave" unicode="&#xec;" horiz-adv-x="232" 
d="M9 0l93 530h122l-93 -530h-122zM125 590l-93 131h129l63 -131h-99z" />
    <glyph glyph-name="imacron" unicode="&#x12b;" horiz-adv-x="232" 
d="M9 0l93 530h122l-93 -530h-122zM34 590l13 79h301l-13 -79h-301z" />
    <glyph glyph-name="iogonek" unicode="&#x12f;" horiz-adv-x="232" 
d="M9 0l93 530h122l-93 -530h-122zM-72 -134c0 53 44 103 133 149l50 -15c-56 -32 -92 -72 -92 -104c0 -15 8 -21 27 -21c18 0 37 6 58 17l20 -74c-37 -17 -70 -26 -101 -26c-61 0 -95 27 -95 74zM115 620l22 123h127l-22 -123h-127z" />
    <glyph glyph-name="itilde" unicode="&#x129;" horiz-adv-x="232" 
d="M9 0l93 530h122l-93 -530h-122zM164 608c-16 8 -35 16 -48 16c-19 0 -32 -11 -39 -34h-63c13 68 55 109 108 109c28 0 47 -7 79 -22c20 -11 36 -16 48 -16c19 0 32 11 40 33h62c-13 -67 -55 -109 -108 -109c-28 0 -50 8 -79 23z" />
    <glyph glyph-name="j" unicode="j" horiz-adv-x="248" 
d="M-107 -193l19 113h51c33 0 48 13 55 45l99 565h122l-103 -588c-16 -89 -74 -135 -171 -135h-72zM131 620l22 123h127l-22 -123h-127z" />
    <glyph glyph-name="uni0237" unicode="&#x237;" horiz-adv-x="248" 
d="M-107 -193l19 113h51c33 0 48 13 55 45l99 565h122l-103 -588c-16 -89 -74 -135 -171 -135h-72z" />
    <glyph glyph-name="jcircumflex" unicode="&#x135;" horiz-adv-x="248" 
d="M-107 -193l19 113h51c33 0 48 13 55 45l99 565h122l-103 -588c-16 -89 -74 -135 -171 -135h-72zM323 614l-71 -44l-55 90l-86 -90l-60 56l79 82h133z" />
    <glyph glyph-name="k" unicode="k" horiz-adv-x="551" 
d="M573 530l-239 -215l157 -315h-131l-110 239h-2l-90 -82l-27 -157h-122l128 730h122l-72 -405h2l217 205h167z" />
    <glyph glyph-name="uni0137" unicode="&#x137;" horiz-adv-x="551" 
d="M573 530l-239 -215l157 -315h-131l-110 239h-2l-90 -82l-27 -157h-122l128 730h122l-72 -405h2l217 205h167zM156 -268l9 52c33 8 46 23 51 56h-46l20 111h122l-17 -98c-13 -72 -60 -113 -139 -121z" />
    <glyph glyph-name="kgreenlandic" unicode="&#x138;" horiz-adv-x="551" 
d="M573 530l-239 -215l157 -315h-131l-110 239h-2l-90 -82l-27 -157h-122l93 530h122l-37 -205h2l217 205h167z" />
    <glyph glyph-name="l" unicode="l" horiz-adv-x="232" 
d="M9 0l128 730h122l-128 -730h-122z" />
    <glyph glyph-name="lacute" unicode="&#x13a;" horiz-adv-x="232" 
d="M9 0l128 730h122l-128 -730h-122zM138 790l109 131h134l-138 -131h-105z" />
    <glyph glyph-name="lcaron" unicode="&#x13e;" horiz-adv-x="343" 
d="M9 0l128 730h122l-128 -730h-122zM273 511l9 52c33 8 46 23 51 56h-46l20 111h122l-17 -98c-13 -72 -60 -113 -139 -121z" />
    <glyph glyph-name="uni013C" unicode="&#x13c;" horiz-adv-x="232" 
d="M9 0l128 730h122l-128 -730h-122zM-29 -268l9 52c33 8 46 23 51 56h-46l20 111h122l-17 -98c-13 -72 -60 -113 -139 -121z" />
    <glyph glyph-name="ldot" unicode="&#x140;" horiz-adv-x="379" 
d="M9 0l128 730h122l-128 -730h-122zM233 306l24 142h146l-24 -142h-146z" />
    <glyph glyph-name="uni1E37" unicode="&#x1e37;" horiz-adv-x="232" 
d="M9 0l128 730h122l-128 -730h-122zM-16 -166l20 117h120l-21 -117h-119z" />
    <glyph glyph-name="lslash" unicode="&#x142;" horiz-adv-x="334" 
d="M60 0l128 730h122l-128 -730h-122zM162 340l236 135l-31 56l-184 -105l3 12l-206 -119l32 -55l153 88z" />
    <glyph glyph-name="m" unicode="m" horiz-adv-x="832" 
d="M9 0l93 530h114l-7 -45h2c31 39 81 60 133 60c57 0 110 -27 130 -66h2c41 44 91 66 150 66c104 0 175 -64 175 -157c0 -12 -1 -24 -3 -36l-62 -352h-119l60 339c1 5 2 13 2 23c0 44 -29 71 -74 71c-61 0 -106 -40 -118 -107l-58 -326h-114l60 339c1 11 2 18 2 22
c0 45 -27 72 -74 72c-61 0 -106 -40 -118 -107l-58 -326h-118z" />
    <glyph glyph-name="n" unicode="n" horiz-adv-x="567" 
d="M9 0l93 530h117l-8 -47h2c35 37 90 62 149 62c104 0 172 -67 172 -166c0 -15 -1 -30 -4 -43l-59 -336h-122l58 328c1 6 2 15 2 26c0 51 -30 78 -85 78c-71 0 -125 -47 -138 -116l-55 -316h-122z" />
    <glyph glyph-name="nacute" unicode="&#x144;" horiz-adv-x="567" 
d="M9 0l93 530h117l-8 -47h2c35 37 90 62 149 62c104 0 172 -67 172 -166c0 -15 -1 -30 -4 -43l-59 -336h-122l58 328c1 6 2 15 2 26c0 51 -30 78 -85 78c-71 0 -125 -47 -138 -116l-55 -316h-122zM280 605l109 131h134l-138 -131h-105z" />
    <glyph glyph-name="ncaron" unicode="&#x148;" horiz-adv-x="567" 
d="M9 0l93 530h117l-8 -47h2c35 37 90 62 149 62c104 0 172 -67 172 -166c0 -15 -1 -30 -4 -43l-59 -336h-122l58 328c1 6 2 15 2 26c0 51 -30 78 -85 78c-71 0 -125 -47 -138 -116l-55 -316h-122zM435 733l61 -55l-79 -83h-133l-60 94l71 44l55 -89z" />
    <glyph glyph-name="uni0146" unicode="&#x146;" horiz-adv-x="567" 
d="M9 0l93 530h117l-8 -47h2c35 37 90 62 149 62c104 0 172 -67 172 -166c0 -15 -1 -30 -4 -43l-59 -336h-122l58 328c1 6 2 15 2 26c0 51 -30 78 -85 78c-71 0 -125 -47 -138 -116l-55 -316h-122zM158 -268l9 52c33 8 46 23 51 56h-46l20 111h122l-17 -98
c-13 -72 -60 -113 -139 -121z" />
    <glyph glyph-name="uni1E45" unicode="&#x1e45;" horiz-adv-x="567" 
d="M9 0l93 530h117l-8 -47h2c35 37 90 62 149 62c104 0 172 -67 172 -166c0 -15 -1 -30 -4 -43l-59 -336h-122l58 328c1 6 2 15 2 26c0 51 -30 78 -85 78c-71 0 -125 -47 -138 -116l-55 -316h-122zM289 605l20 117h120l-21 -117h-119z" />
    <glyph glyph-name="uni1E47" unicode="&#x1e47;" horiz-adv-x="567" 
d="M9 0l93 530h117l-8 -47h2c35 37 90 62 149 62c104 0 172 -67 172 -166c0 -15 -1 -30 -4 -43l-59 -336h-122l58 328c1 6 2 15 2 26c0 51 -30 78 -85 78c-71 0 -125 -47 -138 -116l-55 -316h-122zM172 -166l20 117h120l-21 -117h-119z" />
    <glyph glyph-name="eng" unicode="&#x14b;" horiz-adv-x="568" 
d="M534 379c0 -15 -1 -30 -4 -43l-69 -394c-15 -89 -74 -135 -171 -135h-72l19 113h52c33 0 47 13 54 45l64 363c1 6 2 15 2 26c0 51 -30 78 -85 78c-71 0 -125 -47 -138 -116l-55 -316h-122l93 530h117l-8 -47h2c35 37 90 62 149 62c104 0 172 -67 172 -166z" />
    <glyph glyph-name="ntilde" unicode="&#xf1;" horiz-adv-x="567" 
d="M9 0l93 530h117l-8 -47h2c35 37 90 62 149 62c104 0 172 -67 172 -166c0 -15 -1 -30 -4 -43l-59 -336h-122l58 328c1 6 2 15 2 26c0 51 -30 78 -85 78c-71 0 -125 -47 -138 -116l-55 -316h-122zM339 623c-16 8 -35 16 -48 16c-19 0 -32 -11 -39 -34h-63
c13 68 55 109 108 109c28 0 47 -7 79 -22c20 -11 36 -16 48 -16c19 0 32 11 40 33h62c-13 -67 -55 -109 -108 -109c-28 0 -50 8 -79 23z" />
    <glyph glyph-name="o" unicode="o" horiz-adv-x="591" 
d="M33 223c-3 179 128 325 287 322c141 0 237 -103 237 -238c3 -179 -126 -326 -287 -322c-141 0 -237 103 -237 238zM435 307c0 76 -45 126 -118 126c-90 0 -162 -91 -162 -210c0 -76 46 -126 119 -126c90 0 161 91 161 210z" />
    <glyph glyph-name="oacute" unicode="&#xf3;" horiz-adv-x="591" 
d="M33 223c-3 179 128 325 287 322c141 0 237 -103 237 -238c3 -179 -126 -326 -287 -322c-141 0 -237 103 -237 238zM435 307c0 76 -45 126 -118 126c-90 0 -162 -91 -162 -210c0 -76 46 -126 119 -126c90 0 161 91 161 210zM272 605l109 131h134l-138 -131h-105z" />
    <glyph glyph-name="obreve" unicode="&#x14f;" horiz-adv-x="591" 
d="M33 223c-3 179 128 325 287 322c141 0 237 -103 237 -238c3 -179 -126 -326 -287 -322c-141 0 -237 103 -237 238zM435 307c0 76 -45 126 -118 126c-90 0 -162 -91 -162 -210c0 -76 46 -126 119 -126c90 0 161 91 161 210zM213 728h67c4 -35 24 -52 59 -52
c41 0 71 17 90 52h67c-23 -84 -80 -133 -163 -133c-71 0 -120 54 -120 133z" />
    <glyph glyph-name="uni01D2" unicode="&#x1d2;" horiz-adv-x="591" 
d="M33 223c-3 179 128 325 287 322c141 0 237 -103 237 -238c3 -179 -126 -326 -287 -322c-141 0 -237 103 -237 238zM435 307c0 76 -45 126 -118 126c-90 0 -162 -91 -162 -210c0 -76 46 -126 119 -126c90 0 161 91 161 210zM427 733l61 -55l-79 -83h-133l-60 94l71 44
l55 -89z" />
    <glyph glyph-name="ocircumflex" unicode="&#xf4;" horiz-adv-x="591" 
d="M33 223c-3 179 128 325 287 322c141 0 237 -103 237 -238c3 -179 -126 -326 -287 -322c-141 0 -237 103 -237 238zM435 307c0 76 -45 126 -118 126c-90 0 -162 -91 -162 -210c0 -76 46 -126 119 -126c90 0 161 91 161 210zM475 629l-71 -44l-55 90l-86 -90l-60 56l79 82
h133z" />
    <glyph glyph-name="uni1ED9" unicode="&#x1ed9;" horiz-adv-x="591" 
d="M33 223c-3 179 128 325 287 322c141 0 237 -103 237 -238c3 -179 -126 -326 -287 -322c-141 0 -237 103 -237 238zM435 307c0 76 -45 126 -118 126c-90 0 -162 -91 -162 -210c0 -76 46 -126 119 -126c90 0 161 91 161 210zM475 629l-71 -44l-55 90l-86 -90l-60 56l79 82
h133zM184 -181l20 117h120l-21 -117h-119z" />
    <glyph glyph-name="odieresis" unicode="&#xf6;" horiz-adv-x="591" 
d="M33 223c-3 179 128 325 287 322c141 0 237 -103 237 -238c3 -179 -126 -326 -287 -322c-141 0 -237 103 -237 238zM435 307c0 76 -45 126 -118 126c-90 0 -162 -91 -162 -210c0 -76 46 -126 119 -126c90 0 161 91 161 210zM180 595l20 117h120l-21 -117h-119zM379 595
l20 117h119l-20 -117h-119z" />
    <glyph glyph-name="uni1ECD" unicode="&#x1ecd;" horiz-adv-x="591" 
d="M33 223c-3 179 128 325 287 322c141 0 237 -103 237 -238c3 -179 -126 -326 -287 -322c-141 0 -237 103 -237 238zM435 307c0 76 -45 126 -118 126c-90 0 -162 -91 -162 -210c0 -76 46 -126 119 -126c90 0 161 91 161 210zM184 -181l20 117h120l-21 -117h-119z" />
    <glyph glyph-name="ograve" unicode="&#xf2;" horiz-adv-x="591" 
d="M33 223c-3 179 128 325 287 322c141 0 237 -103 237 -238c3 -179 -126 -326 -287 -322c-141 0 -237 103 -237 238zM435 307c0 76 -45 126 -118 126c-90 0 -162 -91 -162 -210c0 -76 46 -126 119 -126c90 0 161 91 161 210zM292 605l-93 131h129l63 -131h-99z" />
    <glyph glyph-name="ohungarumlaut" unicode="&#x151;" horiz-adv-x="591" 
d="M33 223c-3 179 128 325 287 322c141 0 237 -103 237 -238c3 -179 -126 -326 -287 -322c-141 0 -237 103 -237 238zM435 307c0 76 -45 126 -118 126c-90 0 -162 -91 -162 -210c0 -76 46 -126 119 -126c90 0 161 91 161 210zM179 605l109 131h134l-138 -131h-105zM362 605
l109 131h134l-138 -131h-105z" />
    <glyph glyph-name="omacron" unicode="&#x14d;" horiz-adv-x="591" 
d="M33 223c-3 179 128 325 287 322c141 0 237 -103 237 -238c3 -179 -126 -326 -287 -322c-141 0 -237 103 -237 238zM435 307c0 76 -45 126 -118 126c-90 0 -162 -91 -162 -210c0 -76 46 -126 119 -126c90 0 161 91 161 210zM201 605l13 79h301l-13 -79h-301z" />
    <glyph glyph-name="oslash" unicode="&#xf8;" horiz-adv-x="591" 
d="M560 509l-50 -52c31 -42 47 -92 47 -150c3 -179 -127 -325 -286 -322c-63 0 -116 19 -160 56l-53 -55l-43 41l57 59c-26 39 -39 85 -39 137c-3 179 128 325 287 322c57 0 106 -15 147 -46l50 52zM157 175l232 243c-19 13 -42 19 -69 19c-96 0 -169 -95 -169 -215
c0 -16 2 -32 6 -47zM428 371l-239 -249c21 -19 48 -29 81 -29c97 0 170 94 170 216c0 23 -4 44 -12 62z" />
    <glyph glyph-name="oslashacute" unicode="&#x1ff;" horiz-adv-x="591" 
d="M560 509l-50 -52c31 -42 47 -92 47 -150c3 -179 -127 -325 -286 -322c-63 0 -116 19 -160 56l-53 -55l-43 41l57 59c-26 39 -39 85 -39 137c-3 179 128 325 287 322c57 0 106 -15 147 -46l50 52zM157 175l232 243c-19 13 -42 19 -69 19c-96 0 -169 -95 -169 -215
c0 -16 2 -32 6 -47zM428 371l-239 -249c21 -19 48 -29 81 -29c97 0 170 94 170 216c0 23 -4 44 -12 62zM272 605l109 131h134l-138 -131h-105z" />
    <glyph glyph-name="otilde" unicode="&#xf5;" horiz-adv-x="591" 
d="M33 223c-3 179 128 325 287 322c141 0 237 -103 237 -238c3 -179 -126 -326 -287 -322c-141 0 -237 103 -237 238zM435 307c0 76 -45 126 -118 126c-90 0 -162 -91 -162 -210c0 -76 46 -126 119 -126c90 0 161 91 161 210zM331 623c-16 8 -35 16 -48 16
c-19 0 -32 -11 -39 -34h-63c13 68 55 109 108 109c28 0 47 -7 79 -22c20 -11 36 -16 48 -16c19 0 32 11 40 33h62c-13 -67 -55 -109 -108 -109c-28 0 -50 8 -79 23z" />
    <glyph glyph-name="uni1E4D" unicode="&#x1e4d;" horiz-adv-x="591" 
d="M33 223c-3 179 128 325 287 322c141 0 237 -103 237 -238c3 -179 -126 -326 -287 -322c-141 0 -237 103 -237 238zM435 307c0 76 -45 126 -118 126c-90 0 -162 -91 -162 -210c0 -76 46 -126 119 -126c90 0 161 91 161 210zM331 623c-16 8 -35 16 -48 16
c-19 0 -32 -11 -39 -34h-63c13 68 55 109 108 109c28 0 47 -7 79 -22c20 -11 36 -16 48 -16c19 0 32 11 40 33h62c-13 -67 -55 -109 -108 -109c-28 0 -50 8 -79 23zM297 744l109 131h134l-138 -131h-105z" />
    <glyph glyph-name="oe" unicode="&#x153;" horiz-adv-x="977" 
d="M942 303c0 -29 -2 -54 -6 -74h-387v-6c-3 -83 43 -133 124 -133c52 0 97 28 144 88l84 -72c-59 -77 -143 -121 -232 -121c-85 0 -153 34 -193 95c-52 -60 -124 -95 -204 -95c-141 0 -239 102 -239 239c-3 177 128 324 287 321c84 0 151 -35 192 -95c49 60 120 95 200 95
c138 0 230 -97 230 -242zM712 440c-69 0 -126 -49 -150 -122h265c3 77 -44 122 -115 122zM439 307c0 77 -46 129 -119 129c-93 0 -167 -93 -167 -213c0 -77 45 -129 118 -129c95 0 168 93 168 213z" />
    <glyph glyph-name="p" unicode="p" horiz-adv-x="597" 
d="M-31 -225l133 755h118l-7 -40h2c35 35 89 55 144 55c119 0 204 -100 204 -238c3 -175 -125 -326 -278 -322c-60 0 -114 24 -145 59h-2l-47 -269h-122zM441 307c0 79 -41 126 -112 126s-130 -49 -143 -118l-24 -140c12 -45 59 -78 114 -78c94 0 165 88 165 210z" />
    <glyph glyph-name="thorn" unicode="&#xfe;" horiz-adv-x="597" 
d="M-31 -225l168 955h122l-41 -236h2c35 32 87 51 139 51c119 0 204 -100 204 -238c3 -175 -125 -326 -278 -322c-60 0 -114 24 -145 59h-2l-47 -269h-122zM441 307c0 79 -41 126 -112 126s-130 -49 -143 -118l-24 -140c12 -45 59 -78 114 -78c94 0 165 88 165 210z" />
    <glyph glyph-name="q" unicode="q" horiz-adv-x="599" 
d="M327 -225l45 252h-2c-32 -28 -74 -42 -126 -42c-121 0 -211 86 -211 235c-3 183 128 328 277 325c57 0 109 -22 142 -55h2l8 40h120l-133 -755h-122zM403 207l27 155c-17 41 -57 71 -109 71c-93 0 -166 -89 -166 -209c0 -81 44 -127 111 -127c68 0 125 46 137 110z" />
    <glyph glyph-name="r" unicode="r" horiz-adv-x="358" 
d="M8 0l94 530h115l-9 -46h2c28 36 70 56 118 56c22 0 43 -3 64 -10l-28 -116c-18 5 -37 7 -56 7c-68 0 -112 -45 -127 -129l-51 -292h-122z" />
    <glyph glyph-name="racute" unicode="&#x155;" horiz-adv-x="358" 
d="M8 0l94 530h115l-9 -46h2c28 36 70 56 118 56c22 0 43 -3 64 -10l-28 -116c-18 5 -37 7 -56 7c-68 0 -112 -45 -127 -129l-51 -292h-122zM163 590l109 131h134l-138 -131h-105z" />
    <glyph glyph-name="rcaron" unicode="&#x159;" horiz-adv-x="358" 
d="M8 0l94 530h115l-9 -46h2c28 36 70 56 118 56c22 0 43 -3 64 -10l-28 -116c-18 5 -37 7 -56 7c-68 0 -112 -45 -127 -129l-51 -292h-122zM318 718l61 -55l-79 -83h-133l-60 94l71 44l55 -89z" />
    <glyph glyph-name="uni0157" unicode="&#x157;" horiz-adv-x="358" 
d="M8 0l94 530h115l-9 -46h2c28 36 70 56 118 56c22 0 43 -3 64 -10l-28 -116c-18 5 -37 7 -56 7c-68 0 -112 -45 -127 -129l-51 -292h-122zM-30 -268l9 52c33 8 46 23 51 56h-46l20 111h122l-17 -98c-13 -72 -60 -113 -139 -121z" />
    <glyph glyph-name="s" unicode="s" horiz-adv-x="504" 
d="M8 174l111 28c16 -79 55 -114 130 -114c55 0 92 23 92 56c0 36 -27 57 -110 84c-119 37 -164 82 -164 159c0 88 85 158 194 158c111 0 196 -62 216 -159l-112 -27c-15 57 -48 83 -104 83c-45 0 -78 -21 -78 -52c0 -25 23 -42 94 -66c131 -44 180 -93 180 -178
c0 -93 -87 -161 -208 -161c-135 0 -221 68 -241 189z" />
    <glyph glyph-name="sacute" unicode="&#x15b;" horiz-adv-x="504" 
d="M8 174l111 28c16 -79 55 -114 130 -114c55 0 92 23 92 56c0 36 -27 57 -110 84c-119 37 -164 82 -164 159c0 88 85 158 194 158c111 0 196 -62 216 -159l-112 -27c-15 57 -48 83 -104 83c-45 0 -78 -21 -78 -52c0 -25 23 -42 94 -66c131 -44 180 -93 180 -178
c0 -93 -87 -161 -208 -161c-135 0 -221 68 -241 189zM213 605l109 131h134l-138 -131h-105z" />
    <glyph glyph-name="scaron" unicode="&#x161;" horiz-adv-x="504" 
d="M8 174l111 28c16 -79 55 -114 130 -114c55 0 92 23 92 56c0 36 -27 57 -110 84c-119 37 -164 82 -164 159c0 88 85 158 194 158c111 0 196 -62 216 -159l-112 -27c-15 57 -48 83 -104 83c-45 0 -78 -21 -78 -52c0 -25 23 -42 94 -66c131 -44 180 -93 180 -178
c0 -93 -87 -161 -208 -161c-135 0 -221 68 -241 189zM368 733l61 -55l-79 -83h-133l-60 94l71 44l55 -89z" />
    <glyph glyph-name="scedilla" unicode="&#x15f;" horiz-adv-x="504" 
d="M8 174l111 28c16 -79 55 -114 130 -114c55 0 92 23 92 56c0 36 -27 57 -110 84c-119 37 -164 82 -164 159c0 88 85 158 194 158c111 0 196 -62 216 -159l-112 -27c-15 57 -48 83 -104 83c-45 0 -78 -21 -78 -52c0 -25 23 -42 94 -66c131 -44 180 -93 180 -178
c0 -93 -87 -161 -208 -161c-135 0 -221 68 -241 189zM357 -138c0 -65 -51 -111 -123 -111c-43 0 -80 13 -111 38l43 55c21 -17 39 -24 64 -24c31 0 56 21 56 45c0 17 -13 28 -33 28c-21 0 -40 -9 -59 -26l-48 30l83 116l55 -19l-35 -46c4 1 10 1 17 1c55 0 91 -35 91 -87z
" />
    <glyph glyph-name="scircumflex" unicode="&#x15d;" horiz-adv-x="504" 
d="M8 174l111 28c16 -79 55 -114 130 -114c55 0 92 23 92 56c0 36 -27 57 -110 84c-119 37 -164 82 -164 159c0 88 85 158 194 158c111 0 196 -62 216 -159l-112 -27c-15 57 -48 83 -104 83c-45 0 -78 -21 -78 -52c0 -25 23 -42 94 -66c131 -44 180 -93 180 -178
c0 -93 -87 -161 -208 -161c-135 0 -221 68 -241 189zM416 629l-71 -44l-55 90l-86 -90l-60 56l79 82h133z" />
    <glyph glyph-name="uni0219" unicode="&#x219;" horiz-adv-x="504" 
d="M8 174l111 28c16 -79 55 -114 130 -114c55 0 92 23 92 56c0 36 -27 57 -110 84c-119 37 -164 82 -164 159c0 88 85 158 194 158c111 0 196 -62 216 -159l-112 -27c-15 57 -48 83 -104 83c-45 0 -78 -21 -78 -52c0 -25 23 -42 94 -66c131 -44 180 -93 180 -178
c0 -93 -87 -161 -208 -161c-135 0 -221 68 -241 189zM149 -283l9 52c33 8 46 23 51 56h-46l20 111h122l-17 -98c-13 -72 -60 -113 -139 -121z" />
    <glyph glyph-name="uni1E63" unicode="&#x1e63;" horiz-adv-x="504" 
d="M8 174l111 28c16 -79 55 -114 130 -114c55 0 92 23 92 56c0 36 -27 57 -110 84c-119 37 -164 82 -164 159c0 88 85 158 194 158c111 0 196 -62 216 -159l-112 -27c-15 57 -48 83 -104 83c-45 0 -78 -21 -78 -52c0 -25 23 -42 94 -66c131 -44 180 -93 180 -178
c0 -93 -87 -161 -208 -161c-135 0 -221 68 -241 189zM163 -181l20 117h120l-21 -117h-119z" />
    <glyph glyph-name="germandbls" unicode="&#xdf;" horiz-adv-x="564" 
d="M8 0l88 500c25 140 108 215 241 215c119 0 208 -74 208 -176c0 -75 -40 -129 -111 -158v-2c49 -25 86 -80 86 -143c0 -143 -103 -236 -278 -236h-50l20 110h39c96 0 149 50 149 126c0 57 -37 88 -102 88h-49l19 102h33c81 0 124 36 124 103c0 45 -35 76 -88 76
c-67 0 -109 -42 -124 -127l-83 -478h-122z" />
    <glyph glyph-name="longs" unicode="&#x17f;" horiz-adv-x="310" 
d="M52 0l75 421h-89l19 109h89l11 64c16 88 74 134 169 134h97l-19 -110h-75c-33 0 -47 -13 -54 -45l-101 -573h-122z" />
    <glyph glyph-name="t" unicode="t" horiz-adv-x="383" 
d="M257 421l-46 -261c-1 -4 -1 -9 -1 -15c0 -20 10 -28 45 -28h57l-20 -117h-58c-100 0 -150 43 -150 119c0 14 1 27 4 40l47 262h-97l19 109h97l23 129h122l-23 -129h131l-19 -109h-131z" />
    <glyph glyph-name="tbar" unicode="&#x167;" horiz-adv-x="383" 
d="M257 421l-46 -261c-1 -4 -1 -9 -1 -15c0 -20 10 -28 45 -28h57l-20 -117h-58c-100 0 -150 43 -150 119c0 14 1 27 4 40l47 262h-97l19 109h97l23 129h122l-23 -129h131l-19 -109h-131zM8 236l15 84h341l-15 -84h-341z" />
    <glyph glyph-name="tcaron" unicode="&#x165;" horiz-adv-x="383" 
d="M257 421l-46 -261c-1 -4 -1 -9 -1 -15c0 -20 10 -28 45 -28h57l-20 -117h-58c-100 0 -150 43 -150 119c0 14 1 27 4 40l47 262h-97l19 109h97l23 129h122l-23 -129h131l-19 -109h-131zM338 579l9 52c33 8 46 23 51 56h-46l20 111h122l-17 -98c-13 -72 -60 -113 -139 -121
z" />
    <glyph glyph-name="uni0163" unicode="&#x163;" horiz-adv-x="383" 
d="M257 421l-46 -261c-1 -4 -1 -9 -1 -15c0 -20 10 -28 45 -28h57l-20 -117h-58c-100 0 -150 43 -150 119c0 14 1 27 4 40l47 262h-97l19 109h97l23 129h122l-23 -129h131l-19 -109h-131zM291 -124c0 -65 -51 -111 -123 -111c-43 0 -80 13 -111 38l43 55
c21 -17 39 -24 64 -24c31 0 56 21 56 45c0 17 -13 28 -33 28c-21 0 -40 -9 -59 -26l-48 30l83 116l55 -19l-35 -46c4 1 10 1 17 1c55 0 91 -35 91 -87z" />
    <glyph glyph-name="uni021B" unicode="&#x21b;" horiz-adv-x="383" 
d="M257 421l-46 -261c-1 -4 -1 -9 -1 -15c0 -20 10 -28 45 -28h57l-20 -117h-58c-100 0 -150 43 -150 119c0 14 1 27 4 40l47 262h-97l19 109h97l23 129h122l-23 -129h131l-19 -109h-131zM83 -268l9 52c33 8 46 23 51 56h-46l20 111h122l-17 -98c-13 -72 -60 -113 -139 -121
z" />
    <glyph glyph-name="uni1E6D" unicode="&#x1e6d;" horiz-adv-x="383" 
d="M257 421l-46 -261c-1 -4 -1 -9 -1 -15c0 -20 10 -28 45 -28h57l-20 -117h-58c-100 0 -150 43 -150 119c0 14 1 27 4 40l47 262h-97l19 109h97l23 129h122l-23 -129h131l-19 -109h-131zM97 -166l20 117h120l-21 -117h-119z" />
    <glyph glyph-name="u" unicode="u" horiz-adv-x="555" 
d="M28 151c0 15 1 30 4 43l60 336h122l-59 -329c-2 -10 -3 -19 -3 -28c0 -49 30 -76 86 -76c68 0 119 49 131 117l56 316h122l-93 -530h-117l8 47h-2c-35 -40 -85 -62 -141 -62c-108 0 -174 67 -174 166z" />
    <glyph glyph-name="uacute" unicode="&#xfa;" horiz-adv-x="555" 
d="M28 151c0 15 1 30 4 43l60 336h122l-59 -329c-2 -10 -3 -19 -3 -28c0 -49 30 -76 86 -76c68 0 119 49 131 117l56 316h122l-93 -530h-117l8 47h-2c-35 -40 -85 -62 -141 -62c-108 0 -174 67 -174 166zM262 590l109 131h134l-138 -131h-105z" />
    <glyph glyph-name="ubreve" unicode="&#x16d;" horiz-adv-x="555" 
d="M28 151c0 15 1 30 4 43l60 336h122l-59 -329c-2 -10 -3 -19 -3 -28c0 -49 30 -76 86 -76c68 0 119 49 131 117l56 316h122l-93 -530h-117l8 47h-2c-35 -40 -85 -62 -141 -62c-108 0 -174 67 -174 166zM203 713h67c4 -35 24 -52 59 -52c41 0 71 17 90 52h67
c-23 -84 -80 -133 -163 -133c-71 0 -120 54 -120 133z" />
    <glyph glyph-name="uni01D4" unicode="&#x1d4;" horiz-adv-x="555" 
d="M28 151c0 15 1 30 4 43l60 336h122l-59 -329c-2 -10 -3 -19 -3 -28c0 -49 30 -76 86 -76c68 0 119 49 131 117l56 316h122l-93 -530h-117l8 47h-2c-35 -40 -85 -62 -141 -62c-108 0 -174 67 -174 166zM417 718l61 -55l-79 -83h-133l-60 94l71 44l55 -89z" />
    <glyph glyph-name="ucircumflex" unicode="&#xfb;" horiz-adv-x="555" 
d="M28 151c0 15 1 30 4 43l60 336h122l-59 -329c-2 -10 -3 -19 -3 -28c0 -49 30 -76 86 -76c68 0 119 49 131 117l56 316h122l-93 -530h-117l8 47h-2c-35 -40 -85 -62 -141 -62c-108 0 -174 67 -174 166zM465 614l-71 -44l-55 90l-86 -90l-60 56l79 82h133z" />
    <glyph glyph-name="udieresis" unicode="&#xfc;" horiz-adv-x="555" 
d="M28 151c0 15 1 30 4 43l60 336h122l-59 -329c-2 -10 -3 -19 -3 -28c0 -49 30 -76 86 -76c68 0 119 49 131 117l56 316h122l-93 -530h-117l8 47h-2c-35 -40 -85 -62 -141 -62c-108 0 -174 67 -174 166zM170 580l20 117h120l-21 -117h-119zM369 580l20 117h119l-20 -117
h-119z" />
    <glyph glyph-name="uni01D8" unicode="&#x1d8;" horiz-adv-x="555" 
d="M28 151c0 15 1 30 4 43l60 336h122l-59 -329c-2 -10 -3 -19 -3 -28c0 -49 30 -76 86 -76c68 0 119 49 131 117l56 316h122l-93 -530h-117l8 47h-2c-35 -40 -85 -62 -141 -62c-108 0 -174 67 -174 166zM170 580l20 117h120l-21 -117h-119zM369 580l20 117h119l-20 -117
h-119zM288 737l109 131h134l-138 -131h-105z" />
    <glyph glyph-name="uni01DA" unicode="&#x1da;" horiz-adv-x="555" 
d="M28 151c0 15 1 30 4 43l60 336h122l-59 -329c-2 -10 -3 -19 -3 -28c0 -49 30 -76 86 -76c68 0 119 49 131 117l56 316h122l-93 -530h-117l8 47h-2c-35 -40 -85 -62 -141 -62c-108 0 -174 67 -174 166zM170 580l20 117h120l-21 -117h-119zM369 580l20 117h119l-20 -117
h-119zM443 865l61 -55l-79 -83h-133l-60 94l71 44l55 -89z" />
    <glyph glyph-name="uni01DC" unicode="&#x1dc;" horiz-adv-x="555" 
d="M28 151c0 15 1 30 4 43l60 336h122l-59 -329c-2 -10 -3 -19 -3 -28c0 -49 30 -76 86 -76c68 0 119 49 131 117l56 316h122l-93 -530h-117l8 47h-2c-35 -40 -85 -62 -141 -62c-108 0 -174 67 -174 166zM170 580l20 117h120l-21 -117h-119zM369 580l20 117h119l-20 -117
h-119zM308 737l-93 131h129l63 -131h-99z" />
    <glyph glyph-name="uni01D6" unicode="&#x1d6;" horiz-adv-x="555" 
d="M28 151c0 15 1 30 4 43l60 336h122l-59 -329c-2 -10 -3 -19 -3 -28c0 -49 30 -76 86 -76c68 0 119 49 131 117l56 316h122l-93 -530h-117l8 47h-2c-35 -40 -85 -62 -141 -62c-108 0 -174 67 -174 166zM170 580l20 117h120l-21 -117h-119zM369 580l20 117h119l-20 -117
h-119zM217 737l13 79h301l-13 -79h-301z" />
    <glyph glyph-name="uni1EE5" unicode="&#x1ee5;" horiz-adv-x="555" 
d="M28 151c0 15 1 30 4 43l60 336h122l-59 -329c-2 -10 -3 -19 -3 -28c0 -49 30 -76 86 -76c68 0 119 49 131 117l56 316h122l-93 -530h-117l8 47h-2c-35 -40 -85 -62 -141 -62c-108 0 -174 67 -174 166zM124 -181l20 117h120l-21 -117h-119z" />
    <glyph glyph-name="ugrave" unicode="&#xf9;" horiz-adv-x="555" 
d="M28 151c0 15 1 30 4 43l60 336h122l-59 -329c-2 -10 -3 -19 -3 -28c0 -49 30 -76 86 -76c68 0 119 49 131 117l56 316h122l-93 -530h-117l8 47h-2c-35 -40 -85 -62 -141 -62c-108 0 -174 67 -174 166zM282 590l-93 131h129l63 -131h-99z" />
    <glyph glyph-name="uhungarumlaut" unicode="&#x171;" horiz-adv-x="555" 
d="M28 151c0 15 1 30 4 43l60 336h122l-59 -329c-2 -10 -3 -19 -3 -28c0 -49 30 -76 86 -76c68 0 119 49 131 117l56 316h122l-93 -530h-117l8 47h-2c-35 -40 -85 -62 -141 -62c-108 0 -174 67 -174 166zM169 590l109 131h134l-138 -131h-105zM352 590l109 131h134
l-138 -131h-105z" />
    <glyph glyph-name="umacron" unicode="&#x16b;" horiz-adv-x="555" 
d="M28 151c0 15 1 30 4 43l60 336h122l-59 -329c-2 -10 -3 -19 -3 -28c0 -49 30 -76 86 -76c68 0 119 49 131 117l56 316h122l-93 -530h-117l8 47h-2c-35 -40 -85 -62 -141 -62c-108 0 -174 67 -174 166zM191 590l13 79h301l-13 -79h-301z" />
    <glyph glyph-name="uogonek" unicode="&#x173;" horiz-adv-x="555" 
d="M28 151c0 15 1 30 4 43l60 336h122l-59 -329c-2 -10 -3 -19 -3 -28c0 -49 30 -76 86 -76c68 0 119 49 131 117l56 316h122l-93 -530h-117l8 47h-2c-35 -40 -85 -62 -141 -62c-108 0 -174 67 -174 166zM253 -134c0 53 44 103 133 149l50 -15c-56 -32 -92 -72 -92 -104
c0 -15 8 -21 27 -21c18 0 37 6 58 17l20 -74c-37 -17 -70 -26 -101 -26c-61 0 -95 27 -95 74z" />
    <glyph glyph-name="uring" unicode="&#x16f;" horiz-adv-x="555" 
d="M28 151c0 15 1 30 4 43l60 336h122l-59 -329c-2 -10 -3 -19 -3 -28c0 -49 30 -76 86 -76c68 0 119 49 131 117l56 316h122l-93 -530h-117l8 47h-2c-35 -40 -85 -62 -141 -62c-108 0 -174 67 -174 166zM189 661c0 73 58 127 141 127c81 0 141 -54 141 -127
s-60 -127 -141 -127c-83 0 -141 54 -141 127zM398 661c0 40 -28 67 -68 67s-68 -27 -68 -67c0 -39 28 -67 68 -67s68 28 68 67z" />
    <glyph glyph-name="utilde" unicode="&#x169;" horiz-adv-x="555" 
d="M28 151c0 15 1 30 4 43l60 336h122l-59 -329c-2 -10 -3 -19 -3 -28c0 -49 30 -76 86 -76c68 0 119 49 131 117l56 316h122l-93 -530h-117l8 47h-2c-35 -40 -85 -62 -141 -62c-108 0 -174 67 -174 166zM321 608c-16 8 -35 16 -48 16c-19 0 -32 -11 -39 -34h-63
c13 68 55 109 108 109c28 0 47 -7 79 -22c20 -11 36 -16 48 -16c19 0 32 11 40 33h62c-13 -67 -55 -109 -108 -109c-28 0 -50 8 -79 23z" />
    <glyph glyph-name="v" unicode="v" horiz-adv-x="573" 
d="M191 0l-136 530h124l86 -361h2l207 361h138l-317 -530h-104z" />
    <glyph glyph-name="w" unicode="w" horiz-adv-x="792" 
d="M92 0l-27 530h120l12 -365h2l179 365h113l62 -365h2l140 365h126l-214 -530h-124l-68 387h-2l-191 -387h-130z" />
    <glyph glyph-name="wacute" unicode="&#x1e83;" horiz-adv-x="792" 
d="M92 0l-27 530h120l12 -365h2l179 365h113l62 -365h2l140 365h126l-214 -530h-124l-68 387h-2l-191 -387h-130zM377 590l109 131h134l-138 -131h-105z" />
    <glyph glyph-name="wcircumflex" unicode="&#x175;" horiz-adv-x="792" 
d="M92 0l-27 530h120l12 -365h2l179 365h113l62 -365h2l140 365h126l-214 -530h-124l-68 387h-2l-191 -387h-130zM580 614l-71 -44l-55 90l-86 -90l-60 56l79 82h133z" />
    <glyph glyph-name="wdieresis" unicode="&#x1e85;" horiz-adv-x="792" 
d="M92 0l-27 530h120l12 -365h2l179 365h113l62 -365h2l140 365h126l-214 -530h-124l-68 387h-2l-191 -387h-130zM285 580l20 117h120l-21 -117h-119zM484 580l20 117h119l-20 -117h-119z" />
    <glyph glyph-name="wgrave" unicode="&#x1e81;" horiz-adv-x="792" 
d="M92 0l-27 530h120l12 -365h2l179 365h113l62 -365h2l140 365h126l-214 -530h-124l-68 387h-2l-191 -387h-130zM397 590l-93 131h129l63 -131h-99z" />
    <glyph glyph-name="x" unicode="x" horiz-adv-x="547" 
d="M-34 0l234 269l-133 261h136l80 -172h2l139 172h155l-229 -261l137 -269h-136l-83 179h-2l-146 -179h-154z" />
    <glyph glyph-name="y" unicode="y" horiz-adv-x="548" 
d="M17 -225l153 257l-115 498h120l75 -355h2l201 355h134l-442 -755h-128z" />
    <glyph glyph-name="yacute" unicode="&#xfd;" horiz-adv-x="548" 
d="M17 -225l153 257l-115 498h120l75 -355h2l201 355h134l-442 -755h-128zM257 590l109 131h134l-138 -131h-105z" />
    <glyph glyph-name="ycircumflex" unicode="&#x177;" horiz-adv-x="548" 
d="M17 -225l153 257l-115 498h120l75 -355h2l201 355h134l-442 -755h-128zM460 614l-71 -44l-55 90l-86 -90l-60 56l79 82h133z" />
    <glyph glyph-name="ydieresis" unicode="&#xff;" horiz-adv-x="548" 
d="M17 -225l153 257l-115 498h120l75 -355h2l201 355h134l-442 -755h-128zM165 580l20 117h120l-21 -117h-119zM364 580l20 117h119l-20 -117h-119z" />
    <glyph glyph-name="uni1EF5" unicode="&#x1ef5;" horiz-adv-x="548" 
d="M17 -225l153 257l-115 498h120l75 -355h2l201 355h134l-442 -755h-128zM276 -166l20 117h120l-21 -117h-119z" />
    <glyph glyph-name="ygrave" unicode="&#x1ef3;" horiz-adv-x="548" 
d="M17 -225l153 257l-115 498h120l75 -355h2l201 355h134l-442 -755h-128zM277 590l-93 131h129l63 -131h-99z" />
    <glyph glyph-name="uni1EF9" unicode="&#x1ef9;" horiz-adv-x="548" 
d="M17 -225l153 257l-115 498h120l75 -355h2l201 355h134l-442 -755h-128zM316 608c-16 8 -35 16 -48 16c-19 0 -32 -11 -39 -34h-63c13 68 55 109 108 109c28 0 47 -7 79 -22c20 -11 36 -16 48 -16c19 0 32 11 40 33h62c-13 -67 -55 -109 -108 -109c-28 0 -50 8 -79 23z
" />
    <glyph glyph-name="z" unicode="z" horiz-adv-x="529" 
d="M-19 0l16 100l337 317v2h-280l20 111h455l-16 -100l-336 -317v-2h299l-20 -111h-475z" />
    <glyph glyph-name="zacute" unicode="&#x17a;" horiz-adv-x="529" 
d="M-19 0l16 100l337 317v2h-280l20 111h455l-16 -100l-336 -317v-2h299l-20 -111h-475zM244 590l109 131h134l-138 -131h-105z" />
    <glyph glyph-name="zcaron" unicode="&#x17e;" horiz-adv-x="529" 
d="M-19 0l16 100l337 317v2h-280l20 111h455l-16 -100l-336 -317v-2h299l-20 -111h-475zM399 718l61 -55l-79 -83h-133l-60 94l71 44l55 -89z" />
    <glyph glyph-name="zdotaccent" unicode="&#x17c;" horiz-adv-x="529" 
d="M-19 0l16 100l337 317v2h-280l20 111h455l-16 -100l-336 -317v-2h299l-20 -111h-475zM254 620l22 123h127l-22 -123h-127z" />
    <glyph glyph-name="uni1E93" unicode="&#x1e93;" horiz-adv-x="529" 
d="M-19 0l16 100l337 317v2h-280l20 111h455l-16 -100l-336 -317v-2h299l-20 -111h-475zM132 -166l20 117h120l-21 -117h-119z" />
    <glyph glyph-name="A.ordn" horiz-adv-x="314" 
d="M64 546c0 87 61 161 144 161c31 0 56 -8 77 -25h1l4 18h75l-49 -276h-71l4 24h-1c-13 -17 -41 -28 -69 -28c-65 0 -115 51 -115 126zM257 543l11 62c-11 19 -30 30 -55 30c-39 0 -70 -37 -70 -86c0 -36 19 -57 51 -57c29 0 58 22 63 51z" />
    <glyph glyph-name="B.ccmp" horiz-adv-x="322" 
d="M132 449h-1l-5 -25h-71l67 380h79l-21 -116h1c17 13 39 19 66 19c67 0 115 -54 115 -130c0 -87 -65 -158 -148 -158c-35 0 -62 10 -82 30zM283 578c0 35 -21 58 -54 58c-32 0 -63 -24 -68 -53l-10 -59c12 -20 32 -33 56 -33c43 0 76 39 76 87z" />
    <glyph glyph-name="C.ccmp" horiz-adv-x="301" 
d="M64 546c0 91 66 161 153 161c68 0 117 -42 126 -106l-75 -9c-7 27 -24 43 -51 43c-43 0 -74 -38 -74 -89c0 -33 20 -57 51 -57c32 0 52 15 68 50l71 -26c-23 -60 -74 -96 -139 -96c-75 0 -130 54 -130 129z" />
    <glyph glyph-name="D.ccmp" horiz-adv-x="316" 
d="M64 545c0 86 60 162 145 162c29 0 53 -8 74 -23h1l22 120h79l-69 -380h-69l4 23h-1c-19 -18 -43 -27 -74 -27c-65 0 -112 53 -112 125zM260 543l10 55c-5 21 -26 37 -54 37c-43 0 -73 -37 -73 -86c0 -37 19 -57 52 -57c32 0 60 20 65 51z" />
    <glyph glyph-name="E.ccmp" horiz-adv-x="304" 
d="M340 534h-197c1 -29 21 -50 56 -50c25 0 50 12 75 36l47 -50c-32 -33 -75 -53 -122 -53c-80 0 -135 51 -135 126c0 93 64 164 151 164c75 0 128 -53 128 -126c0 -19 -1 -35 -3 -47zM215 641c-32 0 -58 -20 -66 -49h116c1 29 -19 49 -50 49z" />
    <glyph glyph-name="F.ccmp" horiz-adv-x="206" 
d="M80 424l37 206h-51l13 70h50l6 34c9 51 43 77 100 77h54l-12 -68h-35c-20 0 -27 -6 -31 -26l-3 -17h72l-12 -70h-72l-37 -206h-79z" />
    <glyph glyph-name="G.ccmp" horiz-adv-x="319" 
d="M45 359l56 45c20 -27 40 -38 71 -38c36 0 63 24 71 61l3 12h-1c-15 -13 -35 -19 -62 -19c-71 0 -118 51 -118 126c0 91 63 161 148 161c30 0 55 -8 76 -25h1l4 18h75l-47 -270c-15 -84 -71 -134 -150 -134c-55 0 -99 23 -127 63zM262 544l12 61c-13 20 -31 30 -54 30
c-45 0 -76 -35 -76 -86c0 -37 19 -57 52 -57s61 21 66 52z" />
    <glyph glyph-name="H.ccmp" horiz-adv-x="313" 
d="M55 424l67 380h79l-22 -126h1c21 19 46 29 75 29c60 0 96 -35 96 -91c0 -11 -1 -19 -2 -25l-29 -167h-79l28 161c1 3 1 7 1 12c0 24 -17 38 -44 38c-33 0 -59 -25 -66 -60l-26 -151h-79z" />
    <glyph glyph-name="I.ordn" horiz-adv-x="136" 
d="M112 747l13 78h83l-14 -78h-82zM57 424l49 276h79l-49 -276h-79z" />
    <glyph glyph-name="J.ordn" horiz-adv-x="134" 
d="M110 747l13 78h83l-13 -78h-83zM-19 311l13 74h28c19 0 29 8 31 25l51 290h79l-54 -308c-11 -57 -40 -81 -100 -81h-48z" />
    <glyph glyph-name="K.ccmp" horiz-adv-x="291" 
d="M372 700l-127 -112l73 -164h-84l-47 117h-1l-38 -35l-14 -82h-79l67 380h79l-34 -190h1l93 86h111z" />
    <glyph glyph-name="L.ccmp" horiz-adv-x="132" 
d="M55 424l67 380h79l-67 -380h-79z" />
    <glyph glyph-name="M.ccmp" horiz-adv-x="466" 
d="M505 617c0 -3 -1 -10 -2 -19l-31 -174h-79l31 169c4 25 -11 42 -38 42c-29 0 -53 -20 -58 -52l-27 -159h-74l30 169c1 2 1 5 1 9c0 20 -15 33 -39 33c-29 0 -51 -20 -58 -52l-27 -159h-79l49 276h75l-3 -22h1c19 19 43 29 71 29c31 0 58 -13 74 -33h1c19 21 48 33 81 33
c60 0 101 -38 101 -90z" />
    <glyph glyph-name="N.ccmp" horiz-adv-x="314" 
d="M56 424l48 276h75l-4 -25h1c23 21 50 32 80 32c60 0 96 -35 96 -91c0 -11 -1 -19 -2 -25l-29 -167h-79l28 161c1 3 1 7 1 12c0 24 -17 38 -44 38c-33 0 -59 -25 -66 -60l-26 -151h-79z" />
    <glyph glyph-name="O.ordn" horiz-adv-x="313" 
d="M64 546c0 47 15 85 44 115c29 31 67 46 112 46c38 0 70 -12 95 -37s38 -56 38 -93c0 -90 -68 -160 -156 -160c-38 0 -70 12 -95 37s-38 55 -38 92zM274 577c0 35 -22 58 -55 58c-44 0 -76 -37 -76 -89c0 -35 22 -57 55 -57c44 0 76 37 76 88z" />
    <glyph glyph-name="P.ccmp" horiz-adv-x="322" 
d="M34 303l70 397h74l-3 -18h1c21 15 45 23 72 23c67 0 114 -53 114 -128c0 -88 -65 -160 -150 -160c-29 0 -53 8 -74 25h-1l-24 -139h-79zM283 577c0 33 -22 57 -53 57c-33 0 -64 -25 -69 -57l-10 -58c14 -19 33 -29 57 -29c43 0 75 38 75 87z" />
    <glyph glyph-name="Q.ccmp" horiz-adv-x="314" 
d="M289 700h75l-70 -397h-79l23 136h-1c-16 -13 -36 -19 -60 -19c-68 0 -113 48 -113 123c0 95 63 164 144 164c31 0 57 -9 76 -26h1zM257 543l11 62c-11 20 -30 30 -56 30c-40 0 -69 -35 -69 -87c0 -35 19 -56 50 -56s59 22 64 51z" />
    <glyph glyph-name="R.ccmp" horiz-adv-x="207" 
d="M288 700l-15 -73c-13 3 -25 4 -36 4c-44 0 -71 -31 -84 -103l-19 -104h-79l49 276h73l-4 -25h1c20 20 44 30 73 30c13 0 26 -2 41 -5z" />
    <glyph glyph-name="S.ccmp" horiz-adv-x="297" 
d="M66 514l68 17c9 -37 28 -53 64 -53c28 0 46 11 46 27c0 15 -12 22 -52 33c-67 19 -94 43 -94 86c0 49 45 83 108 83c61 0 107 -30 122 -81l-67 -18c-11 25 -28 38 -57 38c-19 0 -31 -9 -31 -21s11 -19 47 -30c69 -21 96 -46 96 -90c0 -52 -49 -88 -118 -88
c-71 0 -123 38 -132 97z" />
    <glyph glyph-name="T.ccmp" horiz-adv-x="199" 
d="M191 634l-21 -116c-1 -2 -1 -4 -1 -7c0 -9 6 -12 21 -12h37l-14 -75h-27c-68 0 -97 22 -97 70c0 11 1 19 2 26l21 114h-45l12 67h45l12 69h79l-12 -69h70l-11 -67h-71z" />
    <glyph glyph-name="U.ccmp" horiz-adv-x="306" 
d="M278 700h79l-49 -276h-74l3 22h-1c-19 -19 -43 -29 -71 -29c-60 0 -98 35 -98 91c0 5 1 12 2 23l30 169h79l-30 -167c-1 -3 -1 -6 -1 -10c0 -21 15 -34 40 -34c33 0 57 23 64 60z" />
    <glyph glyph-name="V.ccmp" horiz-adv-x="313" 
d="M149 424l-65 276h80l33 -174h1l94 174h92l-163 -276h-72z" />
    <glyph glyph-name="W.ccmp" horiz-adv-x="437" 
d="M105 424l-21 276h79l7 -168h1l86 168h71l26 -168h1l66 168h86l-117 -276h-80l-31 177h-1l-94 -177h-79z" />
    <glyph glyph-name="X.ccmp" horiz-adv-x="318" 
d="M388 700l-128 -137l78 -139h-90l-40 85h-1l-70 -85h-102l127 139l-77 137h89l41 -83h1l70 83h102z" />
    <glyph glyph-name="Y.ccmp" horiz-adv-x="319" 
d="M299 700h91l-240 -397h-87l86 142l-65 255h81l37 -165h1z" />
    <glyph glyph-name="Z.ccmp" horiz-adv-x="279" 
d="M36 424l9 60l173 145v1h-143l13 70h256l-9 -60l-172 -145v-1h149l-12 -70h-264z" />
    <glyph glyph-name="a.salt" horiz-adv-x="531" 
d="M25 125c0 49 16 87 49 115c33 29 89 52 168 71c103 25 134 45 134 85c0 28 -31 47 -76 47c-64 0 -116 -39 -136 -100l-110 33c33 103 129 169 246 169c123 0 195 -60 195 -159c0 -8 -1 -21 -4 -40l-61 -346h-105l8 46h-2c-35 -39 -87 -61 -147 -61
c-97 0 -159 55 -159 140zM344 182l16 90h-2c-15 -17 -42 -30 -97 -45c-88 -24 -121 -49 -121 -90c0 -32 21 -48 64 -48c34 0 65 9 92 27c28 19 44 41 48 66z" />
    <glyph glyph-name="aacute.salt" horiz-adv-x="531" 
d="M25 125c0 49 16 87 49 115c33 29 89 52 168 71c103 25 134 45 134 85c0 28 -31 47 -76 47c-64 0 -116 -39 -136 -100l-110 33c33 103 129 169 246 169c123 0 195 -60 195 -159c0 -8 -1 -21 -4 -40l-61 -346h-105l8 46h-2c-35 -39 -87 -61 -147 -61
c-97 0 -159 55 -159 140zM344 182l16 90h-2c-15 -17 -42 -30 -97 -45c-88 -24 -121 -49 -121 -90c0 -32 21 -48 64 -48c34 0 65 9 92 27c28 19 44 41 48 66zM242 605l109 131h134l-138 -131h-105z" />
    <glyph glyph-name="abreve.salt" horiz-adv-x="531" 
d="M25 125c0 49 16 87 49 115c33 29 89 52 168 71c103 25 134 45 134 85c0 28 -31 47 -76 47c-64 0 -116 -39 -136 -100l-110 33c33 103 129 169 246 169c123 0 195 -60 195 -159c0 -8 -1 -21 -4 -40l-61 -346h-105l8 46h-2c-35 -39 -87 -61 -147 -61
c-97 0 -159 55 -159 140zM344 182l16 90h-2c-15 -17 -42 -30 -97 -45c-88 -24 -121 -49 -121 -90c0 -32 21 -48 64 -48c34 0 65 9 92 27c28 19 44 41 48 66zM183 728h67c4 -35 24 -52 59 -52c41 0 71 17 90 52h67c-23 -84 -80 -133 -163 -133c-71 0 -120 54 -120 133z" />
    <glyph glyph-name="uni01CE.salt" horiz-adv-x="531" 
d="M25 125c0 49 16 87 49 115c33 29 89 52 168 71c103 25 134 45 134 85c0 28 -31 47 -76 47c-64 0 -116 -39 -136 -100l-110 33c33 103 129 169 246 169c123 0 195 -60 195 -159c0 -8 -1 -21 -4 -40l-61 -346h-105l8 46h-2c-35 -39 -87 -61 -147 -61
c-97 0 -159 55 -159 140zM344 182l16 90h-2c-15 -17 -42 -30 -97 -45c-88 -24 -121 -49 -121 -90c0 -32 21 -48 64 -48c34 0 65 9 92 27c28 19 44 41 48 66zM397 733l61 -55l-79 -83h-133l-60 94l71 44l55 -89z" />
    <glyph glyph-name="acircumflex.salt" horiz-adv-x="531" 
d="M25 125c0 49 16 87 49 115c33 29 89 52 168 71c103 25 134 45 134 85c0 28 -31 47 -76 47c-64 0 -116 -39 -136 -100l-110 33c33 103 129 169 246 169c123 0 195 -60 195 -159c0 -8 -1 -21 -4 -40l-61 -346h-105l8 46h-2c-35 -39 -87 -61 -147 -61
c-97 0 -159 55 -159 140zM344 182l16 90h-2c-15 -17 -42 -30 -97 -45c-88 -24 -121 -49 -121 -90c0 -32 21 -48 64 -48c34 0 65 9 92 27c28 19 44 41 48 66zM445 629l-71 -44l-55 90l-86 -90l-60 56l79 82h133z" />
    <glyph glyph-name="uni1EAD.salt" horiz-adv-x="531" 
d="M25 125c0 49 16 87 49 115c33 29 89 52 168 71c103 25 134 45 134 85c0 28 -31 47 -76 47c-64 0 -116 -39 -136 -100l-110 33c33 103 129 169 246 169c123 0 195 -60 195 -159c0 -8 -1 -21 -4 -40l-61 -346h-105l8 46h-2c-35 -39 -87 -61 -147 -61
c-97 0 -159 55 -159 140zM344 182l16 90h-2c-15 -17 -42 -30 -97 -45c-88 -24 -121 -49 -121 -90c0 -32 21 -48 64 -48c34 0 65 9 92 27c28 19 44 41 48 66zM445 629l-71 -44l-55 90l-86 -90l-60 56l79 82h133zM126 -181l20 117h120l-21 -117h-119z" />
    <glyph glyph-name="adieresis.salt" horiz-adv-x="531" 
d="M25 125c0 49 16 87 49 115c33 29 89 52 168 71c103 25 134 45 134 85c0 28 -31 47 -76 47c-64 0 -116 -39 -136 -100l-110 33c33 103 129 169 246 169c123 0 195 -60 195 -159c0 -8 -1 -21 -4 -40l-61 -346h-105l8 46h-2c-35 -39 -87 -61 -147 -61
c-97 0 -159 55 -159 140zM344 182l16 90h-2c-15 -17 -42 -30 -97 -45c-88 -24 -121 -49 -121 -90c0 -32 21 -48 64 -48c34 0 65 9 92 27c28 19 44 41 48 66zM150 595l20 117h120l-21 -117h-119zM349 595l20 117h119l-20 -117h-119z" />
    <glyph glyph-name="uni01DF.salt" horiz-adv-x="531" 
d="M25 125c0 49 16 87 49 115c33 29 89 52 168 71c103 25 134 45 134 85c0 28 -31 47 -76 47c-64 0 -116 -39 -136 -100l-110 33c33 103 129 169 246 169c123 0 195 -60 195 -159c0 -8 -1 -21 -4 -40l-61 -346h-105l8 46h-2c-35 -39 -87 -61 -147 -61
c-97 0 -159 55 -159 140zM344 182l16 90h-2c-15 -17 -42 -30 -97 -45c-88 -24 -121 -49 -121 -90c0 -32 21 -48 64 -48c34 0 65 9 92 27c28 19 44 41 48 66zM150 595l20 117h120l-21 -117h-119zM349 595l20 117h119l-20 -117h-119zM197 752l13 79h301l-13 -79h-301z" />
    <glyph glyph-name="uni1EA1.salt" horiz-adv-x="531" 
d="M25 125c0 49 16 87 49 115c33 29 89 52 168 71c103 25 134 45 134 85c0 28 -31 47 -76 47c-64 0 -116 -39 -136 -100l-110 33c33 103 129 169 246 169c123 0 195 -60 195 -159c0 -8 -1 -21 -4 -40l-61 -346h-105l8 46h-2c-35 -39 -87 -61 -147 -61
c-97 0 -159 55 -159 140zM344 182l16 90h-2c-15 -17 -42 -30 -97 -45c-88 -24 -121 -49 -121 -90c0 -32 21 -48 64 -48c34 0 65 9 92 27c28 19 44 41 48 66zM126 -181l20 117h120l-21 -117h-119z" />
    <glyph glyph-name="agrave.salt" horiz-adv-x="531" 
d="M25 125c0 49 16 87 49 115c33 29 89 52 168 71c103 25 134 45 134 85c0 28 -31 47 -76 47c-64 0 -116 -39 -136 -100l-110 33c33 103 129 169 246 169c123 0 195 -60 195 -159c0 -8 -1 -21 -4 -40l-61 -346h-105l8 46h-2c-35 -39 -87 -61 -147 -61
c-97 0 -159 55 -159 140zM344 182l16 90h-2c-15 -17 -42 -30 -97 -45c-88 -24 -121 -49 -121 -90c0 -32 21 -48 64 -48c34 0 65 9 92 27c28 19 44 41 48 66zM262 605l-93 131h129l63 -131h-99z" />
    <glyph glyph-name="amacron.salt" horiz-adv-x="531" 
d="M25 125c0 49 16 87 49 115c33 29 89 52 168 71c103 25 134 45 134 85c0 28 -31 47 -76 47c-64 0 -116 -39 -136 -100l-110 33c33 103 129 169 246 169c123 0 195 -60 195 -159c0 -8 -1 -21 -4 -40l-61 -346h-105l8 46h-2c-35 -39 -87 -61 -147 -61
c-97 0 -159 55 -159 140zM344 182l16 90h-2c-15 -17 -42 -30 -97 -45c-88 -24 -121 -49 -121 -90c0 -32 21 -48 64 -48c34 0 65 9 92 27c28 19 44 41 48 66zM171 605l13 79h301l-13 -79h-301z" />
    <glyph glyph-name="aogonek.salt" horiz-adv-x="531" 
d="M25 125c0 49 16 87 49 115c33 29 89 52 168 71c103 25 134 45 134 85c0 28 -31 47 -76 47c-64 0 -116 -39 -136 -100l-110 33c33 103 129 169 246 169c123 0 195 -60 195 -159c0 -8 -1 -21 -4 -40l-61 -346h-105l8 46h-2c-35 -39 -87 -61 -147 -61
c-97 0 -159 55 -159 140zM344 182l16 90h-2c-15 -17 -42 -30 -97 -45c-88 -24 -121 -49 -121 -90c0 -32 21 -48 64 -48c34 0 65 9 92 27c28 19 44 41 48 66zM234 -134c0 53 44 103 133 149l50 -15c-56 -32 -92 -72 -92 -104c0 -15 8 -21 27 -21c18 0 37 6 58 17l20 -74
c-37 -17 -70 -26 -101 -26c-61 0 -95 27 -95 74z" />
    <glyph glyph-name="aring.salt" horiz-adv-x="531" 
d="M176 689c0 67 54 115 127 115s127 -48 127 -115c0 -65 -54 -114 -127 -114s-127 47 -127 114zM364 689c0 36 -25 61 -61 61s-61 -25 -61 -61c0 -35 25 -60 61 -60s61 25 61 60zM27 125c0 49 16 87 49 115c33 29 89 52 168 71c103 25 134 45 134 85c0 28 -31 47 -76 47
c-64 0 -116 -39 -136 -100l-110 33c33 103 129 169 246 169c123 0 195 -60 195 -159c0 -8 -1 -21 -4 -40l-61 -346h-105l8 46h-2c-35 -39 -87 -61 -147 -61c-97 0 -159 55 -159 140zM346 182l16 90h-2c-15 -17 -42 -30 -97 -45c-88 -24 -121 -49 -121 -90
c0 -32 21 -48 64 -48c34 0 65 9 92 27c28 19 44 41 48 66z" />
    <glyph glyph-name="aringacute.salt" horiz-adv-x="530" 
d="M176 689c0 52 33 94 84 109l91 109h134l-122 -115c41 -19 67 -56 67 -103c0 -65 -54 -114 -127 -114s-127 47 -127 114zM242 689c0 -35 25 -60 61 -60s61 25 61 60c0 36 -25 61 -61 61s-61 -25 -61 -61zM495 386c0 -8 -1 -21 -4 -40l-61 -346h-105l8 46h-2
c-35 -39 -87 -61 -147 -61c-97 0 -159 55 -159 140c0 49 16 87 49 115c33 29 89 52 168 71c103 25 134 45 134 85c0 28 -31 47 -76 47c-64 0 -116 -39 -136 -100l-110 33c33 103 129 169 246 169c123 0 195 -60 195 -159zM344 182l16 90h-2c-15 -17 -42 -30 -97 -45
c-88 -24 -121 -49 -121 -90c0 -32 21 -48 64 -48c34 0 65 9 92 27c28 19 44 41 48 66z" />
    <glyph glyph-name="atilde.salt" horiz-adv-x="531" 
d="M25 125c0 49 16 87 49 115c33 29 89 52 168 71c103 25 134 45 134 85c0 28 -31 47 -76 47c-64 0 -116 -39 -136 -100l-110 33c33 103 129 169 246 169c123 0 195 -60 195 -159c0 -8 -1 -21 -4 -40l-61 -346h-105l8 46h-2c-35 -39 -87 -61 -147 -61
c-97 0 -159 55 -159 140zM344 182l16 90h-2c-15 -17 -42 -30 -97 -45c-88 -24 -121 -49 -121 -90c0 -32 21 -48 64 -48c34 0 65 9 92 27c28 19 44 41 48 66zM301 623c-16 8 -35 16 -48 16c-19 0 -32 -11 -39 -34h-63c13 68 55 109 108 109c28 0 47 -7 79 -22
c20 -11 36 -16 48 -16c19 0 32 11 40 33h62c-13 -67 -55 -109 -108 -109c-28 0 -50 8 -79 23z" />
    <glyph glyph-name="aring.ss02" horiz-adv-x="531" 
d="M25 125c0 49 16 87 49 115c33 29 89 52 168 71c103 25 134 45 134 85c0 28 -31 47 -76 47c-64 0 -116 -39 -136 -100l-110 33c33 103 129 169 246 169c123 0 195 -60 195 -159c0 -8 -1 -21 -4 -40l-61 -346h-105l8 46h-2c-35 -39 -87 -61 -147 -61
c-97 0 -159 55 -159 140zM344 182l16 90h-2c-15 -17 -42 -30 -97 -45c-88 -24 -121 -49 -121 -90c0 -32 21 -48 64 -48c34 0 65 9 92 27c28 19 44 41 48 66zM159 612c0 73 58 127 141 127c81 0 141 -54 141 -127s-60 -127 -141 -127c-83 0 -141 54 -141 127zM368 612
c0 40 -28 67 -68 67s-68 -27 -68 -67c0 -39 28 -67 68 -67s68 28 68 67z" />
    <glyph glyph-name="aringacute.ss02" horiz-adv-x="531" 
d="M244 712l109 131h134l-138 -131h-105zM25 125c0 49 16 87 49 115c33 29 89 52 168 71c103 25 134 45 134 85c0 28 -31 47 -76 47c-64 0 -116 -39 -136 -100l-110 33c33 103 129 169 246 169c123 0 195 -60 195 -159c0 -8 -1 -21 -4 -40l-61 -346h-105l8 46h-2
c-35 -39 -87 -61 -147 -61c-97 0 -159 55 -159 140zM344 182l16 90h-2c-15 -17 -42 -30 -97 -45c-88 -24 -121 -49 -121 -90c0 -32 21 -48 64 -48c34 0 65 9 92 27c28 19 44 41 48 66zM159 612c0 73 58 127 141 127c81 0 141 -54 141 -127s-60 -127 -141 -127
c-83 0 -141 54 -141 127zM368 612c0 40 -28 67 -68 67s-68 -27 -68 -67c0 -39 28 -67 68 -67s68 28 68 67z" />
    <glyph glyph-name="f.ss03" horiz-adv-x="356" 
d="M62 0l75 421h-99l19 109h99l10 60c15 88 73 133 169 133h98l-20 -110h-75c-33 0 -48 -12 -53 -45l-7 -38h103l-19 -109h-103l-75 -421h-122z" />
    <glyph glyph-name="j.ss03" horiz-adv-x="233" 
d="M115 620l22 123h127l-22 -123h-127zM-27 -225l133 755h122l-133 -755h-122z" />
    <glyph glyph-name="t.ss03" horiz-adv-x="365" 
d="M257 421l-46 -261c-1 -4 -1 -9 -1 -15c0 -20 10 -28 45 -28h57l-20 -117h-58c-100 0 -150 43 -150 119c0 14 1 27 4 40l47 262h-97l19 109h97l23 129h122l-23 -129h111l-19 -109h-111z" />
    <glyph glyph-name="ordfeminine" unicode="&#xaa;" horiz-adv-x="314" 
d="M64 546c0 87 61 161 144 161c31 0 56 -8 77 -25h1l4 18h75l-49 -276h-71l4 24h-1c-13 -17 -41 -28 -69 -28c-65 0 -115 51 -115 126zM257 543l11 62c-11 19 -30 30 -55 30c-39 0 -70 -37 -70 -86c0 -36 19 -57 51 -57c29 0 58 22 63 51z" />
    <glyph glyph-name="ordmasculine" unicode="&#xba;" horiz-adv-x="313" 
d="M64 546c0 47 15 85 44 115c29 31 67 46 112 46c38 0 70 -12 95 -37s38 -56 38 -93c0 -90 -68 -160 -156 -160c-38 0 -70 12 -95 37s-38 55 -38 92zM274 577c0 35 -22 58 -55 58c-44 0 -76 -37 -76 -89c0 -35 22 -57 55 -57c44 0 76 37 76 88z" />
    <glyph glyph-name="uni0394" unicode="&#x394;" horiz-adv-x="616" 
d="M443 700l128 -700h-620l375 700h117zM142 114h286l-70 410h-2z" />
    <glyph glyph-name="uni03A9" unicode="&#x3a9;" horiz-adv-x="683" 
d="M524 97v-2h92l-17 -95h-260l15 88c110 30 185 166 185 325c0 115 -56 185 -147 185c-124 0 -218 -137 -218 -318c0 -94 34 -157 103 -190l-15 -90h-243l16 95h96v2c-52 44 -82 115 -82 199c-3 232 149 423 346 419c156 2 274 -129 271 -285c0 -153 -54 -276 -142 -333z
" />
    <glyph glyph-name="uni03BC" unicode="&#x3bc;" horiz-adv-x="565" 
d="M-32 -225l134 755h123l-62 -347c-1 -8 -2 -14 -2 -18c0 -41 34 -66 87 -66c67 0 118 46 131 115l56 316h122l-93 -530h-117l8 47h-2c-27 -37 -76 -62 -124 -62c-41 0 -72 11 -93 33h-2l-43 -243h-123z" />
    <glyph glyph-name="pi" unicode="&#x3c0;" 
d="M541 418l-45 -254c-1 -9 -2 -15 -2 -18c0 -21 11 -29 46 -29h56l-20 -117h-58c-97 0 -150 41 -150 120c0 13 1 26 4 39l46 259h-141l-74 -418h-122l74 418h-118l20 112h617l-20 -112h-113z" />
    <glyph glyph-name="zero" unicode="0" horiz-adv-x="656" 
d="M45 271c-3 237 142 420 331 416c159 0 261 -114 261 -285c3 -237 -143 -421 -332 -417c-159 0 -260 112 -260 286zM515 402c0 108 -53 173 -138 173c-117 0 -210 -135 -210 -304c0 -108 52 -174 136 -174c115 -3 214 138 212 305z" />
    <glyph glyph-name="one" unicode="1" horiz-adv-x="404" 
d="M145 0l93 525l-179 -98l23 142l190 103h114l-118 -672h-123z" />
    <glyph glyph-name="two" unicode="2" horiz-adv-x="614" 
d="M605 507c0 -110 -64 -178 -248 -252c-156 -66 -167 -73 -187 -143h359l-19 -112h-492l17 97c25 129 73 171 252 247c148 59 196 98 196 158c0 43 -42 73 -106 73c-93 0 -153 -49 -177 -140l-118 22c15 71 49 127 102 168s117 62 192 62c134 0 229 -73 229 -180z" />
    <glyph glyph-name="three" unicode="3" horiz-adv-x="613" 
d="M31 227l121 13c6 -95 53 -143 142 -143c79 0 137 49 137 117c0 59 -37 87 -118 87h-57l16 99h52c39 0 72 10 99 30s41 45 41 74c0 44 -36 71 -96 71c-75 0 -132 -40 -156 -109l-113 36c39 113 143 185 272 185c123 0 215 -71 215 -167c0 -73 -42 -131 -122 -163v-2
c57 -27 89 -77 89 -142c0 -131 -112 -228 -258 -228c-154 0 -260 94 -264 242z" />
    <glyph glyph-name="four" unicode="4" horiz-adv-x="597" 
d="M316 0l23 124h-355l17 113l355 435h202l-78 -434h88l-19 -114h-87l-23 -124h-123zM134 238h224l63 346h-2z" />
    <glyph glyph-name="five" unicode="5" horiz-adv-x="601" 
d="M17 178l116 32c20 -79 62 -113 141 -113c96 0 170 70 170 156c0 60 -44 98 -115 98c-59 0 -113 -21 -162 -63l-109 34l117 350h399l-19 -112h-299l-49 -143l2 -1c40 23 90 36 137 36c135 0 220 -77 220 -200c3 -145 -131 -270 -292 -267c-141 0 -234 73 -257 193z" />
    <glyph glyph-name="six" unicode="6" horiz-adv-x="617" 
d="M40 244c-4 246 156 447 351 443c124 0 212 -68 233 -179l-118 -26c-15 63 -51 93 -116 93c-92 0 -167 -70 -203 -189h2c43 39 104 62 168 62c134 0 228 -81 228 -200c3 -145 -128 -265 -283 -263c-160 0 -262 100 -262 259zM464 249c0 60 -48 100 -119 100
c-91 0 -169 -67 -169 -147c0 -64 50 -105 125 -105c93 0 163 67 163 152z" />
    <glyph glyph-name="seven" unicode="7" horiz-adv-x="522" 
d="M40 3l366 558v1h-341l19 113h484l-15 -104l-369 -568h-144z" />
    <glyph glyph-name="eight" unicode="8" horiz-adv-x="593" 
d="M6 180c0 89 66 163 166 192v2c-43 23 -72 71 -72 119c0 109 108 194 259 194c129 0 222 -73 222 -169c0 -67 -40 -119 -120 -154v-3c63 -33 101 -87 101 -155c0 -127 -127 -221 -298 -221c-155 0 -258 79 -258 195zM457 508c0 44 -42 73 -103 73c-77 0 -132 -41 -132 -96
c0 -47 41 -75 102 -75c79 0 133 42 133 98zM431 219c0 55 -51 89 -131 89c-95 0 -164 -47 -164 -114c0 -56 52 -91 133 -91c95 0 162 47 162 116z" />
    <glyph glyph-name="nine" unicode="9" horiz-adv-x="605" 
d="M36 158l117 32c20 -68 50 -92 113 -92c83 0 146 67 177 179h-2c-40 -35 -91 -52 -154 -52c-135 0 -229 86 -229 209c0 143 122 253 285 253c149 0 247 -96 247 -246c3 -262 -134 -459 -323 -456c-125 0 -206 62 -231 173zM462 473c0 61 -49 101 -121 101
c-91 0 -159 -59 -159 -139c0 -65 44 -104 117 -104c93 0 163 61 163 142z" />
    <glyph glyph-name="zero.ccmp" horiz-adv-x="656" 
d="M47 279c-3 247 145 440 334 436c159 0 259 -115 259 -294c3 -247 -146 -440 -335 -436c-158 0 -258 113 -258 294zM513 422c0 111 -49 176 -132 176c-113 4 -209 -143 -207 -320c0 -111 48 -176 131 -176c117 0 208 141 208 320z" />
    <glyph glyph-name="one.ccmp" horiz-adv-x="410" 
d="M146 0l97 547l-181 -103l24 149l192 107h119l-124 -700h-127z" />
    <glyph glyph-name="two.ccmp" horiz-adv-x="616" 
d="M611 530c0 -116 -64 -186 -250 -266c-152 -66 -161 -75 -183 -147h356l-21 -117h-495l18 101c28 134 76 177 254 257c149 63 194 102 194 165c0 45 -40 76 -101 76c-92 0 -152 -51 -176 -146l-122 23c33 148 146 239 298 239c133 0 228 -77 228 -185z" />
    <glyph glyph-name="three.ccmp" horiz-adv-x="617" 
d="M33 237l125 14c5 -99 52 -149 139 -149c77 0 134 50 134 122c0 59 -38 89 -114 89h-58l17 104h52c77 0 138 48 138 109c0 45 -36 74 -92 74c-73 0 -130 -42 -155 -114l-116 38c39 117 143 191 274 191c123 0 216 -74 216 -172c0 -77 -42 -138 -122 -171v-2
c56 -28 87 -81 87 -146c0 -137 -112 -239 -261 -239c-157 0 -260 96 -264 252z" />
    <glyph glyph-name="four.ccmp" horiz-adv-x="599" 
d="M315 0l24 134h-355l19 115l354 451h209l-80 -451h87l-20 -115h-87l-24 -134h-127zM141 249h218l64 359h-2z" />
    <glyph glyph-name="five.ccmp" horiz-adv-x="604" 
d="M19 187l121 33c19 -83 60 -118 137 -118c95 0 168 74 168 163c0 63 -43 100 -112 100c-58 0 -111 -22 -159 -65l-114 35l120 365h402l-21 -116h-298l-48 -150l2 -1c39 24 88 37 135 37c135 0 220 -78 220 -205c3 -153 -132 -283 -295 -280c-143 0 -235 77 -258 202z" />
    <glyph glyph-name="six.ccmp" horiz-adv-x="617" 
d="M42 250c-4 258 157 470 354 465c124 0 212 -70 233 -186l-120 -26c-15 67 -51 98 -115 98c-91 0 -165 -74 -202 -199h2c43 40 104 65 167 65c135 0 227 -84 227 -206c2 -151 -129 -279 -285 -276c-81 0 -144 24 -191 71s-70 112 -70 194zM464 261c0 61 -47 104 -116 104
c-90 0 -168 -70 -168 -157c0 -67 47 -109 123 -109c92 0 161 72 161 162z" />
    <glyph glyph-name="seven.ccmp" horiz-adv-x="524" 
d="M39 0l367 581v2h-338l21 117h487l-18 -108l-370 -592h-149z" />
    <glyph glyph-name="eight.ccmp" horiz-adv-x="596" 
d="M7 187c0 93 66 171 166 202v2c-40 25 -70 74 -70 122c0 114 110 202 263 202c128 0 221 -74 221 -175c0 -70 -40 -124 -120 -161v-2c63 -35 99 -90 99 -161c0 -132 -128 -231 -301 -231c-153 0 -258 83 -258 202zM460 529c0 45 -41 75 -101 75c-76 0 -130 -43 -130 -99
c0 -48 40 -77 101 -77c76 0 130 44 130 101zM431 229c0 57 -50 94 -127 94c-93 0 -162 -52 -162 -122c0 -56 50 -93 129 -93c95 0 160 49 160 121z" />
    <glyph glyph-name="nine.ccmp" horiz-adv-x="604" 
d="M37 167l117 30c19 -72 50 -98 113 -98c83 0 146 72 178 192h-2c-39 -37 -91 -56 -155 -56c-135 0 -227 90 -227 216c0 149 124 264 287 264c147 0 245 -98 245 -248c2 -277 -137 -486 -326 -482c-127 0 -206 65 -230 182zM465 495c0 64 -48 106 -120 106
c-90 0 -160 -65 -160 -149c0 -69 44 -109 116 -109c95 0 164 66 164 152z" />
    <glyph glyph-name="zero.tnum" 
d="M43 279c-3 247 145 440 334 436c159 0 259 -115 259 -294c3 -247 -146 -440 -335 -436c-158 0 -258 113 -258 294zM509 422c0 111 -49 176 -132 176c-113 4 -209 -143 -207 -320c0 -111 48 -176 131 -176c117 0 208 141 208 320z" />
    <glyph glyph-name="one.tnum" 
d="M372 116h157l-20 -116h-461l20 116h177l76 431l-181 -103l24 149l192 107h119z" />
    <glyph glyph-name="two.tnum" 
d="M628 530c0 -116 -64 -186 -250 -266c-152 -66 -161 -75 -183 -147h356l-21 -117h-495l18 101c28 134 76 177 254 257c149 63 194 102 194 165c0 45 -40 76 -101 76c-92 0 -152 -51 -176 -146l-122 23c33 148 146 239 298 239c133 0 228 -77 228 -185z" />
    <glyph glyph-name="three.tnum" 
d="M54 237l125 14c5 -99 52 -149 139 -149c77 0 134 50 134 122c0 59 -38 89 -114 89h-58l17 104h52c77 0 138 48 138 109c0 45 -36 74 -92 74c-73 0 -130 -42 -155 -114l-116 38c39 117 143 191 274 191c123 0 216 -74 216 -172c0 -77 -42 -138 -122 -171v-2
c56 -28 87 -81 87 -146c0 -137 -112 -239 -261 -239c-157 0 -260 96 -264 252z" />
    <glyph glyph-name="four.tnum" 
d="M348 0l24 134h-355l19 115l354 451h209l-80 -451h87l-20 -115h-87l-24 -134h-127zM174 249h218l64 359h-2z" />
    <glyph glyph-name="five.tnum" 
d="M39 187l121 33c19 -83 60 -118 137 -118c95 0 168 74 168 163c0 63 -43 100 -112 100c-58 0 -111 -22 -159 -65l-114 35l120 365h402l-21 -116h-298l-48 -150l2 -1c39 24 88 37 135 37c135 0 220 -78 220 -205c3 -153 -132 -283 -295 -280c-143 0 -235 77 -258 202z" />
    <glyph glyph-name="six.tnum" 
d="M54 250c-4 258 157 470 354 465c124 0 212 -70 233 -186l-120 -26c-15 67 -51 98 -115 98c-91 0 -165 -74 -202 -199h2c43 40 104 65 167 65c135 0 227 -84 227 -206c2 -151 -129 -279 -285 -276c-81 0 -144 24 -191 71s-70 112 -70 194zM476 261c0 61 -47 104 -116 104
c-90 0 -168 -70 -168 -157c0 -67 47 -109 123 -109c92 0 161 72 161 162z" />
    <glyph glyph-name="seven.tnum" 
d="M108 0l367 581v2h-338l21 117h487l-18 -108l-370 -592h-149z" />
    <glyph glyph-name="eight.tnum" 
d="M37 187c0 93 66 171 166 202v2c-40 25 -70 74 -70 122c0 114 110 202 263 202c128 0 221 -74 221 -175c0 -70 -40 -124 -120 -161v-2c63 -35 99 -90 99 -161c0 -132 -128 -231 -301 -231c-153 0 -258 83 -258 202zM490 529c0 45 -41 75 -101 75c-76 0 -130 -43 -130 -99
c0 -48 40 -77 101 -77c76 0 130 44 130 101zM461 229c0 57 -50 94 -127 94c-93 0 -162 -52 -162 -122c0 -56 50 -93 129 -93c95 0 160 49 160 121z" />
    <glyph glyph-name="nine.tnum" 
d="M65 167l117 30c19 -72 50 -98 113 -98c83 0 146 72 178 192h-2c-39 -37 -91 -56 -155 -56c-135 0 -227 90 -227 216c0 149 124 264 287 264c147 0 245 -98 245 -248c2 -277 -137 -486 -326 -482c-127 0 -206 65 -230 182zM493 495c0 64 -48 106 -120 106
c-90 0 -160 -65 -160 -149c0 -69 44 -109 116 -109c95 0 164 66 164 152z" />
    <glyph glyph-name="zero.zero" horiz-adv-x="656" 
d="M637 402c3 -237 -143 -421 -332 -417c-159 0 -260 112 -260 286c-3 237 142 420 331 416c159 0 261 -114 261 -285zM165 270c0 -37 6 -69 18 -95l252 389c-17 8 -36 12 -58 12c-115 4 -214 -139 -212 -306zM516 403c0 41 -8 76 -23 105l-257 -395c21 -11 43 -17 67 -17
c118 0 213 137 213 307z" />
    <glyph glyph-name="zero.ordn" horiz-adv-x="656" 
d="M640 421c3 -247 -146 -440 -335 -436c-158 0 -258 113 -258 294c-3 247 145 440 334 436c159 0 259 -115 259 -294zM170 277c0 -37 5 -69 15 -95l263 405c-19 11 -41 17 -66 17c-117 3 -214 -146 -212 -327zM517 423c0 38 -6 71 -17 99l-264 -407c20 -13 43 -19 68 -19
c119 0 213 145 213 327z" />
    <glyph glyph-name="zero.tnum_zero" 
d="M637 421c3 -247 -146 -440 -335 -436c-158 0 -258 113 -258 294c-3 247 145 440 334 436c159 0 259 -115 259 -294zM167 277c0 -37 5 -69 15 -95l263 405c-19 11 -41 17 -66 17c-117 3 -214 -146 -212 -327zM514 423c0 38 -6 71 -17 99l-264 -407c20 -13 43 -19 68 -19
c119 0 213 145 213 327z" />
    <glyph glyph-name="zero.subs" horiz-adv-x="428" 
d="M-10 20c0 147 91 260 211 260c101 0 167 -70 167 -178c0 -145 -91 -260 -212 -260c-101 0 -166 70 -166 178zM276 103c0 59 -27 92 -74 92c-67 0 -120 -78 -120 -176c0 -59 27 -92 74 -92c66 0 120 78 120 176z" />
    <glyph glyph-name="one.subs" horiz-adv-x="285" 
d="M54 -149l56 318l-113 -61l16 100l120 63h87l-74 -420h-92z" />
    <glyph glyph-name="two.subs" horiz-adv-x="380" 
d="M82 -63h210l-15 -86h-313l11 65c14 80 47 113 157 157c81 32 109 54 109 83c0 25 -21 42 -56 42c-45 0 -81 -32 -90 -80l-90 17c16 88 89 145 180 145c88 0 148 -53 148 -124c0 -64 -41 -107 -150 -151c-82 -33 -92 -38 -101 -68z" />
    <glyph glyph-name="three.subs" horiz-adv-x="376" 
d="M-25 -6l90 10c5 -55 27 -79 72 -79c41 0 71 25 71 60c0 29 -20 46 -56 46h-41l13 73h33c40 0 72 25 72 56c0 23 -20 38 -51 38c-39 0 -68 -23 -81 -66l-87 26c24 76 89 122 172 122c79 0 136 -47 136 -111c0 -44 -26 -78 -71 -97v-1c33 -17 52 -50 52 -86
c0 -80 -72 -143 -162 -143c-96 0 -159 60 -162 152z" />
    <glyph glyph-name="four.subs" horiz-adv-x="394" 
d="M165 -149l12 68h-225l13 86l212 266h154l-48 -268h54l-15 -84h-53l-12 -68h-92zM65 3h127l36 205h-1z" />
    <glyph glyph-name="five.subs" horiz-adv-x="389" 
d="M-26 -42l86 26c12 -39 36 -57 79 -57c48 0 86 37 86 82c0 33 -24 53 -61 53c-30 0 -58 -13 -85 -38l-80 28l71 219h250l-15 -84h-175l-22 -68h1c21 11 46 17 73 17c79 0 135 -51 135 -127c0 -93 -80 -167 -181 -167c-85 0 -147 49 -162 116z" />
    <glyph glyph-name="six.subs" horiz-adv-x="400" 
d="M-12 9c0 153 93 271 214 271c72 0 127 -41 142 -108l-86 -21c-8 31 -27 45 -60 45c-45 0 -87 -38 -102 -97h1c23 19 58 32 91 32c84 0 139 -50 139 -127c0 -90 -78 -162 -172 -162c-103 0 -167 66 -167 167zM236 4c0 32 -24 53 -61 53c-48 0 -85 -35 -85 -76
c0 -33 24 -55 65 -55c45 0 81 37 81 78z" />
    <glyph glyph-name="seven.subs" horiz-adv-x="313" 
d="M-33 -149l214 333v1h-193l15 86h306l-13 -78l-217 -342h-112z" />
    <glyph glyph-name="eight.subs" horiz-adv-x="396" 
d="M-23 -34c0 55 37 100 98 119v1c-27 17 -42 44 -42 72c0 71 64 122 160 122c81 0 138 -51 138 -106c0 -43 -22 -72 -67 -97v-1c35 -20 55 -55 55 -95c0 -77 -81 -139 -179 -139c-97 0 -163 51 -163 124zM246 166c0 24 -22 40 -57 40c-41 0 -72 -24 -72 -55
c0 -25 21 -40 56 -40c41 0 73 24 73 55zM229 -8c0 28 -29 49 -69 49c-51 0 -91 -31 -91 -68c0 -32 27 -50 71 -50c52 0 89 28 89 69z" />
    <glyph glyph-name="nine.subs" horiz-adv-x="395" 
d="M-8 -46l86 18c7 -36 24 -50 59 -50c43 0 78 36 94 95h-1c-22 -17 -49 -25 -81 -25c-85 0 -144 54 -144 131c0 89 77 157 176 157c95 0 157 -61 157 -154c0 -169 -81 -284 -201 -284c-79 0 -134 44 -145 112zM244 146c0 33 -24 54 -63 54c-48 0 -85 -34 -85 -77
c0 -33 24 -54 63 -54c48 0 85 34 85 77z" />
    <glyph glyph-name="zero.dnom" horiz-adv-x="428" 
d="M15 169c0 147 91 260 211 260c101 0 167 -70 167 -178c0 -145 -91 -260 -212 -260c-101 0 -166 70 -166 178zM301 252c0 59 -27 92 -74 92c-67 0 -120 -78 -120 -176c0 -59 27 -92 74 -92c66 0 120 78 120 176z" />
    <glyph glyph-name="one.dnom" horiz-adv-x="285" 
d="M79 0l56 318l-113 -61l16 100l120 63h87l-74 -420h-92z" />
    <glyph glyph-name="two.dnom" horiz-adv-x="380" 
d="M107 86h210l-15 -86h-313l11 65c14 80 47 113 157 157c81 32 109 54 109 83c0 25 -21 42 -56 42c-45 0 -81 -32 -90 -80l-90 17c16 88 89 145 180 145c88 0 148 -53 148 -124c0 -64 -41 -107 -150 -151c-82 -33 -92 -38 -101 -68z" />
    <glyph glyph-name="three.dnom" horiz-adv-x="376" 
d="M0 143l90 10c5 -55 27 -79 72 -79c41 0 71 25 71 60c0 29 -20 46 -56 46h-41l13 73h33c40 0 72 25 72 56c0 23 -20 38 -51 38c-39 0 -68 -23 -81 -66l-87 26c24 76 89 122 172 122c79 0 136 -47 136 -111c0 -44 -26 -78 -71 -97v-1c33 -17 52 -50 52 -86
c0 -80 -72 -143 -162 -143c-96 0 -159 60 -162 152z" />
    <glyph glyph-name="four.dnom" horiz-adv-x="394" 
d="M190 0l12 68h-225l13 86l212 266h154l-48 -268h54l-15 -84h-53l-12 -68h-92zM90 152h127l36 205h-1z" />
    <glyph glyph-name="five.dnom" horiz-adv-x="389" 
d="M-1 107l86 26c12 -39 36 -57 79 -57c48 0 86 37 86 82c0 33 -24 53 -61 53c-30 0 -58 -13 -85 -38l-80 28l71 219h250l-15 -84h-175l-22 -68h1c21 11 46 17 73 17c79 0 135 -51 135 -127c0 -93 -80 -167 -181 -167c-85 0 -147 49 -162 116z" />
    <glyph glyph-name="six.dnom" horiz-adv-x="400" 
d="M13 158c0 153 93 271 214 271c72 0 127 -41 142 -108l-86 -21c-8 31 -27 45 -60 45c-45 0 -87 -38 -102 -97h1c23 19 58 32 91 32c84 0 139 -50 139 -127c0 -90 -78 -162 -172 -162c-103 0 -167 66 -167 167zM261 153c0 32 -24 53 -61 53c-48 0 -85 -35 -85 -76
c0 -33 24 -55 65 -55c45 0 81 37 81 78z" />
    <glyph glyph-name="seven.dnom" horiz-adv-x="313" 
d="M-8 0l214 333v1h-193l15 86h306l-13 -78l-217 -342h-112z" />
    <glyph glyph-name="eight.dnom" horiz-adv-x="396" 
d="M2 115c0 55 37 100 98 119v1c-27 17 -42 44 -42 72c0 71 64 122 160 122c81 0 138 -51 138 -106c0 -43 -22 -72 -67 -97v-1c35 -20 55 -55 55 -95c0 -77 -81 -139 -179 -139c-97 0 -163 51 -163 124zM271 315c0 24 -22 40 -57 40c-41 0 -72 -24 -72 -55
c0 -25 21 -40 56 -40c41 0 73 24 73 55zM254 141c0 28 -29 49 -69 49c-51 0 -91 -31 -91 -68c0 -32 27 -50 71 -50c52 0 89 28 89 69z" />
    <glyph glyph-name="nine.dnom" horiz-adv-x="395" 
d="M17 103l86 18c7 -36 24 -50 59 -50c43 0 78 36 94 95h-1c-22 -17 -49 -25 -81 -25c-85 0 -144 54 -144 131c0 89 77 157 176 157c95 0 157 -61 157 -154c0 -169 -81 -284 -201 -284c-79 0 -134 44 -145 112zM269 295c0 33 -24 54 -63 54c-48 0 -85 -34 -85 -77
c0 -33 24 -54 63 -54c48 0 85 34 85 77z" />
    <glyph glyph-name="zero.numr" horiz-adv-x="428" 
d="M64 449c0 147 91 260 211 260c101 0 167 -70 167 -178c0 -145 -91 -260 -212 -260c-101 0 -166 70 -166 178zM350 532c0 59 -27 92 -74 92c-67 0 -120 -78 -120 -176c0 -59 27 -92 74 -92c66 0 120 78 120 176z" />
    <glyph glyph-name="one.numr" horiz-adv-x="285" 
d="M128 280l56 318l-113 -61l16 100l120 63h87l-74 -420h-92z" />
    <glyph glyph-name="two.numr" horiz-adv-x="380" 
d="M156 366h210l-15 -86h-313l11 65c14 80 47 113 157 157c81 32 109 54 109 83c0 25 -21 42 -56 42c-45 0 -81 -32 -90 -80l-90 17c16 88 89 145 180 145c88 0 148 -53 148 -124c0 -64 -41 -107 -150 -151c-82 -33 -92 -38 -101 -68z" />
    <glyph glyph-name="three.numr" horiz-adv-x="376" 
d="M49 423l90 10c5 -55 27 -79 72 -79c41 0 71 25 71 60c0 29 -20 46 -56 46h-41l13 73h33c40 0 72 25 72 56c0 23 -20 38 -51 38c-39 0 -68 -23 -81 -66l-87 26c24 76 89 122 172 122c79 0 136 -47 136 -111c0 -44 -26 -78 -71 -97v-1c33 -17 52 -50 52 -86
c0 -80 -72 -143 -162 -143c-96 0 -159 60 -162 152z" />
    <glyph glyph-name="four.numr" horiz-adv-x="394" 
d="M239 280l12 68h-225l13 86l212 266h154l-48 -268h54l-15 -84h-53l-12 -68h-92zM139 432h127l36 205h-1z" />
    <glyph glyph-name="five.numr" horiz-adv-x="389" 
d="M48 387l86 26c12 -39 36 -57 79 -57c48 0 86 37 86 82c0 33 -24 53 -61 53c-30 0 -58 -13 -85 -38l-80 28l71 219h250l-15 -84h-175l-22 -68h1c21 11 46 17 73 17c79 0 135 -51 135 -127c0 -93 -80 -167 -181 -167c-85 0 -147 49 -162 116z" />
    <glyph glyph-name="six.numr" horiz-adv-x="401" 
d="M62 438c0 153 93 271 214 271c72 0 127 -41 142 -108l-86 -21c-8 31 -27 45 -60 45c-45 0 -87 -38 -102 -97h1c23 19 58 32 91 32c84 0 139 -50 139 -127c0 -90 -78 -162 -172 -162c-103 0 -167 66 -167 167zM310 433c0 32 -24 53 -61 53c-48 0 -85 -35 -85 -76
c0 -33 24 -55 65 -55c45 0 81 37 81 78z" />
    <glyph glyph-name="seven.numr" horiz-adv-x="313" 
d="M41 280l214 333v1h-193l15 86h306l-13 -78l-217 -342h-112z" />
    <glyph glyph-name="eight.numr" horiz-adv-x="396" 
d="M51 395c0 55 37 100 98 119v1c-27 17 -42 44 -42 72c0 71 64 122 160 122c81 0 138 -51 138 -106c0 -43 -22 -72 -67 -97v-1c35 -20 55 -55 55 -95c0 -77 -81 -139 -179 -139c-97 0 -163 51 -163 124zM320 595c0 24 -22 40 -57 40c-41 0 -72 -24 -72 -55
c0 -25 21 -40 56 -40c41 0 73 24 73 55zM303 421c0 28 -29 49 -69 49c-51 0 -91 -31 -91 -68c0 -32 27 -50 71 -50c52 0 89 28 89 69z" />
    <glyph glyph-name="nine.numr" horiz-adv-x="395" 
d="M66 383l86 18c7 -36 24 -50 59 -50c43 0 78 36 94 95h-1c-22 -17 -49 -25 -81 -25c-85 0 -144 54 -144 131c0 89 77 157 176 157c95 0 157 -61 157 -154c0 -169 -81 -284 -201 -284c-79 0 -134 44 -145 112zM318 575c0 33 -24 54 -63 54c-48 0 -85 -34 -85 -77
c0 -33 24 -54 63 -54c48 0 85 34 85 77z" />
    <glyph glyph-name="zero.sups" horiz-adv-x="428" 
d="M82 549c0 147 91 260 211 260c101 0 167 -70 167 -178c0 -145 -91 -260 -212 -260c-101 0 -166 70 -166 178zM368 632c0 59 -27 92 -74 92c-67 0 -120 -78 -120 -176c0 -59 27 -92 74 -92c66 0 120 78 120 176z" />
    <glyph glyph-name="one.sups" horiz-adv-x="285" 
d="M146 380l56 318l-113 -61l16 100l120 63h87l-74 -420h-92z" />
    <glyph glyph-name="two.sups" horiz-adv-x="380" 
d="M174 466h210l-15 -86h-313l11 65c14 80 47 113 157 157c81 32 109 54 109 83c0 25 -21 42 -56 42c-45 0 -81 -32 -90 -80l-90 17c16 88 89 145 180 145c88 0 148 -53 148 -124c0 -64 -41 -107 -150 -151c-82 -33 -92 -38 -101 -68z" />
    <glyph glyph-name="three.sups" horiz-adv-x="376" 
d="M67 523l90 10c5 -55 27 -79 72 -79c41 0 71 25 71 60c0 29 -20 46 -56 46h-41l13 73h33c40 0 72 25 72 56c0 23 -20 38 -51 38c-39 0 -68 -23 -81 -66l-87 26c24 76 89 122 172 122c79 0 136 -47 136 -111c0 -44 -26 -78 -71 -97v-1c33 -17 52 -50 52 -86
c0 -80 -72 -143 -162 -143c-96 0 -159 60 -162 152z" />
    <glyph glyph-name="four.sups" horiz-adv-x="394" 
d="M257 380l12 68h-225l13 86l212 266h154l-48 -268h54l-15 -84h-53l-12 -68h-92zM157 532h127l36 205h-1z" />
    <glyph glyph-name="five.sups" horiz-adv-x="389" 
d="M66 487l86 26c12 -39 36 -57 79 -57c48 0 86 37 86 82c0 33 -24 53 -61 53c-30 0 -58 -13 -85 -38l-80 28l71 219h250l-15 -84h-175l-22 -68h1c21 11 46 17 73 17c79 0 135 -51 135 -127c0 -93 -80 -167 -181 -167c-85 0 -147 49 -162 116z" />
    <glyph glyph-name="six.sups" horiz-adv-x="400" 
d="M80 538c0 153 93 271 214 271c72 0 127 -41 142 -108l-86 -21c-8 31 -27 45 -60 45c-45 0 -87 -38 -102 -97h1c23 19 58 32 91 32c84 0 139 -50 139 -127c0 -90 -78 -162 -172 -162c-103 0 -167 66 -167 167zM328 533c0 32 -24 53 -61 53c-48 0 -85 -35 -85 -76
c0 -33 24 -55 65 -55c45 0 81 37 81 78z" />
    <glyph glyph-name="seven.sups" horiz-adv-x="313" 
d="M59 380l214 333v1h-193l15 86h306l-13 -78l-217 -342h-112z" />
    <glyph glyph-name="eight.sups" horiz-adv-x="396" 
d="M69 495c0 55 37 100 98 119v1c-27 17 -42 44 -42 72c0 71 64 122 160 122c81 0 138 -51 138 -106c0 -43 -22 -72 -67 -97v-1c35 -20 55 -55 55 -95c0 -77 -81 -139 -179 -139c-97 0 -163 51 -163 124zM338 695c0 24 -22 40 -57 40c-41 0 -72 -24 -72 -55
c0 -25 21 -40 56 -40c41 0 73 24 73 55zM321 521c0 28 -29 49 -69 49c-51 0 -91 -31 -91 -68c0 -32 27 -50 71 -50c52 0 89 28 89 69z" />
    <glyph glyph-name="nine.sups" horiz-adv-x="395" 
d="M84 483l86 18c7 -36 24 -50 59 -50c43 0 78 36 94 95h-1c-22 -17 -49 -25 -81 -25c-85 0 -144 54 -144 131c0 89 77 157 176 157c95 0 157 -61 157 -154c0 -169 -81 -284 -201 -284c-79 0 -134 44 -145 112zM336 675c0 33 -24 54 -63 54c-48 0 -85 -34 -85 -77
c0 -33 24 -54 63 -54c48 0 85 34 85 77z" />
    <glyph glyph-name="fraction" unicode="&#x2044;" horiz-adv-x="208" 
d="M-160 -78l-69 48l628 807l68 -50z" />
    <glyph glyph-name="onehalf" unicode="&#xbd;" horiz-adv-x="873" 
d="M128 280l56 318l-113 -61l16 100l120 63h87l-74 -420h-92zM125 -78l-69 48l628 807l68 -50zM600 86h210l-15 -86h-313l11 65c14 80 47 113 157 157c81 32 109 54 109 83c0 25 -21 42 -56 42c-45 0 -81 -32 -90 -80l-90 17c16 88 89 145 180 145c88 0 148 -53 148 -124
c0 -64 -41 -107 -150 -151c-82 -33 -92 -38 -101 -68z" />
    <glyph glyph-name="onequarter" unicode="&#xbc;" horiz-adv-x="844" 
d="M128 280l56 318l-113 -61l16 100l120 63h87l-74 -420h-92zM125 -78l-69 48l628 807l68 -50zM640 0l12 68h-225l13 86l212 266h154l-48 -268h54l-15 -84h-53l-12 -68h-92zM540 152h127l36 205h-1z" />
    <glyph glyph-name="threequarters" unicode="&#xbe;" horiz-adv-x="935" 
d="M49 423l90 10c5 -55 27 -79 72 -79c41 0 71 25 71 60c0 29 -20 46 -56 46h-41l13 73h33c40 0 72 25 72 56c0 23 -20 38 -51 38c-39 0 -68 -23 -81 -66l-87 26c24 76 89 122 172 122c79 0 136 -47 136 -111c0 -44 -26 -78 -71 -97v-1c33 -17 52 -50 52 -86
c0 -80 -72 -143 -162 -143c-96 0 -159 60 -162 152zM216 -78l-69 48l628 807l68 -50zM731 0l12 68h-225l13 86l212 266h154l-48 -268h54l-15 -84h-53l-12 -68h-92zM631 152h127l36 205h-1z" />
    <glyph glyph-name="oneeighth" unicode="&#x215b;" horiz-adv-x="889" 
d="M128 280l56 318l-113 -61l16 100l120 63h87l-74 -420h-92zM125 -78l-69 48l628 807l68 -50zM495 115c0 55 37 100 98 119v1c-27 17 -42 44 -42 72c0 71 64 122 160 122c81 0 138 -51 138 -106c0 -43 -22 -72 -67 -97v-1c35 -20 55 -55 55 -95c0 -77 -81 -139 -179 -139
c-97 0 -163 51 -163 124zM764 315c0 24 -22 40 -57 40c-41 0 -72 -24 -72 -55c0 -25 21 -40 56 -40c41 0 73 24 73 55zM747 141c0 28 -29 49 -69 49c-51 0 -91 -31 -91 -68c0 -32 27 -50 71 -50c52 0 89 28 89 69z" />
    <glyph glyph-name="threeeighths" unicode="&#x215c;" horiz-adv-x="980" 
d="M49 423l90 10c5 -55 27 -79 72 -79c41 0 71 25 71 60c0 29 -20 46 -56 46h-41l13 73h33c40 0 72 25 72 56c0 23 -20 38 -51 38c-39 0 -68 -23 -81 -66l-87 26c24 76 89 122 172 122c79 0 136 -47 136 -111c0 -44 -26 -78 -71 -97v-1c33 -17 52 -50 52 -86
c0 -80 -72 -143 -162 -143c-96 0 -159 60 -162 152zM216 -78l-69 48l628 807l68 -50zM586 115c0 55 37 100 98 119v1c-27 17 -42 44 -42 72c0 71 64 122 160 122c81 0 138 -51 138 -106c0 -43 -22 -72 -67 -97v-1c35 -20 55 -55 55 -95c0 -77 -81 -139 -179 -139
c-97 0 -163 51 -163 124zM855 315c0 24 -22 40 -57 40c-41 0 -72 -24 -72 -55c0 -25 21 -40 56 -40c41 0 73 24 73 55zM838 141c0 28 -29 49 -69 49c-51 0 -91 -31 -91 -68c0 -32 27 -50 71 -50c52 0 89 28 89 69z" />
    <glyph glyph-name="fiveeighths" unicode="&#x215d;" horiz-adv-x="993" 
d="M48 387l86 26c12 -39 36 -57 79 -57c48 0 86 37 86 82c0 33 -24 53 -61 53c-30 0 -58 -13 -85 -38l-80 28l71 219h250l-15 -84h-175l-22 -68h1c21 11 46 17 73 17c79 0 135 -51 135 -127c0 -93 -80 -167 -181 -167c-85 0 -147 49 -162 116zM229 -78l-69 48l628 807
l68 -50zM599 115c0 55 37 100 98 119v1c-27 17 -42 44 -42 72c0 71 64 122 160 122c81 0 138 -51 138 -106c0 -43 -22 -72 -67 -97v-1c35 -20 55 -55 55 -95c0 -77 -81 -139 -179 -139c-97 0 -163 51 -163 124zM868 315c0 24 -22 40 -57 40c-41 0 -72 -24 -72 -55
c0 -25 21 -40 56 -40c41 0 73 24 73 55zM851 141c0 28 -29 49 -69 49c-51 0 -91 -31 -91 -68c0 -32 27 -50 71 -50c52 0 89 28 89 69z" />
    <glyph glyph-name="seveneighths" unicode="&#x215e;" horiz-adv-x="877" 
d="M41 280l214 333v1h-193l15 86h306l-13 -78l-217 -342h-112zM113 -78l-69 48l628 807l68 -50zM483 115c0 55 37 100 98 119v1c-27 17 -42 44 -42 72c0 71 64 122 160 122c81 0 138 -51 138 -106c0 -43 -22 -72 -67 -97v-1c35 -20 55 -55 55 -95c0 -77 -81 -139 -179 -139
c-97 0 -163 51 -163 124zM752 315c0 24 -22 40 -57 40c-41 0 -72 -24 -72 -55c0 -25 21 -40 56 -40c41 0 73 24 73 55zM735 141c0 28 -29 49 -69 49c-51 0 -91 -31 -91 -68c0 -32 27 -50 71 -50c52 0 89 28 89 69z" />
    <glyph glyph-name="asterisk" unicode="*" horiz-adv-x="503" 
d="M199 322l-68 59l89 106l-116 66l45 79l106 -62v130h91v-130l106 62l45 -79l-116 -66l89 -106l-68 -59l-101 121z" />
    <glyph glyph-name="backslash" unicode="\" horiz-adv-x="585" 
d="M449 -49l-362 764l77 36l363 -766z" />
    <glyph glyph-name="periodcentered" unicode="&#xb7;" horiz-adv-x="253" 
d="M61 306l24 142h146l-24 -142h-146z" />
    <glyph glyph-name="bullet" unicode="&#x2022;" horiz-adv-x="399" 
d="M104 373c0 68 47 116 115 116s114 -48 114 -116c0 -67 -45 -116 -114 -116c-68 0 -115 49 -115 116z" />
    <glyph glyph-name="colon" unicode=":" horiz-adv-x="319" 
d="M95 328l24 142h146l-24 -142h-146zM43 0l24 142h146l-24 -142h-146z" />
    <glyph glyph-name="comma" unicode="," horiz-adv-x="317" 
d="M18 -134l12 65c40 9 56 28 63 69h-57l25 137h150l-21 -121c-16 -89 -75 -139 -172 -150z" />
    <glyph glyph-name="ellipsis" unicode="&#x2026;" horiz-adv-x="820" 
d="M291 0l24 142h146l-24 -142h-146zM37 0l24 142h146l-24 -142h-146zM544 0l24 142h146l-24 -142h-146z" />
    <glyph glyph-name="exclam" unicode="!" horiz-adv-x="317" 
d="M95 229l84 471h127l-84 -471h-127zM39 0l24 142h146l-24 -142h-146z" />
    <glyph glyph-name="exclamdown" unicode="&#xa1;" horiz-adv-x="317" 
d="M278 530l-24 -142h-146l24 142h146zM222 301l-84 -471h-127l84 471h127z" />
    <glyph glyph-name="numbersign" unicode="#" horiz-adv-x="762" 
d="M738 431h-147l-27 -156h146l-18 -107h-147l-30 -168h-119l30 168h-123l-30 -168h-119l30 168h-147l19 107h147l27 156h-148l19 106h148l29 163h119l-29 -163h123l29 163h119l-29 -163h146zM445 275l27 156h-123l-27 -156h123z" />
    <glyph glyph-name="period" unicode="." horiz-adv-x="313" 
d="M37 0l24 142h146l-24 -142h-146z" />
    <glyph glyph-name="question" unicode="?" horiz-adv-x="539" 
d="M180 213l12 61c6 33 19 61 38 83s51 44 95 67c67 35 100 71 100 107c0 40 -33 67 -84 67c-79 0 -135 -48 -156 -137l-124 22c15 71 48 128 98 169c51 42 111 63 182 63c124 0 210 -74 210 -173c0 -84 -45 -143 -144 -192c-79 -40 -94 -54 -102 -99l-8 -38h-117zM135 0
l24 142h146l-24 -142h-146z" />
    <glyph glyph-name="questiondown" unicode="&#xbf;" horiz-adv-x="539" 
d="M404 530l-24 -142h-146l24 142h146zM359 317l-12 -61c-6 -33 -19 -61 -38 -83s-51 -44 -95 -67c-67 -35 -100 -71 -100 -107c0 -40 33 -67 84 -67c79 0 135 48 156 137l124 -22c-15 -71 -48 -128 -99 -169c-50 -42 -110 -63 -181 -63c-124 0 -210 74 -210 173
c0 84 45 143 144 192c79 40 94 54 102 99l8 38h117z" />
    <glyph glyph-name="quotedbl" unicode="&#x22;" horiz-adv-x="426" 
d="M117 458l43 242h100l-43 -242h-100zM277 458l43 242h100l-43 -242h-100z" />
    <glyph glyph-name="quotesingle" unicode="'" horiz-adv-x="266" 
d="M117 458l43 242h100l-43 -242h-100z" />
    <glyph glyph-name="semicolon" unicode=";" horiz-adv-x="317" 
d="M18 -134l12 65c40 9 56 28 63 69h-57l25 137h150l-21 -121c-16 -89 -75 -139 -172 -150zM97 328l24 142h146l-24 -142h-146z" />
    <glyph glyph-name="slash" unicode="/" horiz-adv-x="328" 
d="M37 -49l-78 34l363 766l77 -36z" />
    <glyph glyph-name="underscore" unicode="_" horiz-adv-x="605" 
d="M-33 -168l16 95h519l-17 -95h-518z" />
    <glyph glyph-name="braceleft" unicode="{" horiz-adv-x="380" 
d="M82 -72c0 13 2 29 5 49l32 185c1 9 2 16 2 19c0 25 -13 35 -42 35h-32l24 137h23c41 0 62 19 70 64l29 164c19 109 63 149 170 149h85l-19 -108h-64c-41 0 -61 -20 -70 -79l-29 -164c-11 -59 -42 -90 -95 -94v-2c41 -8 62 -34 62 -78c0 -11 -1 -20 -2 -26l-33 -184
c-2 -12 -3 -22 -3 -30c0 -28 14 -38 50 -38h62l-19 -109h-73c-91 0 -133 34 -133 110z" />
    <glyph glyph-name="braceright" unicode="}" horiz-adv-x="379" 
d="M301 621c0 -13 -2 -29 -5 -49l-32 -185c-1 -9 -2 -16 -2 -19c0 -25 13 -35 42 -35h32l-24 -137h-23c-41 0 -62 -19 -70 -64l-29 -164c-19 -109 -63 -149 -170 -149h-85l19 108h64c41 0 61 20 70 79l29 164c11 59 42 90 95 94v2c-41 8 -62 34 -62 78c0 11 1 20 2 26
l33 184c2 12 3 22 3 30c0 28 -14 38 -50 38h-62l19 109h73c91 0 133 -34 133 -110z" />
    <glyph glyph-name="bracketleft" unicode="[" horiz-adv-x="318" 
d="M-3 -182l160 912h229l-18 -103h-121l-123 -705h120l-18 -104h-229z" />
    <glyph glyph-name="bracketright" unicode="]" horiz-adv-x="318" 
d="M324 731l-160 -912h-229l18 103h121l123 705h-120l18 104h229z" />
    <glyph glyph-name="parenleft" unicode="(" horiz-adv-x="374" 
d="M80 190c0 215 101 421 294 601l69 -65c-172 -176 -252 -345 -252 -536c0 -119 32 -230 96 -333l-79 -50c-85 119 -128 246 -128 383z" />
    <glyph glyph-name="parenright" unicode=")" horiz-adv-x="374" 
d="M306 407c0 -215 -101 -421 -294 -601l-69 65c172 176 252 345 252 536c0 119 -32 230 -96 333l79 50c85 -119 128 -246 128 -383z" />
    <glyph glyph-name="braceleft.case" horiz-adv-x="379" 
d="M90 -22c0 13 2 29 5 49l32 185c1 9 2 16 2 19c0 25 -13 35 -42 35h-32l24 137h23c41 0 62 19 70 64l29 164c19 109 63 149 170 149h85l-19 -108h-64c-41 0 -61 -20 -70 -79l-29 -164c-11 -59 -42 -90 -95 -94v-2c41 -8 62 -34 62 -78c0 -11 -1 -20 -2 -26l-33 -184
c-2 -12 -3 -22 -3 -30c0 -28 14 -38 50 -38h62l-19 -109h-73c-91 0 -133 34 -133 110z" />
    <glyph glyph-name="braceright.case" horiz-adv-x="380" 
d="M310 671c0 -13 -2 -29 -5 -49l-32 -185c-1 -9 -2 -16 -2 -19c0 -25 13 -35 42 -35h32l-24 -137h-23c-41 0 -62 -19 -70 -64l-29 -164c-19 -109 -63 -149 -170 -149h-85l19 108h64c41 0 61 20 70 79l29 164c11 59 42 90 95 94v2c-41 8 -62 34 -62 78c0 11 1 20 2 26
l33 184c2 12 3 22 3 30c0 28 -14 38 -50 38h-62l19 109h73c91 0 133 -34 133 -110z" />
    <glyph glyph-name="bracketleft.case" horiz-adv-x="318" 
d="M6 -132l160 912h229l-18 -103h-121l-123 -705h120l-18 -104h-229z" />
    <glyph glyph-name="bracketright.case" horiz-adv-x="318" 
d="M333 781l-160 -912h-229l18 103h121l123 705h-120l18 104h229z" />
    <glyph glyph-name="parenleft.case" horiz-adv-x="374" 
d="M89 240c0 215 101 421 294 601l69 -65c-172 -176 -252 -345 -252 -536c0 -119 32 -230 96 -333l-79 -50c-85 119 -128 246 -128 383z" />
    <glyph glyph-name="parenright.case" horiz-adv-x="375" 
d="M315 457c0 -215 -101 -421 -294 -601l-69 65c172 176 252 345 252 536c0 119 -32 230 -96 333l79 50c85 -119 128 -246 128 -383z" />
    <glyph glyph-name="emdash" unicode="&#x2014;" horiz-adv-x="845" 
d="M39 237l19 113h758l-20 -113h-757z" />
    <glyph glyph-name="endash" unicode="&#x2013;" horiz-adv-x="558" 
d="M39 237l19 113h471l-20 -113h-470z" />
    <glyph glyph-name="hyphen" unicode="-" horiz-adv-x="358" 
d="M39 237l19 113h272l-20 -113h-271z" />
    <glyph glyph-name="uni00AD" unicode="&#xad;" horiz-adv-x="358" 
d="M39 237l19 113h272l-20 -113h-271z" />
    <glyph glyph-name="emdash.ccmp" horiz-adv-x="845" 
d="M51 302l19 113h758l-20 -113h-757z" />
    <glyph glyph-name="endash.ccmp" horiz-adv-x="558" 
d="M51 302l19 113h471l-20 -113h-470z" />
    <glyph glyph-name="hyphen.ccmp" horiz-adv-x="358" 
d="M51 302l19 113h272l-20 -113h-271z" />
    <glyph glyph-name="uni00AD.ccmp" horiz-adv-x="358" 
d="M51 302l19 113h272l-20 -113h-271z" />
    <glyph glyph-name="guillemotleft" unicode="&#xab;" horiz-adv-x="519" 
d="M327 86l-80 191l144 191h111l-149 -191l79 -191h-105zM145 86l-80 191l144 191h111l-149 -191l79 -191h-105z" />
    <glyph glyph-name="guillemotright" unicode="&#xbb;" horiz-adv-x="519" 
d="M197 468l80 -191l-144 -191h-111l149 191l-79 191h105zM379 468l80 -191l-144 -191h-111l149 191l-79 191h105z" />
    <glyph glyph-name="guilsinglleft" unicode="&#x2039;" horiz-adv-x="337" 
d="M145 86l-80 191l144 191h111l-149 -191l79 -191h-105z" />
    <glyph glyph-name="guilsinglright" unicode="&#x203a;" horiz-adv-x="337" 
d="M197 468l80 -191l-144 -191h-111l149 191l-79 191h105z" />
    <glyph glyph-name="quotedblbase" unicode="&#x201e;" horiz-adv-x="520" 
d="M18 -134l12 65c40 9 56 28 63 69h-57l25 137h150l-21 -121c-16 -89 -75 -139 -172 -150zM221 -134l12 65c40 9 56 28 63 69h-57l25 137h150l-21 -121c-16 -89 -75 -139 -172 -150z" />
    <glyph glyph-name="quotedblleft" unicode="&#x201c;" horiz-adv-x="519" 
d="M305 700l-12 -65c-40 -9 -56 -28 -63 -69h57l-25 -137h-150l21 121c16 89 75 139 172 150zM508 700l-12 -65c-40 -9 -56 -28 -63 -69h57l-25 -137h-150l21 121c16 89 75 139 172 150z" />
    <glyph glyph-name="quotedblright" unicode="&#x201d;" horiz-adv-x="520" 
d="M118 429l12 65c40 9 56 28 63 69h-57l25 137h150l-21 -121c-16 -89 -75 -139 -172 -150zM321 429l12 65c40 9 56 28 63 69h-57l25 137h150l-21 -121c-16 -89 -75 -139 -172 -150z" />
    <glyph glyph-name="quoteleft" unicode="&#x2018;" horiz-adv-x="317" 
d="M305 700l-12 -65c-40 -9 -56 -28 -63 -69h57l-25 -137h-150l21 121c16 89 75 139 172 150z" />
    <glyph glyph-name="quoteright" unicode="&#x2019;" horiz-adv-x="277" 
d="M98 429l12 65c40 9 56 28 63 69h-57l25 137h150l-21 -121c-16 -89 -75 -139 -172 -150z" />
    <glyph glyph-name="quotesinglbase" unicode="&#x201a;" horiz-adv-x="317" 
d="M18 -134l12 65c40 9 56 28 63 69h-57l25 137h150l-21 -121c-16 -89 -75 -139 -172 -150z" />
    <glyph glyph-name="guillemotleft.case" horiz-adv-x="519" 
d="M336 136l-80 191l144 191h111l-149 -191l79 -191h-105zM154 136l-80 191l144 191h111l-149 -191l79 -191h-105z" />
    <glyph glyph-name="guillemotright.case" horiz-adv-x="519" 
d="M206 518l80 -191l-144 -191h-111l149 191l-79 191h105zM388 518l80 -191l-144 -191h-111l149 191l-79 191h105z" />
    <glyph glyph-name="guilsinglleft.case" horiz-adv-x="338" 
d="M154 136l-80 191l144 191h111l-149 -191l79 -191h-105z" />
    <glyph glyph-name="guilsinglright.case" horiz-adv-x="600" 
d="M197 518l80 -191l-144 -191h-111l149 191l-79 191h105zM379 518l80 -191l-144 -191h-111l149 191l-79 191h105z" />
    <glyph glyph-name="uni2003" unicode="&#x2003;" horiz-adv-x="930" 
 />
    <glyph glyph-name="uni2002" unicode="&#x2002;" horiz-adv-x="698" 
 />
    <glyph glyph-name="uni2007" unicode="&#x2007;" 
 />
    <glyph glyph-name="uni2005" unicode="&#x2005;" horiz-adv-x="233" 
 />
    <glyph glyph-name="uni200A" unicode="&#x200a;" horiz-adv-x="70" 
 />
    <glyph glyph-name="uni2008" unicode="&#x2008;" horiz-adv-x="313" 
 />
    <glyph glyph-name="uni00A0" unicode="&#xa0;" horiz-adv-x="260" 
 />
    <glyph glyph-name="uni2009" unicode="&#x2009;" horiz-adv-x="140" 
 />
    <glyph glyph-name="uni2004" unicode="&#x2004;" horiz-adv-x="326" 
 />
    <glyph glyph-name="uni200B" unicode="&#x200b;" horiz-adv-x="0" 
 />
    <glyph glyph-name="uniFEFF" unicode="&#xfeff;" horiz-adv-x="0" 
 />
    <glyph glyph-name="uni0E3F" unicode="&#xe3f;" horiz-adv-x="657" 
d="M593 228c0 -145 -104 -228 -287 -228h-3l-19 -110h-61l19 110h-215l123 700h215l18 101h61l-18 -102c121 -5 192 -67 192 -164c0 -76 -40 -134 -117 -166v-2c55 -21 92 -76 92 -139zM256 585l-30 -170h89l30 170h-89zM490 514c0 43 -29 68 -84 71l-30 -170
c68 4 114 43 114 99zM174 115h89l34 197h-88zM466 232c0 51 -38 80 -105 80h-3l-34 -197c93 0 142 40 142 117z" />
    <glyph glyph-name="cent" unicode="&#xa2;" horiz-adv-x="623" 
d="M456 210l110 -41c-40 -112 -139 -183 -264 -184l-17 -95h-61l17 99c-123 20 -198 109 -198 234c0 184 122 320 296 322l15 86h61l-16 -90c109 -19 181 -93 189 -193l-114 -14c-9 57 -41 90 -94 99l-59 -339c67 5 110 44 135 116zM260 96l60 339c-47 -5 -85 -27 -114 -66
s-43 -88 -43 -146c0 -71 33 -116 97 -127z" />
    <glyph glyph-name="currency" unicode="&#xa4;" horiz-adv-x="755" 
d="M577 183l68 -67l-44 -43l-65 65c-42 -35 -91 -52 -148 -52s-106 17 -147 51l-65 -64l-44 42l66 67c-29 43 -44 92 -44 148c0 55 14 103 43 146l-65 66l44 43l62 -63c41 35 91 53 150 53c57 0 107 -18 150 -53l64 63l43 -43l-66 -66c29 -43 43 -91 43 -146
c0 -57 -15 -106 -45 -147zM501 329c0 85 -41 135 -112 135c-72 0 -113 -48 -113 -135c0 -84 41 -132 113 -132c71 0 112 49 112 132z" />
    <glyph glyph-name="dollar" unicode="$" horiz-adv-x="657" 
d="M606 189c0 -122 -108 -204 -267 -204c-11 0 -20 0 -25 1l-17 -96h-61l18 103c-127 25 -208 110 -225 238l125 26c16 -88 52 -133 120 -149l37 208c-154 60 -205 114 -205 207c0 114 102 192 248 192c12 0 21 0 27 -1l15 87h61l-17 -95c105 -24 177 -95 197 -196l-124 -27
c-17 57 -48 92 -93 107l-32 -180c162 -64 218 -124 218 -221zM331 432l30 167h-7c-76 0 -121 -28 -121 -77c0 -35 26 -59 98 -90zM479 191c0 43 -30 71 -111 104l-34 -194h5c92 0 140 31 140 90z" />
    <glyph glyph-name="Euro" unicode="&#x20ac;" horiz-adv-x="784" 
d="M631 265l117 -38c-53 -155 -168 -242 -329 -242c-80 0 -145 22 -196 65c-51 44 -81 103 -91 176h-114l17 96h94l6 54h-90l17 96h98c56 151 180 243 337 243c165 0 272 -100 282 -249l-122 -13c-8 93 -63 148 -159 148c-89 0 -161 -48 -204 -129h236l-17 -96h-252
c-4 -23 -6 -41 -7 -54h186l-17 -96h-166c16 -79 72 -127 161 -127c107 0 173 53 213 166z" />
    <glyph glyph-name="florin" unicode="&#x192;" horiz-adv-x="411" 
d="M307 573l-7 -43h140l-20 -110h-139l-85 -479c-16 -88 -74 -134 -169 -134h-78l20 110h55c33 0 47 13 54 45l7 42l74 416h-124l19 110h124l11 64c15 88 74 134 169 134h98l-19 -110h-76c-33 0 -47 -13 -54 -45z" />
    <glyph glyph-name="lira" unicode="&#x20a4;" horiz-adv-x="602" 
d="M472 369l121 -25c-38 -203 -187 -344 -368 -344h-127l62 355l-78 -14l-17 92l113 20l9 54l-79 -14l-17 92l113 20l17 95h127l-13 -72l146 26l16 -91l-179 -32l-9 -55l146 26l16 -91l-179 -32l-46 -262c113 9 191 95 226 252z" />
    <glyph glyph-name="uni20BD" unicode="&#x20bd;" horiz-adv-x="705" 
d="M260 250l-11 -64h178l-15 -86h-178l-18 -100h-127l18 100h-101l15 86h101l11 64h-100l15 86h100l64 364h260c135 0 225 -81 225 -200c0 -150 -115 -250 -286 -250h-151zM318 583l-37 -216h144c89 0 145 50 145 130c0 57 -35 86 -104 86h-148z" />
    <glyph glyph-name="uni20A8" unicode="&#x20a8;" horiz-adv-x="555" 
d="M589 617h-127v-2c21 -25 34 -57 37 -94h73l-14 -81h-65c-20 -88 -88 -147 -192 -170v-2l109 -268h-136l-101 260h-119l20 115h149c67 0 115 22 136 65h-273l14 81h270c-8 40 -42 62 -101 62h-158l21 117h472z" />
    <glyph glyph-name="sterling" unicode="&#xa3;" horiz-adv-x="635" 
d="M17 0l22 118h40c36 0 66 13 91 38s37 56 37 93c0 11 -2 22 -7 35h-133l18 106h68c-19 37 -29 74 -29 110c0 118 105 215 264 215s253 -91 261 -212l-128 -10c-5 69 -49 105 -128 105c-85 0 -141 -47 -141 -116c0 -27 8 -47 28 -92h219l-19 -106h-164c3 -13 5 -27 5 -40
c0 -52 -19 -93 -57 -124l1 -2h288l-20 -118h-516z" />
    <glyph glyph-name="uni20A9" unicode="&#x20a9;" horiz-adv-x="947" 
d="M981 700l-69 -180h67l-15 -82h-84l-25 -67h98l-16 -82h-114l-111 -289h-130l-32 289h-137l-132 -289h-134l-9 289h-121l15 82h103l-2 67h-89l15 82h72l-6 180h118l5 -180h164l83 180h109l19 -180h165l68 180h125zM521 525l-2 -5h6l-1 5h-3zM250 438l1 -67h93l31 67h-125z
M451 371h90l-7 67h-53zM732 371l25 67h-125l7 -67h93zM259 186l47 103h-53l3 -103h3zM662 186l39 103h-53l11 -103h3z" />
    <glyph glyph-name="yen" unicode="&#xa5;" horiz-adv-x="607" 
d="M681 700l-264 -353h156l-17 -96h-191l-10 -54h192l-18 -96h-191l-19 -101h-127l19 101h-198l18 96h197l10 54h-198l17 96h164l-141 353h128l109 -300h2l214 300h148z" />
    <glyph glyph-name="uni0E3F.tnum" 
d="M586 228c0 -144 -103 -227 -282 -228l-19 -110h-60l19 110h-207l123 700h207l18 101h60l-18 -102c116 -9 185 -69 185 -164c0 -76 -41 -134 -118 -166v-2c55 -21 92 -76 92 -139zM266 585l-30 -170h81l30 170h-81zM483 514c0 43 -25 66 -76 70l-30 -168
c64 7 106 45 106 98zM184 115h81l34 197h-80zM459 232c0 49 -36 77 -100 80l-34 -197c89 2 134 41 134 117z" />
    <glyph glyph-name="cent.tnum" 
d="M467 210l110 -41c-41 -113 -138 -183 -265 -184l-17 -95h-60l17 99c-123 20 -198 109 -198 234c0 184 123 320 296 322l15 86h60l-16 -90c111 -19 181 -93 189 -193l-113 -14c-9 57 -41 90 -95 100l-59 -340c67 5 109 44 136 116zM271 96l60 339c-47 -5 -86 -27 -115 -66
s-43 -88 -43 -146c0 -71 33 -116 98 -127z" />
    <glyph glyph-name="currency.tnum" 
d="M525 183l68 -67l-44 -43l-65 65c-42 -35 -91 -52 -148 -52c-56 0 -105 17 -148 51l-64 -64l-44 42l66 67c-29 43 -44 92 -44 148c0 55 14 103 43 146l-65 66l44 43l62 -63c43 35 93 53 150 53s107 -18 150 -53l63 63l44 -43l-66 -66c29 -43 43 -91 43 -146
c0 -57 -15 -106 -45 -147zM448 329c0 85 -42 135 -111 135c-72 0 -114 -50 -114 -135c0 -84 42 -132 114 -132c69 0 111 49 111 132z" />
    <glyph glyph-name="dollar.tnum" 
d="M603 189c0 -122 -108 -204 -267 -204c-12 0 -21 0 -26 1l-17 -96h-60l18 103c-128 25 -209 110 -226 238l126 26c16 -88 52 -134 120 -150l37 209c-153 60 -206 114 -206 207c0 114 103 192 248 192c13 0 22 0 28 -1l15 87h60l-17 -95c107 -24 178 -95 198 -196l-125 -27
c-17 59 -46 92 -93 107l-32 -180c163 -64 219 -124 219 -221zM328 432l30 167h-7c-77 0 -122 -28 -122 -77c0 -35 27 -61 99 -90zM475 191c0 43 -30 71 -111 104l-34 -194h5c92 0 140 31 140 90z" />
    <glyph glyph-name="Euro.tnum" 
d="M496 271l117 -33c-43 -157 -146 -253 -278 -253s-220 92 -237 241h-94l18 96h74l6 54h-71l17 96h78c53 148 164 243 297 243c135 0 220 -97 227 -254l-123 -8c-5 97 -41 145 -107 145c-65 0 -126 -47 -163 -126h181l-17 -96h-195c-4 -23 -6 -41 -7 -54h136l-17 -96h-117
c13 -79 56 -124 117 -124c73 0 123 56 158 169z" />
    <glyph glyph-name="florin.tnum" 
d="M432 573l-7 -43h140l-20 -110h-139l-85 -479c-16 -88 -74 -134 -169 -134h-78l20 110h55c33 0 48 13 53 45l82 458h-124l19 110h124l11 64c15 88 74 134 169 134h98l-20 -110h-75c-33 0 -47 -13 -54 -45z" />
    <glyph glyph-name="lira.tnum" 
d="M490 369l121 -25c-40 -203 -187 -344 -368 -344h-127l62 355l-79 -14l-16 92l113 20l9 54l-79 -14l-17 92l113 20l17 95h127l-13 -72l146 26l16 -91l-179 -32l-9 -55l146 26l16 -91l-179 -32l-46 -262c112 9 190 96 226 252z" />
    <glyph glyph-name="uni20BD.tnum" 
d="M258 250l-11 -64h147l-15 -86h-147l-18 -100h-127l18 100h-101l15 86h101l11 64h-100l15 86h100l64 364h228c136 0 226 -80 226 -200c0 -150 -115 -250 -286 -250h-120zM316 583l-37 -216h113c89 0 145 50 145 130c0 57 -35 86 -104 86h-117z" />
    <glyph glyph-name="uni20A8.tnum" 
d="M623 617h-127v-2c21 -25 34 -57 37 -94h73l-14 -81h-65c-20 -88 -88 -147 -192 -170v-2l109 -268h-136l-101 260h-119l20 115h149c67 0 115 22 136 65h-273l14 81h270c-8 40 -44 62 -101 62h-159l21 117h473z" />
    <glyph glyph-name="sterling.tnum" 
d="M8 0l21 118h41c35 0 65 13 90 38s37 56 37 93c0 13 -2 24 -6 35h-134l19 106h67c-19 37 -29 74 -29 110c0 118 105 215 264 215s253 -91 261 -212l-128 -10c-5 69 -50 105 -127 105c-87 0 -141 -47 -141 -116c0 -27 8 -51 27 -92h219l-19 -106h-164c3 -13 5 -27 5 -40
c0 -52 -19 -93 -57 -124l1 -2h288l-20 -118h-515z" />
    <glyph glyph-name="uni20A9.tnum" 
d="M695 472h-60l-19 -62h68l-15 -82h-78l-101 -328h-118l-24 328h-22l-139 -328h-119l15 328h-80l15 82h69l3 62h-62l15 82h50l7 146h114l-10 -146h341l41 146h119l-45 -146h50zM199 472l-5 -62h78l27 62h-100zM504 410l17 62h-99l4 -62h78zM182 196l56 132h-49l-9 -132h2z
M443 196l37 132h-48l9 -132h2z" />
    <glyph glyph-name="yen.tnum" 
d="M706 700l-268 -353h158l-16 -96h-194l-10 -54h194l-17 -96h-194l-19 -101h-127l18 101h-194l17 96h195l9 54h-194l16 96h161l-142 353h129l109 -301h2l219 301h148z" />
    <glyph glyph-name="uni207B" unicode="&#x207b;" horiz-adv-x="394" 
d="M37 171l12 75h288l-13 -75h-287z" />
    <glyph glyph-name="plus" unicode="+" horiz-adv-x="604" 
d="M577 415l-17 -99h-196l-37 -211h-106l37 211h-196l18 99h196l37 210h106l-37 -210h195z" />
    <glyph glyph-name="minus" unicode="&#x2212;" horiz-adv-x="554" 
d="M62 316l18 99h447l-17 -99h-448z" />
    <glyph glyph-name="multiply" unicode="&#xd7;" horiz-adv-x="563" 
d="M551 497l-191 -161l131 -155l-75 -63l-128 156l-186 -161l-63 72l190 161l-131 156l76 61l128 -155l186 160z" />
    <glyph glyph-name="divide" unicode="&#xf7;" horiz-adv-x="554" 
d="M244 576c0 51 39 90 88 90c51 0 89 -39 89 -90c0 -49 -38 -88 -89 -88c-49 0 -88 39 -88 88zM62 316l18 99h447l-17 -99h-448zM168 149c0 49 39 89 88 89c51 0 90 -38 90 -89s-39 -89 -90 -89c-49 0 -88 40 -88 89z" />
    <glyph glyph-name="equal" unicode="=" horiz-adv-x="563" 
d="M76 396l18 101h456l-18 -101h-456zM43 202l17 101h457l-18 -101h-456z" />
    <glyph glyph-name="notequal" unicode="&#x2260;" horiz-adv-x="563" 
d="M532 396h-160l-66 -93h211l-18 -101h-265l-84 -118l-55 41l55 77h-107l17 101h161l66 93h-211l18 101h265l83 117l56 -41l-54 -76h106z" />
    <glyph glyph-name="greater" unicode="&#x3e;" horiz-adv-x="559" 
d="M174 624l352 -235l-12 -78l-429 -234l-49 94l346 183l-276 181z" />
    <glyph glyph-name="less" unicode="&#x3c;" horiz-adv-x="559" 
d="M415 77l-352 235l12 78l429 234l49 -95l-347 -182l277 -182z" />
    <glyph glyph-name="greaterequal" unicode="&#x2265;" horiz-adv-x="562" 
d="M185 679l352 -235l-12 -78l-429 -234l-48 94l346 183l-277 181zM14 0l18 103h446l-18 -103h-446z" />
    <glyph glyph-name="lessequal" unicode="&#x2264;" horiz-adv-x="559" 
d="M425 132l-352 235l12 78l429 234l49 -95l-346 -182l276 -182zM11 0l17 103h447l-18 -103h-446z" />
    <glyph glyph-name="plusminus" unicode="&#xb1;" horiz-adv-x="604" 
d="M396 496h195l-17 -99h-196l-32 -184h-106l32 184h-195l17 99h196l32 183h106zM16 51l18 102h497l-18 -102h-497z" />
    <glyph glyph-name="approxequal" unicode="&#x2248;" horiz-adv-x="678" 
d="M170 373l-98 39c39 96 109 151 190 151c44 0 72 -14 123 -43c37 -21 58 -32 82 -32c32 0 56 23 79 75l100 -40c-41 -99 -104 -150 -184 -150c-47 0 -80 16 -127 44c-40 23 -55 31 -78 31c-35 0 -62 -24 -87 -75zM170 148l-98 39c39 96 109 151 190 151
c44 0 72 -14 123 -43c37 -21 58 -32 82 -32c32 0 56 23 79 75l100 -40c-41 -99 -104 -150 -184 -150c-47 0 -80 16 -127 44c-40 23 -55 31 -78 31c-35 0 -62 -24 -87 -75z" />
    <glyph glyph-name="asciitilde" unicode="~" horiz-adv-x="688" 
d="M161 252l-103 41c41 101 114 159 199 159c47 0 82 -17 131 -46c39 -23 59 -33 84 -33c33 0 59 24 83 79l105 -42c-43 -104 -109 -158 -193 -158c-48 0 -80 15 -133 46c-36 23 -58 33 -82 33c-37 0 -64 -24 -91 -79z" />
    <glyph glyph-name="logicalnot" unicode="&#xac;" horiz-adv-x="649" 
d="M450 156l31 178h-415l20 117h542l-51 -295h-127z" />
    <glyph glyph-name="infinity" unicode="&#x221e;" horiz-adv-x="710" 
d="M58 266c-2 125 91 239 200 236c56 0 107 -33 124 -77c32 48 87 77 138 77c88 0 146 -65 146 -162c3 -125 -91 -239 -201 -236c-56 0 -107 33 -123 77c-32 -48 -87 -77 -139 -77c-88 0 -145 65 -145 162zM331 312c-4 60 -27 91 -67 91c-31 0 -56 -13 -77 -40
c-20 -27 -30 -58 -30 -95c0 -41 20 -64 56 -64c47 0 87 37 118 108zM567 339c0 41 -20 63 -56 63c-47 0 -90 -38 -119 -107c5 -61 27 -92 68 -92c31 0 56 13 76 40c21 27 31 59 31 96z" />
    <glyph glyph-name="emptyset" unicode="&#x2205;" horiz-adv-x="863" 
d="M829 350c4 -205 -171 -369 -383 -365c-77 0 -148 19 -211 57l-89 -102l-70 58l88 100c-64 67 -100 155 -100 252c-4 206 169 368 382 365c79 0 149 -19 211 -56l91 104l70 -58l-90 -102c64 -67 101 -154 101 -253zM247 193l329 374c-37 21 -81 32 -130 32
c-144 0 -249 -101 -249 -249c0 -62 17 -114 50 -157zM696 350c0 63 -17 116 -51 158l-329 -375c37 -21 81 -32 130 -32c145 0 250 101 250 249z" />
    <glyph glyph-name="integral" unicode="&#x222b;" horiz-adv-x="482" 
d="M-36 -240l21 117c92 1 128 27 143 107l98 556c25 145 108 205 288 205l-21 -117c-47 -1 -80 -9 -101 -25c-21 -15 -35 -43 -42 -82l-97 -550c-28 -153 -106 -211 -289 -211z" />
    <glyph glyph-name="product" unicode="&#x220f;" horiz-adv-x="794" 
d="M88 -141l128 724h-131l20 117h737l-20 -117h-132l-127 -724h-127l127 724h-220l-128 -724h-127z" />
    <glyph glyph-name="summation" unicode="&#x2211;" horiz-adv-x="617" 
d="M-3 -100l18 107l306 300l-200 288l17 105h518l-21 -117h-350l199 -290l-283 -276h334l-21 -117h-517z" />
    <glyph glyph-name="radical" unicode="&#x221a;" horiz-adv-x="690" 
d="M613 700h148l-411 -700h-118l-74 313h-136l20 117h218l53 -255h2z" />
    <glyph glyph-name="partialdiff" unicode="&#x2202;" horiz-adv-x="589" 
d="M587 531c3 -299 -150 -552 -351 -547c-132 0 -210 78 -210 203c-3 162 125 319 276 315c51 0 96 -10 155 -35c2 23 3 47 3 71c0 89 -29 133 -88 133c-33 0 -65 -16 -108 -53l-70 88c56 52 121 82 182 82c132 0 211 -94 211 -257zM440 358c-43 21 -86 31 -128 31
c-89 0 -159 -90 -159 -202c0 -53 28 -86 83 -86c44 0 84 24 121 71s64 109 83 186z" />
    <glyph glyph-name="percent" unicode="%" horiz-adv-x="1067" 
d="M266 -84l-79 57l637 815l80 -58zM91 448c0 153 90 261 210 261c103 0 169 -70 169 -177c0 -151 -89 -261 -209 -261c-103 0 -170 70 -170 177zM368 532c0 53 -24 83 -67 83c-59 0 -108 -73 -108 -167c0 -53 25 -82 68 -82c58 0 107 73 107 166zM627 168
c0 153 91 261 209 261c103 0 170 -70 170 -177c0 -151 -91 -261 -210 -261c-103 0 -169 70 -169 177zM903 252c0 53 -24 83 -67 83c-58 0 -107 -73 -107 -167c0 -53 24 -82 67 -82c58 0 107 73 107 166z" />
    <glyph glyph-name="perthousand" unicode="&#x2030;" horiz-adv-x="1482" 
d="M270 -84l-80 57l638 815l79 -58zM91 448c0 153 90 261 210 261c103 0 169 -70 169 -177c0 -151 -89 -261 -209 -261c-103 0 -170 70 -170 177zM368 532c0 53 -24 83 -67 83c-59 0 -108 -73 -108 -167c0 -53 25 -82 68 -82c58 0 107 73 107 166zM627 168
c0 153 91 261 209 261c103 0 170 -70 170 -177c0 -151 -91 -261 -210 -261c-103 0 -169 70 -169 177zM1042 168c0 153 91 261 209 261c103 0 170 -70 170 -177c0 -151 -91 -261 -210 -261c-103 0 -169 70 -169 177zM903 252c0 53 -24 83 -67 83c-58 0 -107 -73 -107 -167
c0 -53 24 -82 67 -82c58 0 107 73 107 166zM1319 252c0 53 -25 83 -68 83c-58 0 -107 -73 -107 -167c0 -53 24 -82 67 -82c58 0 108 73 108 166z" />
    <glyph glyph-name="uni207A" unicode="&#x207a;" horiz-adv-x="431" 
d="M374 246l-13 -75h-121l-23 -128h-81l23 128h-122l12 75h123l22 126h81l-22 -126h121z" />
    <glyph glyph-name="plus.tnum" 
d="M600 415l-17 -99h-196l-37 -211h-106l37 211h-196l18 99h196l37 210h106l-37 -210h195z" />
    <glyph glyph-name="minus.tnum" 
d="M110 316l18 99h447l-17 -99h-448z" />
    <glyph glyph-name="multiply.tnum" 
d="M594 497l-191 -161l131 -155l-75 -63l-128 156l-186 -161l-63 72l190 161l-131 156l76 61l128 -155l186 160z" />
    <glyph glyph-name="divide.tnum" 
d="M292 576c0 51 39 90 88 90c51 0 89 -39 89 -90c0 -49 -38 -88 -89 -88c-49 0 -88 39 -88 88zM110 316l18 99h447l-17 -99h-448zM216 149c0 49 39 89 88 89c51 0 90 -38 90 -89s-39 -89 -90 -89c-49 0 -88 40 -88 89z" />
    <glyph glyph-name="equal.tnum" 
d="M119 396l18 101h456l-18 -101h-456zM86 202l17 101h457l-18 -101h-456z" />
    <glyph glyph-name="notequal.tnum" 
d="M575 396h-160l-66 -93h211l-18 -101h-265l-84 -118l-55 41l55 77h-107l17 101h161l66 93h-211l18 101h265l83 117l56 -41l-54 -76h106z" />
    <glyph glyph-name="greater.tnum" 
d="M220 624l352 -235l-12 -78l-429 -234l-49 94l346 183l-276 181z" />
    <glyph glyph-name="less.tnum" 
d="M461 77l-352 235l12 78l429 234l49 -95l-347 -182l277 -182z" />
    <glyph glyph-name="greaterequal.tnum" 
d="M229 679l352 -235l-12 -78l-429 -234l-48 94l346 183l-277 181zM58 0l18 103h446l-18 -103h-446z" />
    <glyph glyph-name="lessequal.tnum" 
d="M470 132l-352 235l12 78l429 234l49 -95l-346 -182l276 -182zM56 0l17 103h447l-18 -103h-446z" />
    <glyph glyph-name="plusminus.tnum" 
d="M419 496h195l-17 -99h-196l-32 -184h-106l32 184h-195l17 99h196l32 183h106zM39 51l18 102h497l-18 -102h-497z" />
    <glyph glyph-name="approxequal.tnum" 
d="M152 373l-98 39c39 96 109 151 190 151c44 0 72 -14 123 -43c37 -21 58 -32 82 -32c32 0 56 23 79 75l100 -40c-41 -99 -104 -150 -184 -150c-47 0 -80 16 -127 44c-40 23 -55 31 -78 31c-35 0 -62 -24 -87 -75zM152 148l-98 39c39 96 109 151 190 151
c44 0 72 -14 123 -43c37 -21 58 -32 82 -32c32 0 56 23 79 75l100 -40c-41 -99 -104 -150 -184 -150c-47 0 -80 16 -127 44c-40 23 -55 31 -78 31c-35 0 -62 -24 -87 -75z" />
    <glyph glyph-name="percent.tnum" 
d="M84 618c0 149 89 261 210 261c101 0 169 -72 169 -177c0 -149 -89 -261 -209 -261c-103 0 -170 70 -170 177zM361 702c0 53 -24 83 -67 83c-60 0 -108 -75 -108 -167c0 -53 25 -82 68 -82c58 0 107 73 107 166zM110 210l-36 98l462 167l36 -97zM217 -2
c0 149 89 261 210 261c101 0 169 -72 169 -177c0 -149 -89 -261 -209 -261c-103 0 -170 70 -170 177zM494 82c0 53 -24 83 -67 83c-60 0 -108 -75 -108 -167c0 -53 25 -83 68 -83c58 0 107 75 107 167z" />
    <glyph glyph-name="perthousand.tnum" 
d="M83 655c0 149 89 261 209 261c103 0 170 -70 170 -177c0 -148 -91 -261 -210 -261c-101 0 -169 70 -169 177zM360 740c0 52 -24 82 -67 82c-60 0 -108 -74 -108 -167c0 -52 24 -82 67 -82c59 0 108 75 108 167zM78 247l-35 94l462 168l35 -94zM-42 -49
c0 151 89 261 209 261c39 0 71 -11 98 -34c33 84 99 134 180 134c103 0 169 -70 169 -177c0 -151 -89 -261 -209 -261c-38 0 -71 11 -98 32c-32 -83 -99 -132 -180 -132c-103 0 -169 69 -169 177zM511 135c0 53 -25 83 -68 83c-61 0 -108 -74 -108 -167c0 -53 24 -83 68 -83
c60 0 108 74 108 167zM238 35c0 53 -24 83 -69 83c-61 0 -108 -73 -108 -168c0 -53 25 -82 68 -82c61 0 109 75 109 167z" />
    <glyph glyph-name="arrowup" unicode="&#x2191;" horiz-adv-x="632" 
d="M611 389l-83 -84l-130 146v-424h-119v425l-130 -147l-84 84l273 284z" />
    <glyph glyph-name="uni2197" unicode="&#x2197;" horiz-adv-x="572" 
d="M132 588l394 9l-9 -394l-109 1l10 209l-309 -312l-81 82l308 306l-203 -10z" />
    <glyph glyph-name="arrowright" unicode="&#x2192;" horiz-adv-x="742" 
d="M429 619l284 -273l-284 -273l-81 81l152 137h-433v111h432l-151 136z" />
    <glyph glyph-name="uni2198" unicode="&#x2198;" horiz-adv-x="657" 
d="M191 110l1 109l203 -10l-308 306l81 82l309 -312l-10 209l109 1l9 -394z" />
    <glyph glyph-name="arrowdown" unicode="&#x2193;" horiz-adv-x="632" 
d="M514 396l83 -84l-273 -284l-273 284l84 84l130 -147v425h119v-424z" />
    <glyph glyph-name="uni2199" unicode="&#x2199;" horiz-adv-x="572" 
d="M266 212l203 10l1 -109l-394 -9l9 394l109 -1l-10 -209l309 312l81 -82z" />
    <glyph glyph-name="arrowleft" unicode="&#x2190;" horiz-adv-x="742" 
d="M703 402v-111h-433l152 -137l-81 -81l-284 273l284 273l81 -81l-151 -136h432z" />
    <glyph glyph-name="uni2196" unicode="&#x2196;" horiz-adv-x="688" 
d="M630 183l-81 -82l-309 312l10 -209l-109 -1l-9 394l394 -9l-1 -109l-203 10z" />
    <glyph glyph-name="arrowboth" unicode="&#x2194;" horiz-adv-x="928" 
d="M614 619l285 -273l-285 -273l-77 78l155 141h-428l155 -141l-77 -78l-285 273l285 273l77 -78l-155 -141h428l-155 141z" />
    <glyph glyph-name="arrowupdn" unicode="&#x2195;" horiz-adv-x="677" 
d="M408 151l138 152l81 -81l-273 -285l-274 286l82 80l138 -152v398l-138 -152l-81 80l273 284l273 -284l-81 -80l-138 152v-398z" />
    <glyph glyph-name="uni21B3" unicode="&#x21b3;" horiz-adv-x="821" 
d="M507 619l285 -273l-285 -273l-80 81l151 137h-409v407h116v-296h292l-150 136z" />
    <glyph glyph-name="lozenge" unicode="&#x25ca;" horiz-adv-x="698" 
d="M233 0l-165 350l289 350h139l164 -350l-288 -350h-139zM310 100l220 266l-111 234l-220 -266z" />
    <glyph glyph-name="uniF8FF" unicode="&#xf8ff;" horiz-adv-x="765" 
d="M82 0v423c-4 154 139 295 292 292c155 3 298 -138 294 -292v-423h-28l-65 65l-68 -65l-63 65l-71 -65l-69 65l-63 -65l-67 65l-66 -65h-26zM319 377c0 40 -31 72 -71 72c-39 0 -71 -32 -71 -72c0 -39 32 -70 71 -70s71 31 71 70zM574 377c0 40 -32 72 -72 72
c-39 0 -70 -32 -70 -72c0 -37 33 -70 70 -70c39 0 72 33 72 70z" />
    <glyph glyph-name="at" unicode="@" horiz-adv-x="798" 
d="M756 366c0 -164 -77 -280 -184 -280c-44 0 -77 17 -93 49c-24 -31 -68 -49 -116 -49c-75 0 -125 41 -125 104c5 94 67 115 157 140c61 17 86 26 86 53c0 17 -17 28 -46 28c-41 0 -74 -25 -86 -64l-86 25c23 75 92 123 177 123c81 0 134 -46 134 -115c0 -5 -1 -13 -2 -25
l-24 -136c-2 -10 -3 -19 -3 -26c0 -21 10 -31 31 -28c51 0 95 95 95 201c0 132 -81 213 -214 213c-177 3 -322 -160 -318 -361c0 -141 72 -214 209 -214c68 0 121 12 182 41l31 -72c-61 -31 -132 -47 -213 -47c-187 0 -294 107 -294 292c-4 244 179 442 403 438
c180 0 299 -116 299 -290zM454 226l11 58h-2c-9 -13 -27 -20 -59 -29c-45 -13 -70 -25 -70 -56c0 -19 13 -30 37 -30c39 0 76 26 83 57z" />
    <glyph glyph-name="ampersand" unicode="&#x26;" horiz-adv-x="686" 
d="M642 119l-83 -84l-50 51c-55 -64 -139 -101 -236 -101c-152 0 -235 70 -235 178c0 92 63 175 167 231c-37 43 -55 88 -55 135c0 105 89 186 210 186c112 0 197 -75 203 -175l-123 -11c-4 47 -35 73 -80 73c-53 0 -88 -31 -88 -78c0 -24 10 -44 39 -73l158 -158l20 121
h115l-38 -219zM427 168l-151 152c-75 -39 -116 -89 -116 -145c0 -49 44 -76 113 -76s123 24 154 69z" />
    <glyph glyph-name="paragraph" unicode="&#xb6;" horiz-adv-x="656" 
d="M108 -136l93 523c-81 16 -128 65 -128 148c0 92 81 165 187 165h390l-148 -836h-127l127 718h-140l-127 -718h-127z" />
    <glyph glyph-name="section" unicode="&#xa7;" horiz-adv-x="648" 
d="M573 264c0 -63 -36 -116 -109 -161c21 -27 32 -60 32 -99c0 -111 -92 -195 -217 -195c-121 0 -207 73 -219 188l127 15c5 -57 39 -88 92 -88c52 0 90 33 90 73c0 36 -19 56 -83 84l-94 41c-84 37 -117 77 -117 138c0 59 35 115 108 160c-21 27 -31 60 -31 99
c0 111 92 196 217 196c61 0 111 -17 150 -52c40 -34 63 -79 68 -136l-126 -15c-7 57 -39 88 -92 88c-52 0 -91 -33 -91 -74c0 -35 19 -54 83 -83l95 -42c84 -37 117 -77 117 -137zM267 218l105 -47l11 -5c46 28 69 55 69 81c0 21 -14 34 -71 59l-105 47l-11 5
c-46 -29 -69 -56 -69 -81c0 -23 14 -34 71 -59z" />
    <glyph glyph-name="copyright" unicode="&#xa9;" horiz-adv-x="712" 
d="M59 323c-3 171 135 311 308 308c175 3 310 -137 307 -308c3 -171 -132 -310 -307 -307c-175 -3 -310 136 -308 307zM604 323c0 137 -100 243 -237 243c-136 3 -240 -110 -238 -243c-2 -133 102 -245 238 -242c136 0 237 109 237 242zM212 324c0 105 67 179 160 179
c79 0 140 -51 149 -126l-75 -15c-8 45 -33 67 -75 67c-47 0 -77 -40 -77 -105s30 -106 77 -106c41 0 67 23 75 67l75 -15c-11 -75 -72 -126 -149 -126c-93 0 -160 75 -160 180z" />
    <glyph glyph-name="registered" unicode="&#xae;" horiz-adv-x="712" 
d="M674 323c3 -171 -132 -310 -307 -307c-175 -3 -310 136 -308 307c-3 171 135 311 308 308c175 3 310 -137 307 -308zM604 323c0 137 -100 243 -237 243c-136 3 -240 -110 -238 -243c-2 -133 102 -245 238 -242c136 0 237 109 237 242zM445 282l68 -130h-87l-59 122h-38
v-122h-79v344h141c83 0 126 -40 126 -108c0 -51 -25 -89 -72 -106zM330 432v-93h57c32 0 51 18 51 49c0 28 -18 44 -51 44h-57z" />
    <glyph glyph-name="uni2117" unicode="&#x2117;" horiz-adv-x="712" 
d="M59 323c-3 171 135 311 308 308c175 3 310 -137 307 -308c3 -171 -132 -310 -307 -307c-175 -3 -310 136 -308 307zM604 323c0 137 -100 243 -237 243c-136 3 -240 -110 -238 -243c-2 -133 102 -245 238 -242c136 0 237 109 237 242zM267 149v344h136
c75 0 119 -42 119 -117s-44 -115 -121 -115h-54v-112h-80zM347 328h43c37 0 52 14 52 49c0 33 -17 50 -51 50h-44v-99z" />
    <glyph glyph-name="trademark" unicode="&#x2122;" horiz-adv-x="813" 
d="M151 361l46 259h-100l15 80h285l-14 -80h-98l-46 -259h-88zM382 361l60 339h99l57 -228h1l140 228h108l-60 -339h-83l36 205h-1l-128 -205h-54l-54 205h-1l-36 -205h-84z" />
    <glyph glyph-name="degree" unicode="&#xb0;" horiz-adv-x="457" 
d="M82 522c0 105 83 183 192 183s192 -78 192 -183s-83 -183 -192 -183s-192 78 -192 183zM365 522c0 53 -38 90 -91 90c-55 0 -92 -37 -92 -90s37 -90 92 -90c53 0 91 37 91 90z" />
    <glyph glyph-name="bar" unicode="|" horiz-adv-x="271" 
d="M-7 -300l190 1075h85l-190 -1075h-85z" />
    <glyph glyph-name="brokenbar" unicode="&#xa6;" horiz-adv-x="271" 
d="M108 350l75 425h85l-75 -425h-85zM-7 -300l75 425h85l-75 -425h-85z" />
    <glyph glyph-name="dagger" unicode="&#x2020;" horiz-adv-x="652" 
d="M182 -196l107 608h-220l21 118h220l40 229h127l-40 -229h219l-21 -118h-219l-107 -608h-127z" />
    <glyph glyph-name="daggerdbl" unicode="&#x2021;" horiz-adv-x="652" 
d="M182 -196l39 223h-220l21 118h220l47 267h-220l21 118h220l40 229h127l-40 -229h219l-21 -118h-219l-47 -267h219l-21 -118h-219l-39 -223h-127z" />
    <glyph glyph-name="uni2116" unicode="&#x2116;" horiz-adv-x="1099" 
d="M715 449c0 149 91 260 212 260c100 0 166 -70 166 -178c0 -148 -91 -260 -212 -260c-100 0 -166 70 -166 178zM28 0l124 700h130l180 -485h2l85 485h127l-124 -700h-130l-180 485h-2l-85 -485h-127zM991 528c0 53 -24 83 -67 83c-61 0 -107 -71 -107 -158
c0 -53 24 -84 67 -84c58 0 107 70 107 159zM658 119l18 104h365l-19 -104h-364z" />
    <glyph glyph-name="asciicircum" unicode="^" horiz-adv-x="597" 
d="M545 325h-111l-71 269l-165 -269h-124l240 375h122z" />
    <glyph glyph-name="at.case" horiz-adv-x="797" 
d="M765 425c0 -164 -77 -280 -184 -280c-44 0 -77 17 -93 49c-24 -31 -68 -49 -116 -49c-75 0 -125 41 -125 104c5 94 67 115 157 140c61 17 86 26 86 53c0 17 -17 28 -46 28c-41 0 -74 -25 -86 -64l-86 25c23 75 92 123 177 123c81 0 134 -46 134 -115c0 -5 -1 -13 -2 -25
l-24 -136c-2 -10 -3 -19 -3 -26c0 -21 10 -31 31 -28c51 0 95 95 95 201c0 132 -81 213 -214 213c-177 3 -322 -160 -318 -361c0 -141 72 -214 209 -214c68 0 121 12 182 41l31 -72c-61 -31 -132 -47 -213 -47c-187 0 -294 107 -294 292c-4 244 179 442 403 438
c180 0 299 -116 299 -290zM463 285l11 58h-2c-9 -13 -27 -20 -59 -29c-45 -13 -70 -25 -70 -56c0 -19 13 -30 37 -30c39 0 76 26 83 57z" />
    <glyph glyph-name="uni0308" unicode="&#x308;" horiz-adv-x="0" 
d="M-262 580l20 117h120l-21 -117h-119zM-63 580l20 117h119l-20 -117h-119z" />
    <glyph glyph-name="uni0307" unicode="&#x307;" horiz-adv-x="0" 
d="M-62 590l20 117h120l-21 -117h-119z" />
    <glyph glyph-name="gravecomb" unicode="&#x300;" horiz-adv-x="0" 
d="M-42 590l-93 131h129l63 -131h-99z" />
    <glyph glyph-name="acutecomb" unicode="&#x301;" horiz-adv-x="0" 
d="M-163 590l109 131h134l-138 -131h-105z" />
    <glyph glyph-name="uni030B" unicode="&#x30b;" horiz-adv-x="0" 
d="M-346 590l109 131h134l-138 -131h-105zM-163 590l109 131h134l-138 -131h-105z" />
    <glyph glyph-name="uni0302" unicode="&#x302;" horiz-adv-x="0" 
d="M61 614l-71 -44l-55 90l-86 -90l-60 56l79 82h133z" />
    <glyph glyph-name="uni030C" unicode="&#x30c;" horiz-adv-x="0" 
d="M9 718l61 -55l-79 -83h-133l-60 94l71 44l55 -89z" />
    <glyph glyph-name="uni0306" unicode="&#x306;" horiz-adv-x="0" 
d="M-204 713h67c4 -35 24 -52 59 -52c41 0 71 17 90 52h67c-23 -84 -80 -133 -163 -133c-71 0 -120 54 -120 133z" />
    <glyph glyph-name="uni030A" unicode="&#x30a;" horiz-adv-x="0" 
d="M-225 597c0 73 58 127 141 127c81 0 141 -54 141 -127s-60 -127 -141 -127c-83 0 -141 54 -141 127zM-16 597c0 40 -28 67 -68 67s-68 -27 -68 -67c0 -39 28 -67 68 -67s68 28 68 67z" />
    <glyph glyph-name="tildecomb" unicode="&#x303;" horiz-adv-x="0" 
d="M-112 608c-16 8 -35 16 -48 16c-19 0 -32 -11 -39 -34h-63c13 68 55 109 108 109c28 0 47 -7 79 -22c20 -11 36 -16 48 -16c19 0 32 11 40 33h62c-13 -67 -55 -109 -108 -109c-28 0 -50 8 -79 23z" />
    <glyph glyph-name="uni0304" unicode="&#x304;" horiz-adv-x="0" 
d="M-244 590l13 79h301l-13 -79h-301z" />
    <glyph glyph-name="uni0312" unicode="&#x312;" horiz-adv-x="0" 
d="M93 809l-10 -52c-36 -9 -51 -24 -56 -56h50l-20 -111h-134l17 98c13 71 66 113 153 121z" />
    <glyph glyph-name="dotbelowcomb" unicode="&#x323;" horiz-adv-x="0" 
d="M-194 -166l20 117h120l-21 -117h-119z" />
    <glyph glyph-name="uni0326" unicode="&#x326;" horiz-adv-x="0" 
d="M-211 -269l9 52c33 8 46 23 51 56h-46l20 111h122l-17 -98c-13 -72 -60 -113 -139 -121z" />
    <glyph glyph-name="uni0327" unicode="&#x327;" horiz-adv-x="0" 
d="M-70 -124c0 -65 -51 -111 -123 -111c-43 0 -80 13 -111 38l43 55c21 -17 39 -24 64 -24c31 0 56 21 56 45c0 17 -13 28 -33 28c-21 0 -40 -9 -59 -26l-48 30l83 116l55 -19l-35 -46c4 1 10 1 17 1c55 0 91 -35 91 -87z" />
    <glyph glyph-name="uni0328" unicode="&#x328;" horiz-adv-x="0" 
d="M-275 -134c0 53 44 103 133 149l50 -15c-56 -32 -92 -72 -92 -104c0 -15 8 -21 27 -21c18 0 37 6 58 17l20 -74c-37 -17 -70 -26 -101 -26c-61 0 -95 27 -95 74z" />
    <glyph glyph-name="uni0335" unicode="&#x335;" horiz-adv-x="0" 
d="M-357 305l17 101h364l-17 -101h-364z" />
    <glyph glyph-name="uni0336" unicode="&#x336;" horiz-adv-x="0" 
d="M-647 309l18 97h654l-18 -97h-654z" />
    <glyph glyph-name="uni0337" unicode="&#x337;" horiz-adv-x="0" 
d="M-459 -18l-43 41l502 524l43 -42z" />
    <glyph glyph-name="_646" horiz-adv-x="0" 
d="M18 366l-236 -135l3 12l-153 -88l-32 55l206 119l-3 -12l184 105z" />
    <glyph glyph-name="uni0338" unicode="&#x338;" horiz-adv-x="0" 
d="M-460 -40l-59 43l536 737l59 -43z" />
    <glyph glyph-name="_648" horiz-adv-x="0" 
d="M23 393l-309 -192l3 15l-165 -105l-35 53l245 157l-1 -7l224 139z" />
    <glyph glyph-name="_649" horiz-adv-x="0" 
d="M-65 620l22 123h127l-22 -123h-127z" />
    <glyph glyph-name="_650" horiz-adv-x="0" 
d="M-332 315l15 84h341l-15 -84h-341z" />
    <glyph glyph-name="acute" unicode="&#xb4;" horiz-adv-x="326" 
d="M110 590l109 131h134l-138 -131h-105z" />
    <glyph glyph-name="breve" unicode="&#x2d8;" horiz-adv-x="376" 
d="M132 713h67c4 -35 24 -52 59 -52c41 0 71 17 90 52h67c-23 -84 -80 -133 -163 -133c-71 0 -120 54 -120 133z" />
    <glyph glyph-name="caron" unicode="&#x2c7;" horiz-adv-x="380" 
d="M336 718l61 -55l-79 -83h-133l-60 94l71 44l55 -89z" />
    <glyph glyph-name="cedilla" unicode="&#xb8;" horiz-adv-x="326" 
d="M205 -124c0 -65 -51 -111 -123 -111c-43 0 -80 13 -111 38l43 55c21 -17 39 -24 64 -24c31 0 56 21 56 45c0 17 -13 28 -33 28c-21 0 -40 -9 -59 -26l-48 30l83 116l55 -19l-35 -46c4 1 10 1 17 1c55 0 91 -35 91 -87z" />
    <glyph glyph-name="circumflex" unicode="&#x2c6;" horiz-adv-x="381" 
d="M389 614l-71 -44l-55 90l-86 -90l-60 56l79 82h133z" />
    <glyph glyph-name="dieresis" unicode="&#xa8;" horiz-adv-x="425" 
d="M109 580l20 117h120l-21 -117h-119zM308 580l20 117h119l-20 -117h-119z" />
    <glyph glyph-name="dotaccent" unicode="&#x2d9;" horiz-adv-x="226" 
d="M111 590l20 117h120l-21 -117h-119z" />
    <glyph glyph-name="grave" unicode="`" horiz-adv-x="321" 
d="M226 590l-93 131h129l63 -131h-99z" />
    <glyph glyph-name="hungarumlaut" unicode="&#x2dd;" horiz-adv-x="509" 
d="M110 590l109 131h134l-138 -131h-105zM293 590l109 131h134l-138 -131h-105z" />
    <glyph glyph-name="macron" unicode="&#xaf;" horiz-adv-x="408" 
d="M111 590l13 79h301l-13 -79h-301z" />
    <glyph glyph-name="ogonek" unicode="&#x2db;" horiz-adv-x="309" 
d="M-19 -134c0 53 44 103 133 149l50 -15c-56 -32 -92 -72 -92 -104c0 -15 8 -21 27 -21c18 0 37 6 58 17l20 -74c-37 -17 -70 -26 -101 -26c-61 0 -95 27 -95 74z" />
    <glyph glyph-name="ring" unicode="&#x2da;" horiz-adv-x="392" 
d="M114 597c0 73 58 127 141 127c81 0 141 -54 141 -127s-60 -127 -141 -127c-83 0 -141 54 -141 127zM323 597c0 40 -28 67 -68 67s-68 -27 -68 -67c0 -39 28 -67 68 -67s68 28 68 67z" />
    <glyph glyph-name="tilde" unicode="&#x2dc;" horiz-adv-x="425" 
d="M260 608c-16 8 -35 16 -48 16c-19 0 -32 -11 -39 -34h-63c13 68 55 109 108 109c28 0 47 -7 79 -22c20 -11 36 -16 48 -16c19 0 32 11 40 33h62c-13 -67 -55 -109 -108 -109c-28 0 -50 8 -79 23z" />
    </font>
</defs>
</svg>
